<svg class="Z0dEQ IKEiQ" viewBox="0 0 40 40"><g transform="matrix(.35 0 0 .35 3.2 3.2)"><path d="M0 3.5c.3 0 .5-.2.5-.4v-6.2c0-.2-.3-.4-.5-.4-.3 0-.5.2-.5.4v6.2c0 .2.3.4.5.4z" transform="matrix(4 0 0 4 54 52)"></path><path d="M0 3.5c.3 0 .5-.2.5-.4v-6.2c0-.2-.3-.4-.5-.4-.3 0-.5.2-.5.4v6.2c0 .2.3.4.5.4z" transform="matrix(4 0 0 4 42 52)"></path><path d="M5.4-6.5 4.2 4.6c-.1.5-.5.9-1 .9h-6.4a1 1 0 0 1-1-.9L-5.4-6.5h-1l1.3 11.2a2 2 0 0 0 2 1.8h6.3a2 2 0 0 0 2-1.8L6.4-6.5h-1z" transform="matrix(4 0 0 4 48 54)"></path></g></svg>