<?xml version="1.0" standalone="no"?>
<!DOCTYPE svg PUBLIC "-//W3C//DTD SVG 20010904//EN"
 "http://www.w3.org/TR/2001/REC-SVG-20010904/DTD/svg10.dtd">
<svg version="1.0" xmlns="http://www.w3.org/2000/svg"
 width="500.000000pt" height="500.000000pt" viewBox="0 0 500.000000 500.000000"
 preserveAspectRatio="xMidYMid meet">
<metadata>
Created by potrace 1.14, written by Peter Selinger 2001-2017
</metadata>
<g transform="translate(0.000000,500.000000) scale(0.100000,-0.100000)"
fill="#000000" stroke="none">
<path d="M1478 4281 c-83 -17 -150 -92 -166 -186 -4 -22 -6 -111 -6 -197 l2
-157 -532 -3 c-525 -3 -531 -3 -572 -25 -87 -46 -134 -104 -167 -204 -28 -84
-32 -133 -30 -404 2 -148 4 -576 6 -950 4 -741 3 -728 62 -846 64 -124 130
-161 350 -195 46 -7 368 -6 495 1 47 3 173 7 280 10 107 3 287 8 400 12 225 7
1004 8 1141 2 l87 -5 207 -169 c114 -94 221 -183 239 -198 70 -63 68 -68 60
125 -9 251 -9 252 7 243 19 -12 173 -7 247 9 91 19 181 66 228 120 44 51 57
75 80 151 16 55 17 119 16 720 0 363 -1 680 -1 705 l-1 45 -214 0 c-118 0
-218 -4 -223 -9 -4 -4 -8 -78 -8 -164 l0 -157 -155 0 -155 0 0 155 c0 85 -3
160 -7 165 -4 6 -46 10 -97 10 l-91 0 0 67 0 67 93 -2 92 -2 1 -50 c1 -27 2
-57 3 -66 1 -14 22 -16 161 -16 l160 -1 -1 172 c0 94 0 190 0 214 l1 42 220 0
c121 0 220 3 221 8 17 117 -29 252 -112 326 -23 21 -67 50 -98 65 l-56 26
-475 3 c-261 2 -475 4 -477 5 -1 2 -3 84 -3 183 -2 164 -4 183 -24 224 -28 55
-76 95 -149 120 -54 19 -80 20 -529 19 -260 -1 -490 -5 -510 -8z m952 -184
c32 -9 50 -33 51 -71 1 -43 1 -258 0 -273 -1 -10 -102 -13 -470 -13 l-469 0 3
173 c1 94 3 175 4 179 0 3 9 8 19 11 28 7 834 1 862 -6z m-798 -984 c3 -15 2
-1631 -1 -1670 -1 -10 -59 -13 -256 -13 l-255 0 0 73 c-1 100 -1 924 0 1310
l0 317 254 0 c233 0 254 -1 258 -17z m1248 -1083 l0 -600 -260 0 -260 0 0 600
0 600 260 0 260 0 0 -600z m-632 313 c4 -6 7 -213 7 -460 l0 -448 -258 -3
-257 -2 0 459 0 460 23 3 c61 9 479 1 485 -9z m-1278 -518 l0 -395 -235 0
c-129 0 -236 3 -236 8 -1 4 -2 181 -3 395 l-1 387 238 0 237 0 0 -395z m2530
0 l0 -395 -260 0 -260 0 0 395 0 395 260 0 260 0 0 -395z"/>
<path d="M4223 2875 l0 -205 31 -1 c116 -3 409 1 414 5 2 3 5 94 5 203 l0 198
-225 3 -226 2 1 -205z"/>
<path d="M4684 2669 c-14 -4 -16 -28 -16 -160 1 -84 1 -162 2 -171 0 -16 15
-18 165 -18 l165 0 0 175 0 175 -42 1 c-186 4 -261 3 -274 -2z"/>
<path d="M4487 2318 c-12 -7 -19 -227 -7 -229 3 -1 47 -2 98 -3 l93 -2 -3 120
-3 119 -83 1 c-46 1 -89 -2 -95 -6z"/>
</g>
</svg>
