<?xml version="1.0" standalone="no"?>
<!DOCTYPE svg PUBLIC "-//W3C//DTD SVG 20010904//EN"
 "http://www.w3.org/TR/2001/REC-SVG-20010904/DTD/svg10.dtd">
<svg version="1.0" xmlns="http://www.w3.org/2000/svg"
 width="513.000000pt" height="513.000000pt" viewBox="0 0 513.000000 513.000000"
 preserveAspectRatio="xMidYMid meet">
<metadata>
Created by potrace 1.14, written by Peter Selinger 2001-2017
</metadata>
<g transform="translate(0.000000,513.000000) scale(0.100000,-0.100000)"
fill="#000000" stroke="none">
<path d="M1237 4413 c-4 -3 -18 -8 -32 -9 -44 -5 -89 -38 -114 -84 -22 -39
-25 -57 -25 -154 -1 -62 -5 -114 -11 -118 -6 -5 -6 -8 1 -8 13 0 12 -58 0 -79
-6 -8 -5 -12 0 -8 6 3 9 -30 9 -81 0 -94 -9 -111 -46 -91 -12 6 -19 7 -16 2 7
-11 -214 -10 -233 2 -8 5 -11 4 -7 -1 7 -12 -214 -11 -233 1 -8 5 -11 4 -7 -1
7 -12 -214 -11 -233 1 -8 5 -11 4 -7 -2 4 -6 -14 -9 -46 -8 -53 1 -113 -22
-130 -51 -5 -8 -14 -11 -20 -8 -7 4 -9 4 -5 -1 4 -4 0 -22 -9 -39 -11 -21 -18
-60 -19 -121 -1 -49 -3 -94 -4 -100 -1 -5 -1 -13 0 -17 6 -20 5 -34 -5 -40 -6
-5 -6 -8 0 -8 6 0 9 -32 8 -81 -2 -45 2 -89 7 -98 6 -11 9 -12 10 -3 0 7 5 10
10 7 8 -5 7 -12 -2 -23 -12 -15 -11 -16 5 -3 22 17 67 24 67 10 0 -6 7 -4 15
5 17 17 49 11 38 -8 -3 -6 -1 -6 8 2 19 17 34 15 19 -3 -11 -13 -10 -14 4 -9
9 3 16 11 16 16 0 6 7 5 15 -2 9 -7 18 -10 22 -6 3 3 0 6 -8 7 -8 0 -5 4 6 8
11 5 25 5 30 1 6 -4 21 -6 33 -5 13 1 26 -4 29 -11 3 -9 10 -7 24 7 12 12 25
17 32 12 7 -4 23 -8 37 -8 15 0 24 -6 22 -14 -2 -8 7 -5 23 7 27 21 60 20 48
-2 -3 -6 -1 -6 8 2 19 17 34 15 19 -3 -11 -13 -10 -14 4 -9 9 3 16 11 16 17 0
7 4 7 12 -1 9 -9 16 -8 30 5 20 18 25 5 6 -17 -7 -8 -4 -7 8 3 23 19 39 23 29
7 -3 -5 -1 -10 4 -10 6 0 11 5 11 10 0 6 5 10 11 10 5 0 7 -6 3 -12 -6 -10 -4
-10 7 0 18 17 34 15 19 -3 -19 -23 -4 -18 19 6 14 15 21 17 26 8 5 -8 4 -10
-3 -5 -18 11 -14 0 5 -15 9 -8 14 -9 10 -3 -4 7 0 15 9 18 22 9 26 8 18 -6 -5
-7 -3 -8 6 -3 8 5 49 9 92 10 84 1 114 -8 88 -25 -13 -8 -12 -10 4 -10 11 0
16 -3 13 -7 -4 -3 -3 -11 2 -17 19 -25 19 -54 0 -59 -11 -3 -19 0 -19 6 0 8
-3 8 -8 2 -8 -12 -82 -14 -82 -3 0 5 -5 8 -11 8 -5 0 -8 -3 -6 -7 8 -12 -177
-9 -185 2 -5 6 -8 5 -8 -4 0 -9 -4 -10 -12 -4 -7 5 -22 8 -33 7 -78 -10 -105
-10 -105 0 0 6 -4 5 -9 -3 -6 -9 -11 -10 -15 -2 -5 8 -13 8 -27 1 -13 -8 -19
-7 -19 0 0 6 -5 8 -11 5 -18 -11 -109 -11 -109 0 0 7 -3 7 -8 0 -7 -11 -48
-12 -58 -2 -3 3 -17 2 -30 -3 -17 -7 -24 -6 -24 3 0 7 -3 8 -8 2 -8 -12 -162
-14 -162 -3 0 5 -9 3 -19 -4 -15 -9 -19 -23 -19 -57 0 -25 0 -50 -2 -56 -1 -5
-1 -13 0 -17 6 -20 5 -34 -5 -40 -6 -5 -6 -8 0 -8 8 0 12 -141 5 -175 -1 -5
-1 -13 0 -17 6 -20 5 -34 -5 -40 -6 -5 -6 -8 0 -8 8 0 12 -141 5 -175 -1 -5
-1 -13 0 -17 6 -20 5 -34 -5 -40 -6 -5 -6 -8 0 -8 8 0 12 -141 5 -175 -1 -5
-1 -13 0 -17 6 -20 5 -34 -5 -40 -6 -5 -6 -8 0 -8 8 0 12 -141 5 -175 -1 -5
-1 -13 0 -17 6 -20 5 -34 -5 -40 -6 -5 -6 -8 0 -8 8 0 12 -141 5 -175 -1 -5
-1 -13 0 -17 6 -20 5 -34 -5 -40 -6 -5 -6 -8 0 -8 8 0 12 -141 5 -175 -1 -5
-1 -13 0 -17 6 -20 5 -34 -5 -40 -6 -5 -6 -8 0 -8 8 0 12 -141 5 -175 -1 -5
-1 -13 0 -17 6 -20 5 -34 -5 -40 -6 -5 -6 -8 0 -8 8 0 12 -141 5 -175 -1 -5
-1 -12 0 -15 8 -21 6 -40 -3 -40 -8 0 -8 -3 -2 -8 6 -4 11 -29 12 -57 3 -71 6
-89 21 -98 6 -4 12 -14 12 -22 0 -7 9 -17 20 -20 11 -3 20 -10 20 -15 0 -5 13
-11 30 -15 16 -4 30 -11 30 -16 0 -5 5 -9 11 -9 5 0 8 4 5 9 -7 11 13 9 32 -2
6 -5 12 -5 12 -1 0 3 7 1 15 -6 13 -11 14 -10 9 4 -3 9 -2 16 4 16 6 0 12 -5
14 -11 3 -9 10 -9 27 1 13 6 21 8 18 3 -3 -4 2 -15 11 -23 14 -13 15 -12 9 4
-5 13 -3 17 7 13 7 -3 19 0 26 6 10 9 11 9 5 -2 -6 -10 -4 -13 7 -8 9 3 20 1
26 -5 6 -6 12 -6 17 3 5 8 4 10 -3 5 -7 -4 -12 -2 -12 3 0 14 17 14 25 1 4 -7
13 -6 27 1 11 6 18 7 15 2 -3 -4 2 -15 11 -23 14 -13 15 -12 9 4 -5 13 -3 17
7 13 7 -3 19 0 26 6 10 9 11 9 5 -2 -6 -10 -4 -13 7 -8 9 3 20 1 26 -5 6 -6
12 -6 17 3 5 8 4 10 -3 5 -7 -4 -12 -2 -12 3 0 13 17 14 24 2 6 -9 54 -7 63 3
4 3 12 1 19 -5 9 -7 19 -7 33 1 12 6 21 7 21 1 0 -5 -5 -11 -12 -13 -8 -3 -6
-7 5 -11 9 -3 16 -3 16 1 -5 28 2 35 17 16 8 -10 13 -13 9 -6 -8 16 7 16 24
-1 10 -8 12 -8 7 0 -3 6 -2 14 4 18 5 3 10 1 10 -6 0 -8 5 -7 17 2 9 8 14 9
10 3 -4 -7 0 -15 9 -18 10 -4 13 -2 8 6 -5 7 -2 9 8 6 8 -4 21 -2 29 2 7 5 18
5 24 0 12 -10 34 -8 54 4 8 5 12 5 9 0 -3 -5 1 -16 10 -24 14 -13 15 -12 9 3
-3 9 -2 19 3 22 6 4 10 1 10 -4 0 -6 5 -11 11 -11 5 0 8 4 5 8 -2 4 8 8 24 7
22 0 26 -3 18 -13 -9 -11 -13 -11 -19 0 -6 9 -9 9 -9 1 0 -17 17 -25 25 -12 4
5 14 8 22 5 9 -4 11 -2 7 6 -5 7 -2 9 8 6 8 -4 21 -2 29 2 8 5 18 5 26 -1 8
-7 18 -7 32 1 12 6 21 7 21 1 0 -5 -5 -11 -12 -13 -8 -3 -6 -7 5 -11 9 -3 16
-3 16 1 -5 28 2 35 17 16 8 -10 13 -13 9 -6 -8 16 7 16 24 -1 10 -8 12 -8 7 0
-3 6 -2 14 4 18 5 3 10 1 10 -6 0 -8 5 -7 17 2 9 8 14 9 10 3 -4 -7 0 -15 9
-18 10 -4 13 -2 8 6 -5 7 -2 9 8 6 8 -4 21 -2 29 2 7 5 18 5 24 0 12 -10 34
-8 54 4 8 5 12 5 9 0 -3 -5 1 -16 10 -24 14 -13 15 -12 9 3 -3 9 -2 19 3 22 6
4 10 1 10 -4 0 -6 5 -11 11 -11 5 0 8 4 5 8 -2 4 8 8 24 7 22 0 26 -3 18 -13
-9 -11 -13 -11 -19 0 -6 9 -9 9 -9 1 0 -17 17 -25 25 -12 4 5 14 8 22 5 9 -4
11 -2 7 6 -5 7 -2 9 8 6 8 -4 21 -2 29 2 8 5 18 5 26 -1 8 -7 18 -7 32 1 12 6
21 7 21 1 0 -5 -5 -11 -12 -13 -8 -3 -6 -7 5 -11 9 -3 16 -3 16 1 -5 28 2 35
17 16 8 -10 13 -13 9 -6 -8 16 7 16 24 -1 10 -8 12 -8 7 0 -3 6 -2 14 4 18 5
3 10 1 10 -6 0 -8 5 -7 17 2 9 8 14 9 10 3 -4 -7 0 -15 9 -18 10 -4 13 -2 8 6
-5 7 -2 9 8 6 8 -4 21 -2 29 2 8 5 19 4 26 -2 9 -7 18 -7 30 3 9 8 14 10 11 4
-3 -5 1 -17 10 -25 14 -13 15 -12 9 4 -5 13 -3 17 7 13 7 -3 19 0 26 6 10 9
11 9 5 -2 -6 -10 -4 -13 7 -8 9 3 20 1 26 -5 6 -6 12 -6 17 3 5 8 4 10 -3 5
-7 -4 -12 -2 -12 3 0 14 17 14 25 1 4 -7 13 -6 27 1 11 6 18 7 15 2 -3 -4 2
-15 11 -23 14 -13 15 -12 9 4 -5 13 -3 17 7 13 7 -3 19 0 26 6 10 9 11 9 5 -2
-6 -10 -4 -13 7 -8 9 3 20 1 26 -5 6 -6 12 -6 17 3 5 8 4 10 -3 5 -7 -4 -12
-2 -12 3 0 14 17 14 25 1 4 -7 13 -6 27 1 11 6 18 7 15 2 -3 -4 2 -15 11 -23
14 -13 15 -12 9 4 -5 13 -3 17 7 13 7 -3 19 0 26 6 10 9 11 9 5 -2 -6 -10 -4
-13 7 -8 9 3 20 1 26 -5 6 -6 12 -6 17 3 5 8 4 10 -3 5 -7 -4 -12 -2 -12 3 0
14 17 14 25 1 4 -7 13 -6 27 1 11 6 18 7 15 2 -3 -4 2 -15 11 -23 14 -13 15
-12 9 4 -5 13 -3 17 7 13 7 -3 19 0 26 6 10 9 11 9 5 -2 -6 -10 -4 -13 7 -8 9
3 20 1 26 -5 6 -6 12 -6 17 3 5 8 4 10 -3 5 -7 -4 -12 -2 -12 3 0 13 17 15 24
3 6 -11 36 -9 55 3 8 4 12 4 9 -1 -3 -5 1 -16 10 -24 14 -13 15 -12 9 3 -3 9
-2 19 3 22 6 4 10 1 10 -4 0 -6 5 -11 11 -11 5 0 8 4 5 8 -2 4 8 8 24 7 22 0
26 -3 18 -13 -9 -11 -13 -11 -19 0 -6 9 -9 9 -9 1 0 -17 17 -25 25 -12 4 5 14
8 22 5 9 -4 11 -2 7 6 -5 7 -2 9 8 6 8 -4 21 -2 29 2 8 5 18 5 26 -1 8 -7 18
-7 32 1 12 6 21 7 21 1 0 -5 -5 -11 -12 -13 -8 -3 -6 -7 5 -11 9 -3 16 -3 16
1 -5 28 2 35 17 16 8 -10 13 -13 9 -6 -3 6 -2 12 2 12 5 0 15 -6 22 -12 10 -9
12 -9 7 -1 -3 6 -2 14 4 18 5 3 10 1 10 -6 0 -8 5 -7 17 2 9 8 14 9 10 3 -4
-7 0 -15 9 -18 10 -4 13 -2 8 6 -5 7 -2 9 8 6 8 -4 21 -2 29 2 7 5 18 5 24 0
12 -10 34 -8 54 4 8 5 12 5 9 0 -3 -5 1 -16 10 -24 14 -13 15 -12 9 3 -3 9 -2
19 3 22 6 4 10 1 10 -4 0 -6 5 -11 11 -11 5 0 8 4 5 8 -2 4 8 8 24 7 22 0 26
-3 18 -13 -9 -11 -13 -11 -19 0 -5 7 -9 8 -9 2 0 -18 13 -24 27 -13 10 9 17 8
31 -2 16 -13 16 -13 2 5 -14 18 -13 19 1 14 9 -4 22 -1 29 5 7 7 10 8 8 2 -3
-5 1 -17 10 -25 14 -13 15 -12 9 3 -3 9 -2 19 3 22 6 4 10 1 10 -4 0 -6 5 -11
11 -11 5 0 8 4 5 8 -2 4 8 8 24 7 22 0 26 -3 18 -13 -9 -11 -13 -11 -19 0 -6
9 -9 9 -9 1 0 -17 17 -25 25 -12 4 5 14 8 22 5 9 -4 11 -2 7 6 -5 7 -2 9 8 6
8 -4 21 -2 29 2 8 5 18 5 26 -1 8 -7 18 -7 32 1 12 6 21 7 21 1 0 -5 -5 -11
-12 -13 -8 -3 -6 -7 5 -11 9 -3 16 -3 16 1 -5 28 2 35 17 16 8 -10 13 -13 9
-6 -8 16 7 16 24 -1 10 -8 12 -8 7 0 -3 6 -2 14 4 18 5 3 10 1 10 -6 0 -8 5
-7 17 2 9 8 14 9 10 3 -4 -7 0 -15 9 -18 10 -4 13 -2 8 6 -5 7 -2 9 8 6 8 -4
21 -2 29 2 7 5 18 5 24 0 12 -10 34 -8 54 4 8 5 12 5 9 0 -3 -5 1 -16 10 -24
14 -13 15 -12 9 3 -3 9 -2 19 3 22 6 4 10 1 10 -4 0 -6 5 -11 11 -11 5 0 8 4
5 8 -2 4 8 8 24 7 22 0 26 -3 18 -13 -9 -11 -13 -11 -19 0 -6 9 -9 9 -9 1 0
-17 17 -25 25 -12 4 5 14 8 22 5 8 -3 12 -2 9 3 -3 5 1 12 10 15 8 3 13 2 11
-2 -3 -4 2 -14 11 -22 14 -13 15 -12 9 4 -5 13 -3 17 7 13 7 -3 19 0 26 6 10
9 11 9 5 -2 -6 -10 -4 -13 7 -8 9 3 20 1 26 -5 6 -6 12 -6 17 3 5 8 4 10 -3 5
-7 -4 -12 -2 -12 3 0 14 17 14 25 1 4 -7 13 -6 27 1 11 6 18 7 15 2 -3 -4 2
-15 11 -23 14 -13 15 -12 9 4 -5 13 -3 17 7 13 7 -3 19 0 26 6 9 9 11 9 7 1
-4 -7 0 -15 9 -18 8 -3 12 -2 9 3 -3 5 -1 12 5 16 5 3 10 1 10 -6 0 -8 5 -7
17 2 9 8 14 9 10 3 -4 -7 0 -14 8 -17 10 -4 12 -1 8 10 -4 10 -2 14 7 11 8 -2
22 4 33 15 10 10 25 16 32 13 9 -3 12 0 8 10 -3 7 0 14 6 14 6 0 11 -5 11 -12
0 -6 3 -8 6 -5 4 4 1 13 -6 22 -11 13 -10 14 6 9 10 -4 16 -4 12 1 -4 4 -2 15
5 23 9 13 9 14 0 8 -8 -4 -13 -2 -13 5 0 7 9 9 23 6 19 -5 20 -4 6 6 -16 12
-15 42 1 32 5 -3 12 0 16 6 4 7 3 9 -4 5 -6 -3 -13 -2 -17 4 -3 5 -1 10 5 10
7 0 5 7 -4 16 -9 8 -16 21 -16 27 0 7 4 6 10 -3 8 -12 10 -8 10 15 -1 45 5 83
13 91 4 4 3 12 -2 18 -16 21 -20 45 -9 52 7 5 8 2 3 -6 -5 -8 -4 -11 2 -7 10
6 8 65 -2 75 -2 3 1 14 7 26 7 11 11 25 10 30 -2 4 2 14 9 22 6 7 8 18 4 24
-3 5 1 10 9 10 9 0 16 5 16 11 0 5 -4 8 -9 5 -11 -7 -8 21 4 31 4 4 5 2 0 -6
-6 -10 -4 -12 4 -7 9 6 9 11 0 22 -10 12 -9 13 7 7 16 -6 17 -4 7 9 -7 8 -10
17 -8 20 3 3 8 16 10 28 3 13 10 28 16 34 9 8 10 8 6 0 -3 -6 0 -11 8 -11 13
0 12 4 -2 19 -15 17 -15 18 3 18 10 0 15 4 9 8 -13 9 -17 32 -6 32 5 0 12 -6
14 -12 4 -10 6 -10 6 -1 1 6 -4 15 -10 18 -7 5 -4 14 8 28 10 11 13 18 7 14
-7 -4 -9 2 -6 18 2 14 9 25 14 25 5 0 7 4 3 9 -3 5 1 15 8 23 7 7 12 23 11 36
-1 13 5 26 13 29 10 4 11 9 3 18 -7 9 -6 16 5 25 9 7 13 20 10 29 -3 8 -3 12
1 8 4 -4 15 5 24 21 13 20 14 31 6 44 -8 14 -6 21 9 33 11 9 15 14 8 10 -9 -4
-10 1 -2 25 6 17 16 27 22 23 5 -3 7 -1 3 5 -3 5 -3 12 1 15 5 2 2 2 -4 1 -18
-5 -16 3 6 25 11 11 17 29 16 46 -3 20 0 25 11 21 11 -4 12 -2 4 14 -14 26
-13 30 8 30 14 0 15 2 2 10 -14 9 -7 15 15 10 6 -1 5 4 -2 11 -13 13 3 62 18
54 4 -3 10 -1 13 4 4 5 1 13 -5 17 -8 5 -9 3 -4 -6 5 -9 4 -11 -3 -6 -18 11
-14 26 6 27 11 0 12 2 4 6 -10 4 -9 9 5 20 10 8 12 12 6 8 -7 -3 -13 -1 -13 4
0 6 4 11 10 11 5 0 7 6 4 14 -3 8 5 22 18 31 15 11 17 15 6 12 -10 -4 -18 -2
-18 3 0 6 5 10 11 10 5 0 7 5 4 10 -3 6 -1 10 4 10 6 0 11 -5 11 -12 0 -6 3
-9 6 -6 3 4 0 16 -6 28 -9 17 -8 26 5 46 8 13 12 24 8 24 -5 0 0 5 10 11 9 5
17 15 17 21 0 6 -7 5 -17 -3 -16 -12 -15 -11 0 8 11 12 16 27 11 34 -5 8 -2
11 8 7 8 -4 15 0 15 8 0 7 -4 11 -9 8 -5 -3 -2 10 6 30 8 20 15 39 16 41 0 3
3 4 8 3 4 -2 6 -7 4 -11 -1 -5 2 -5 8 -2 8 5 6 13 -6 26 -11 12 -13 19 -5 19
7 0 9 5 5 12 -5 8 -2 9 10 5 12 -5 15 -3 9 6 -13 21 -12 37 2 37 8 0 17 4 20
10 3 5 0 7 -8 4 -8 -3 -14 1 -14 10 0 8 3 13 7 11 3 -2 12 6 20 18 12 20 12
21 -3 9 -13 -11 -15 -10 -10 7 3 12 10 18 15 15 6 -4 8 2 6 12 -2 11 4 24 17
32 13 9 14 12 3 8 -15 -4 -16 -1 -2 42 9 26 16 52 16 59 1 7 5 10 10 7 4 -3 9
1 10 8 0 7 2 18 2 23 1 6 5 16 10 24 7 10 5 12 -5 7 -10 -6 -10 -4 1 6 8 7 15
24 15 38 1 17 6 25 17 24 10 -1 14 4 11 12 -3 8 -10 11 -17 7 -6 -3 -2 4 9 17
11 13 14 20 6 15 -10 -6 -12 -4 -7 4 5 7 14 10 22 7 8 -3 11 0 7 9 -3 8 -10
12 -15 9 -6 -4 -5 3 1 15 7 11 14 21 17 21 3 0 3 -4 -1 -9 -3 -5 -1 -12 4 -15
5 -4 8 2 6 11 -2 10 -4 18 -5 18 -1 0 -3 8 -5 18 -2 9 1 17 6 17 6 0 7 4 4 10
-4 6 1 7 12 3 10 -3 15 -3 11 2 -4 4 -2 15 5 24 11 14 10 14 -5 2 -11 -8 -18
-9 -18 -3 0 6 5 14 10 17 6 4 7 11 4 17 -4 6 -2 8 3 5 11 -7 28 22 18 31 -3 3
-5 -1 -5 -8 0 -7 -3 -10 -6 -7 -4 4 -1 13 6 22 7 8 10 15 7 15 -3 0 -1 13 4
29 8 21 15 28 27 24 14 -4 14 -3 3 5 -16 12 -7 47 10 36 8 -4 8 -1 1 12 -5 11
-6 28 -1 39 15 38 11 42 -51 41 -34 -1 -60 3 -60 9 0 7 -3 7 -8 0 -6 -8 -92
-10 -172 -4 -8 0 -36 -1 -62 -4 -27 -2 -48 0 -48 5 0 5 -6 6 -12 1 -19 -11
-62 -10 -70 2 -5 6 -8 5 -8 -4 0 -10 -3 -11 -14 -2 -9 7 -17 8 -20 2 -3 -5
-15 -7 -26 -4 -14 4 -21 -1 -26 -21 -3 -14 -11 -23 -17 -19 -6 3 -7 1 -3 -5 9
-15 -24 -123 -36 -116 -4 3 -5 -1 -2 -9 2 -7 -1 -27 -7 -43 -7 -16 -13 -31
-13 -34 -9 -41 -102 -310 -109 -310 -4 0 -6 4 -2 9 3 5 1 12 -5 16 -7 4 -7 12
0 25 11 21 0 28 -42 26 -16 -1 -28 2 -28 6 0 4 -5 8 -11 8 -5 0 -8 -3 -6 -8 3
-4 -8 -7 -24 -7 -16 -1 -29 4 -29 10 0 6 -3 7 -8 0 -9 -13 -152 -14 -152 0 0
7 -3 7 -8 0 -4 -6 -55 -10 -117 -10 -62 0 -113 4 -117 10 -5 7 -8 7 -8 0 0 -5
-18 -10 -40 -10 -22 0 -40 3 -40 8 0 4 -5 7 -11 7 -5 0 -8 -3 -6 -7 6 -10
-145 -9 -160 0 -6 4 -14 1 -16 -5 -3 -8 -6 -6 -6 5 -1 9 -6 17 -13 17 -6 0 -9
3 -6 6 4 3 0 21 -8 40 -11 26 -12 39 -4 52 10 15 11 15 6 0 -5 -16 16 -20 30
-5 11 11 26 8 19 -3 -3 -5 -1 -10 4 -10 6 0 11 4 11 9 0 5 11 8 25 5 16 -3 25
0 25 8 0 9 3 10 8 2 9 -14 105 -14 114 0 5 7 8 7 8 -1 0 -8 11 -11 30 -9 19 2
33 -2 39 -11 7 -13 9 -13 14 1 4 9 11 16 17 16 6 0 8 -6 4 -12 -6 -10 -4 -10
7 -3 12 9 35 11 49 5 3 -1 16 -3 30 -4 14 0 32 -5 40 -10 13 -9 13 -8 1 8 -13
15 -12 17 12 12 15 -2 31 -7 37 -11 6 -4 7 1 3 11 -5 13 -3 15 8 8 8 -5 23
-10 34 -11 30 -2 48 -7 65 -18 13 -8 13 -7 1 9 -13 15 -12 17 12 12 15 -2 31
-7 37 -11 6 -4 7 1 3 12 -6 15 -4 16 9 5 8 -7 24 -10 34 -6 16 5 16 4 4 -5 -8
-6 -10 -11 -4 -11 6 0 14 3 18 7 10 10 68 11 87 2 12 -6 16 -4 15 9 0 10 5 16
13 14 12 -3 12 0 1 12 -7 9 -9 16 -6 16 4 0 2 8 -3 18 -7 14 -6 25 5 40 13 19
12 22 -3 31 -13 7 -14 10 -4 11 8 0 11 3 8 7 -4 3 0 14 8 23 13 14 13 17 0 17
-8 0 -11 -5 -8 -10 4 -6 1 -7 -7 -2 -10 6 -9 11 5 22 11 7 14 13 8 13 -6 0
-14 7 -17 16 -3 8 -2 13 2 10 4 -3 13 3 19 13 9 14 8 18 -3 18 -7 0 -10 -5 -7
-10 4 -6 1 -7 -7 -2 -10 6 -9 11 5 22 11 7 14 13 8 13 -6 0 -14 7 -17 16 -3 8
-2 12 4 9 6 -3 10 3 10 15 0 12 -4 19 -9 16 -4 -3 -6 6 -3 20 4 23 5 23 18 7
13 -16 13 -15 3 10 -7 15 -17 27 -23 27 -6 0 -4 5 4 10 11 7 11 10 2 10 -7 0
-10 5 -7 10 3 6 2 10 -4 10 -5 0 -8 9 -6 20 2 11 0 18 -6 15 -5 -4 -9 0 -9 8
0 7 -11 20 -25 27 -13 7 -21 18 -18 24 3 6 3 8 -2 4 -4 -4 -22 -1 -39 6 -17 7
-44 12 -61 10 -16 -1 -38 3 -49 8 -10 6 -16 6 -13 1 3 -4 -53 -8 -123 -8 -74
0 -126 4 -122 9 3 5 -1 5 -9 0 -20 -12 -80 -14 -72 -1 4 6 1 7 -8 1 -20 -12
-80 -14 -72 -1 4 6 1 7 -8 1 -20 -12 -80 -14 -72 -1 4 6 1 7 -8 1 -20 -12 -80
-14 -72 -1 4 6 1 7 -8 1 -21 -13 -80 -13 -72 0 5 8 3 8 -8 1 -12 -10 -33 -11
-101 -6 -10 0 -18 8 -18 17 0 9 5 12 13 8 10 -6 10 -4 0 7 -18 19 -16 29 5 22
14 -5 13 -3 -3 10 -16 14 -17 18 -6 26 11 7 11 9 0 14 -12 4 -11 7 1 16 13 9
12 11 -5 12 -11 0 -15 3 -8 5 7 3 9 12 6 21 -5 12 -3 14 8 8 11 -6 12 -5 2 6
-15 15 -18 43 -4 35 4 -3 8 4 7 15 0 11 -8 24 -16 29 -12 8 -12 10 5 10 17 0
17 2 5 10 -12 8 -13 11 -1 19 11 7 11 9 0 13 -12 5 -12 9 -1 28 8 12 9 19 3
15 -12 -7 -15 8 -4 19 10 10 11 46 1 40 -13 -8 -9 21 5 35 7 8 7 11 1 8 -7 -4
-14 2 -17 13 -3 12 -1 18 5 14 6 -4 5 3 -1 15 -7 12 -9 26 -6 31 3 5 -4 14
-15 20 -11 6 -20 17 -20 25 0 7 -9 17 -20 20 -11 3 -20 13 -20 20 0 9 -6 12
-15 9 -8 -4 -15 -2 -15 4 0 6 -10 8 -22 4 -15 -4 -19 -2 -13 7 6 10 3 11 -14
2 -15 -8 -21 -9 -21 -1 0 6 -5 8 -12 4 -17 -10 -58 -11 -64 -2 -3 5 -11 5 -17
1 -19 -12 -40 -13 -54 -1 -7 6 -13 6 -13 1 0 -10 -60 -10 -78 1 -7 4 -12 4
-12 -1 0 -10 -52 -9 -68 1 -6 3 -13 2 -16 -2 -5 -8 -51 -9 -81 -2 -5 1 -12 1
-15 0 -18 -7 -50 -5 -50 3 0 6 -5 6 -12 0 -14 -10 -55 -10 -65 0 -3 4 -14 2
-24 -4 -13 -7 -19 -6 -19 1 0 6 -5 8 -12 4 -19 -12 -68 -12 -68 0 0 7 -3 6 -8
-1 -5 -8 -13 -9 -22 -3 -8 5 -21 5 -32 -1 -12 -7 -18 -6 -18 1 0 6 -5 8 -12 4
-19 -12 -68 -12 -68 0 0 7 -3 6 -8 -1 -5 -8 -13 -9 -22 -3 -8 5 -21 5 -32 -1
-12 -7 -18 -6 -18 1 0 6 -5 8 -12 4 -19 -12 -68 -12 -68 0 0 7 -3 6 -8 -1 -5
-8 -13 -9 -22 -3 -8 5 -21 5 -32 -1 -12 -7 -18 -6 -18 1 0 6 -5 8 -12 4 -18
-11 -68 -12 -68 -1 0 5 -6 4 -14 -2 -10 -8 -16 -9 -21 -1 -3 6 -12 7 -18 3
-19 -12 -40 -13 -54 -1 -7 6 -13 6 -13 1 0 -10 -60 -10 -78 1 -7 4 -12 4 -12
-1 0 -10 -52 -9 -68 1 -6 3 -13 2 -16 -2 -5 -8 -51 -9 -81 -2 -5 1 -12 1 -15
0 -17 -6 -50 -5 -50 2 0 5 -5 6 -12 2 -17 -10 -58 -11 -64 -2 -3 5 -11 5 -17
1 -19 -12 -40 -13 -54 -1 -7 6 -13 6 -13 1 0 -11 -73 -11 -81 0 -3 4 -8 4 -12
0z m230 -385 c7 -5 14 -5 18 2 9 15 28 13 19 -2 -4 -7 3 -4 15 6 16 15 20 16
16 5 -4 -10 0 -16 9 -16 8 0 12 6 9 15 -5 12 -2 12 18 1 30 -16 58 -19 66 -6
4 6 1 7 -8 2 -8 -5 -10 -4 -6 0 15 17 36 14 29 -3 -5 -15 -4 -15 11 -3 10 8
20 11 23 8 3 -3 19 -1 35 3 16 5 27 5 24 1 -2 -5 7 -11 20 -14 14 -2 28 0 32
6 4 6 1 7 -8 2 -8 -5 -10 -4 -6 0 15 17 36 14 30 -3 -5 -14 -3 -15 8 -4 14 13
33 17 25 4 -6 -10 62 -8 71 3 5 4 2 5 -6 0 -10 -6 -12 -4 -7 4 6 9 13 8 31 -3
15 -10 26 -12 30 -6 9 15 27 12 19 -2 -4 -7 3 -4 15 6 16 15 20 16 16 5 -4
-10 0 -16 9 -16 9 0 12 6 8 16 -5 13 -1 13 22 -3 16 -10 26 -14 22 -8 -3 5 1
12 9 15 10 4 12 1 8 -11 -5 -14 -3 -15 8 -4 14 13 33 17 25 4 -6 -10 62 -8 71
3 5 4 1 5 -7 0 -8 -5 -12 -4 -7 0 15 17 36 14 29 -3 -5 -15 -4 -15 11 -3 14
11 17 11 17 0 0 -8 6 -5 15 7 13 17 14 17 15 2 0 -20 15 -24 25 -8 3 6 20 10
36 10 18 0 28 -4 24 -10 -3 -5 -1 -10 4 -10 6 0 11 8 11 18 1 16 1 16 14 -1
10 -13 15 -15 18 -5 4 11 8 11 20 0 11 -9 18 -10 23 -2 9 15 28 13 19 -2 -4
-7 3 -4 15 6 16 15 20 16 16 5 -4 -10 0 -16 9 -16 9 0 12 6 8 16 -5 13 -1 13
22 -3 16 -10 26 -14 22 -8 -3 5 1 12 9 15 10 4 12 1 8 -11 -5 -14 -3 -15 8 -4
14 13 33 17 25 4 -6 -10 62 -8 71 3 5 4 1 5 -7 0 -8 -5 -12 -4 -7 0 15 17 36
14 30 -3 -5 -14 -3 -15 8 -4 14 13 33 17 26 5 -3 -5 10 -8 28 -8 18 0 31 3 28
8 -2 4 12 7 32 7 20 0 34 -4 31 -8 -2 -4 4 -8 14 -8 14 0 16 4 9 12 -7 9 -1
10 25 4 24 -5 37 -4 40 4 2 6 3 -4 2 -21 -2 -18 0 -33 3 -33 8 0 5 -59 -3 -67
-3 -4 -1 -12 5 -20 9 -10 8 -17 -1 -28 -7 -8 -8 -15 -3 -15 5 0 9 -9 10 -20 1
-11 -2 -18 -6 -16 -4 3 -6 -7 -3 -22 3 -26 2 -27 -52 -28 -33 0 -52 4 -49 9 4
6 1 7 -8 1 -20 -12 -80 -14 -72 -1 4 6 1 7 -8 1 -20 -12 -80 -14 -72 -1 4 6 1
7 -8 1 -21 -13 -80 -13 -72 0 4 6 -1 4 -12 -4 -10 -8 -21 -13 -24 -12 -29 17
-43 23 -38 15 7 -11 -214 -10 -233 2 -8 5 -11 4 -7 -1 7 -12 -214 -11 -233 1
-8 5 -11 4 -7 -1 7 -12 -214 -11 -233 1 -8 5 -11 4 -7 -1 7 -12 -214 -11 -233
1 -8 5 -11 4 -7 -1 3 -6 -26 -10 -74 -9 -66 0 -78 3 -74 15 4 11 1 10 -8 -2
-13 -16 -14 -15 -15 12 0 21 3 28 11 24 8 -5 8 -3 0 7 -16 16 -17 43 -2 34 6
-4 5 2 -2 13 -11 17 -10 24 2 38 9 11 9 15 2 10 -8 -4 -13 -1 -13 8 0 9 6 16
13 17 10 0 10 2 0 6 -7 2 -13 11 -13 19 0 10 5 12 13 8 9 -6 9 -4 1 7 -13 16
-15 51 -3 43 4 -2 10 0 14 5 6 10 31 5 52 -11z m423 16 c0 -8 -19 -13 -24 -6
-3 5 1 9 9 9 8 0 15 -2 15 -3z m280 0 c0 -8 -19 -13 -24 -6 -3 5 1 9 9 9 8 0
15 -2 15 -3z m480 0 c0 -8 -19 -13 -24 -6 -3 5 1 9 9 9 8 0 15 -2 15 -3z m120
0 c0 -8 -19 -13 -24 -6 -3 5 1 9 9 9 8 0 15 -2 15 -3z m-997 -840 c27 -1 47 3
47 9 0 6 6 3 13 -8 10 -12 16 -14 21 -7 4 7 12 12 18 12 6 0 6 -6 -2 -15 -11
-13 -10 -14 4 -9 9 3 16 11 16 16 0 6 8 4 17 -3 14 -12 16 -12 9 0 -6 9 -5 12
5 9 8 -3 13 -12 11 -19 -2 -9 3 -8 16 4 20 19 37 23 27 7 -3 -5 -1 -10 4 -10
6 0 11 5 11 10 0 6 5 10 11 10 5 0 7 -6 3 -12 -6 -10 -4 -10 7 0 18 17 34 15
19 -3 -19 -23 -4 -18 19 6 14 15 21 17 26 8 5 -8 4 -10 -3 -5 -18 11 -14 0 5
-15 11 -10 14 -10 9 -1 -4 6 -5 12 -2 12 2 0 12 3 22 7 13 5 15 3 9 -7 -6 -9
-4 -11 6 -5 23 15 171 12 177 -4 4 -10 7 -10 14 3 5 9 14 16 19 16 6 0 7 -6 3
-12 -6 -10 -4 -10 7 -3 22 16 75 12 71 -5 -3 -11 1 -10 16 3 20 19 37 23 27 7
-3 -5 -1 -10 4 -10 6 0 11 8 11 18 0 10 3 13 8 6 4 -6 18 -10 30 -9 13 1 26
-5 29 -13 5 -12 8 -11 15 2 8 14 13 15 24 5 11 -9 14 -9 14 1 0 8 3 11 6 8 9
-10 -28 -117 -43 -122 -7 -3 -13 -1 -13 5 0 6 -6 7 -12 2 -21 -12 -38 -12 -38
0 0 8 -3 7 -9 -2 -6 -9 -11 -10 -15 -2 -5 8 -13 8 -27 1 -13 -8 -19 -7 -19 0
0 6 -5 8 -11 5 -18 -11 -109 -11 -109 0 0 7 -3 7 -8 0 -8 -12 -82 -14 -82 -3
0 5 -5 8 -11 8 -5 0 -8 -3 -6 -7 3 -5 -37 -8 -89 -8 -56 0 -94 4 -94 10 0 6
-4 4 -9 -4 -6 -9 -11 -10 -15 -2 -5 8 -13 8 -28 0 -15 -8 -19 -8 -14 0 5 8 0
8 -17 2 -13 -5 -30 -6 -37 -1 -7 4 -18 6 -25 4 -24 -9 -95 -11 -95 -2 0 5 -8
4 -18 -1 -13 -7 -23 -6 -32 2 -10 9 -11 9 -5 -1 6 -11 3 -11 -14 0 -20 12 -20
14 -4 26 17 13 17 13 -1 10 -10 -2 -21 3 -24 11 -3 8 0 11 7 7 6 -4 1 10 -11
31 -19 32 -19 36 -4 23 24 -19 43 -21 43 -4 0 10 -4 11 -14 3 -8 -8 -13 -8
-13 -1 0 13 22 21 35 13 6 -3 31 -6 58 -7z m2735 -1364 c-7 -10 -14 -18 -15
-16 -6 6 9 36 18 36 5 0 4 -9 -3 -20z m-213 -659 c3 -5 2 -12 -3 -15 -5 -3 -9
1 -9 9 0 17 3 19 12 6z m-4 -105 c-6 -7 -7 -17 -3 -21 4 -5 2 -5 -5 -2 -6 4
-9 16 -6 27 3 11 9 17 15 14 5 -3 5 -11 -1 -18z"/>
<path d="M1412 4028 c-7 -7 -12 -17 -12 -22 0 -6 5 -3 11 7 6 9 15 14 21 11 7
-4 8 -2 4 4 -9 15 -9 15 -24 0z"/>
<path d="M5016 3391 c-3 -5 2 -15 12 -22 15 -12 16 -12 5 2 -7 9 -10 19 -6 22
3 4 4 7 0 7 -3 0 -8 -4 -11 -9z"/>
<path d="M4291 3296 c-9 -10 -7 -17 6 -27 16 -12 17 -12 6 2 -10 12 -10 18 -1
27 7 7 9 12 6 12 -3 0 -11 -6 -17 -14z"/>
<path d="M175 3200 c-3 -5 -1 -10 4 -10 6 0 11 5 11 10 0 6 -2 10 -4 10 -3 0
-8 -4 -11 -10z"/>
<path d="M535 3200 c-3 -5 -1 -10 4 -10 6 0 11 5 11 10 0 6 -2 10 -4 10 -3 0
-8 -4 -11 -10z"/>
<path d="M970 3196 c0 -2 7 -7 16 -10 8 -3 12 -2 9 4 -6 10 -25 14 -25 6z"/>
<path d="M4285 3050 c-3 -5 -1 -10 4 -10 6 0 11 5 11 10 0 6 -2 10 -4 10 -3 0
-8 -4 -11 -10z"/>
<path d="M4869 2933 c-13 -16 -12 -17 4 -4 9 7 17 15 17 17 0 8 -8 3 -21 -13z"/>
<path d="M4855 2899 c-4 -6 -5 -12 -2 -15 2 -3 7 2 10 11 7 17 1 20 -8 4z"/>
<path d="M4695 2410 c3 -5 8 -10 11 -10 2 0 4 5 4 10 0 6 -5 10 -11 10 -5 0
-7 -4 -4 -10z"/>
<path d="M4475 1760 c-3 -5 -1 -10 4 -10 6 0 11 5 11 10 0 6 -2 10 -4 10 -3 0
-8 -4 -11 -10z"/>
<path d="M4473 1685 c0 -8 4 -12 9 -9 5 3 6 10 3 15 -9 13 -12 11 -12 -6z"/>
<path d="M4446 1651 c-3 -5 2 -15 12 -22 15 -12 16 -12 5 2 -7 9 -10 19 -6 22
3 4 4 7 0 7 -3 0 -8 -4 -11 -9z"/>
<path d="M4374 1442 c4 -7 2 -21 -5 -30 -12 -15 -11 -15 6 0 16 15 17 20 6 30
-11 11 -13 10 -7 0z"/>
<path d="M4306 1208 c3 -5 10 -6 15 -3 13 9 11 12 -6 12 -8 0 -12 -4 -9 -9z"/>
<path d="M4200 770 c-9 -6 -10 -10 -3 -10 6 0 15 5 18 10 8 12 4 12 -15 0z"/>
<path d="M670 729 c0 -5 5 -7 10 -4 6 3 10 8 10 11 0 2 -4 4 -10 4 -5 0 -10
-5 -10 -11z"/>
<path d="M910 729 c0 -5 5 -7 10 -4 6 3 10 8 10 11 0 2 -4 4 -10 4 -5 0 -10
-5 -10 -11z"/>
<path d="M1150 729 c0 -5 5 -7 10 -4 6 3 10 8 10 11 0 2 -4 4 -10 4 -5 0 -10
-5 -10 -11z"/>
<path d="M1390 729 c0 -5 5 -7 10 -4 6 3 10 8 10 11 0 2 -4 4 -10 4 -5 0 -10
-5 -10 -11z"/>
<path d="M1630 729 c0 -5 5 -7 10 -4 6 3 10 8 10 11 0 2 -4 4 -10 4 -5 0 -10
-5 -10 -11z"/>
<path d="M1870 729 c0 -5 5 -7 10 -4 6 3 10 8 10 11 0 2 -4 4 -10 4 -5 0 -10
-5 -10 -11z"/>
<path d="M2750 729 c0 -5 5 -7 10 -4 6 3 10 8 10 11 0 2 -4 4 -10 4 -5 0 -10
-5 -10 -11z"/>
<path d="M2990 729 c0 -5 5 -7 10 -4 6 3 10 8 10 11 0 2 -4 4 -10 4 -5 0 -10
-5 -10 -11z"/>
<path d="M3390 729 c0 -5 5 -7 10 -4 6 3 10 8 10 11 0 2 -4 4 -10 4 -5 0 -10
-5 -10 -11z"/>
<path d="M3630 729 c0 -5 5 -7 10 -4 6 3 10 8 10 11 0 2 -4 4 -10 4 -5 0 -10
-5 -10 -11z"/>
</g>
</svg>
