<?xml version="1.0" encoding="UTF-8"?><svg id="Layer_1" xmlns="http://www.w3.org/2000/svg" xmlns:xlink="http://www.w3.org/1999/xlink" viewBox="0 0 471.7 126.3"><defs><style>.cls-1{fill:#fff;}.cls-2{fill:#eab308;}.cls-3{filter:url(#drop-shadow-1);}.cls-4{fill:#1e3a8a;}.cls-5{filter:url(#drop-shadow-2);}</style><filter id="drop-shadow-1"><feOffset dx="1" dy="1"/><feGaussianBlur result="blur" stdDeviation="2"/><feFlood flood-color="#000" flood-opacity=".75"/><feComposite in="blur" operator="in"/><feComposite in="SourceGraphic"/></filter><filter id="drop-shadow-2"><feOffset dx="1" dy="1"/><feGaussianBlur result="blur-2" stdDeviation="2"/><feFlood flood-color="#000" flood-opacity=".75"/><feComposite in="blur-2" operator="in"/><feComposite in="SourceGraphic"/></filter></defs><g class="cls-3"><g><g><path class="cls-2" d="m132.2,41.4v67.3c0,3.1-2.2,5.6-4.9,5.6H4.9c-2.7,0-4.9-2.5-4.9-5.6V41.4h132.2Z"/><path class="cls-2" d="m127.3,19.8h-26.7V5.6c0-3.1-2.2-5.6-4.9-5.6h-59.1c-2.7,0-4.9,2.5-5,5.5v14.3H4.9c-2.7,0-4.9,2.5-4.9,5.6v11.9h132.2v-11.9c0-3.1-2.2-5.6-4.9-5.6Zm-85.7,0v-8.7h49v8.7h-49Z"/></g><g><polygon class="cls-2" points="37.11 41.4 17.71 41.4 17.41 40.5 16.31 37.3 35.71 37.3 36.81 40.5 37.11 41.4"/><polygon class="cls-4" points="35.71 37.3 16.31 37.3 16.01 36.3 15.81 35.8 12.71 26.3 32.21 26.3 35.31 35.8 35.71 37.3"/><polygon class="cls-2" points="92.11 41.4 64.71 41.4 65.01 40.5 66.11 37.3 90.81 37.3 91.81 40.5 92.11 41.4"/><polygon class="cls-4" points="90.81 37.3 66.11 37.3 66.41 36.3 66.61 35.8 69.81 26.3 87.21 26.3 90.31 35.8 90.41 36.3 90.81 37.3"/><polygon class="cls-2" points="132.2 58.52 132.2 41.4 119.8 41.4 121.16 37.3 132.2 37.3 132.2 26.3 142.81 26.3 132.2 58.52"/><polygon class="cls-4" points="132.2 26.3 132.2 37.3 121.16 37.3 124.81 26.3 132.2 26.3"/><polygon class="cls-4" points="132.2 41.4 132.2 58.52 118.21 101 116.01 107.7 96.01 107.7 95.91 107.1 78.01 52.5 59.51 107.7 39.41 107.7 18.01 42.3 17.71 41.4 37.11 41.4 37.41 42.3 50.61 83.5 64.41 42.3 64.71 41.4 92.11 41.4 92.41 42.3 95.91 53.1 103.11 75.6 105.81 83.9 114.81 56.7 118.21 46.2 119.8 41.4 132.2 41.4"/></g></g></g><g class="cls-5"><g><path class="cls-1" d="m161.4,109.7c-4.8,0-9.2-1-12.9-3.1-3.8-2.1-6.8-5-9-8.6-2.2-3.7-3.3-7.8-3.3-12.5s1.1-8.9,3.3-12.5,5.2-6.5,9-8.6,8.1-3.1,12.9-3.1,9.3,1,13.1,3.1,6.8,4.9,9,8.5,3.2,7.8,3.2,12.6-1.1,8.8-3.2,12.5c-2.2,3.7-5.1,6.5-9,8.6-3.9,2-8.2,3.1-13.1,3.1Zm0-9.5c2.7,0,5.1-.6,7.3-1.8,2.1-1.2,3.8-2.9,5-5.1s1.8-4.9,1.8-7.9-.6-5.7-1.8-7.9c-1.2-2.2-2.9-3.9-5-5.1s-4.5-1.8-7.2-1.8-5.1.6-7.2,1.8c-2.1,1.2-3.8,2.9-5,5.1s-1.9,4.9-1.9,7.9.6,5.6,1.9,7.9c1.2,2.2,2.9,4,5,5.1,2,1.2,4.4,1.8,7.1,1.8h0Z"/><path class="cls-1" d="m197.3,109.1v-47.4h10.5v13l-1.2-3.8c1.4-3.2,3.6-5.6,6.7-7.3,3-1.7,6.8-2.5,11.4-2.5v10.5c-.5-.1-.9-.2-1.3-.2h-1.2c-4.2,0-7.5,1.2-10,3.7s-3.7,6.1-3.7,10.9v23h-11.2v.1Z"/><path class="cls-1" d="m234,109.1V43.3h11.1v65.8h-11.1Zm9.1-10.6l.3-13.9,24.7-22.9h13.3l-21,21.1-5.9,4.9-11.4,10.8Zm26.7,10.6l-17.3-21.4,7-8.9,23.8,30.2h-13.5v.1Z"/><path class="cls-1" d="m309.7,109.7c-4.8,0-9.2-1-12.9-3.1-3.8-2.1-6.8-5-9-8.6-2.2-3.7-3.3-7.8-3.3-12.5s1.1-8.9,3.3-12.5c2.2-3.6,5.2-6.5,9-8.6s8.1-3.1,12.9-3.1,9.3,1,13.1,3.1c3.8,2.1,6.8,4.9,9,8.5s3.2,7.8,3.2,12.6-1.1,8.8-3.2,12.5c-2.2,3.7-5.1,6.5-9,8.6-3.8,2-8.2,3.1-13.1,3.1Zm0-9.5c2.7,0,5.1-.6,7.3-1.8,2.1-1.2,3.8-2.9,5-5.1s1.8-4.9,1.8-7.9-.6-5.7-1.8-7.9c-1.2-2.2-2.9-3.9-5-5.1s-4.5-1.8-7.2-1.8-5.1.6-7.2,1.8c-2.1,1.2-3.8,2.9-5,5.1s-1.9,4.9-1.9,7.9.6,5.6,1.9,7.9c1.2,2.2,2.9,4,5,5.1,2.1,1.2,4.5,1.8,7.1,1.8h0Z"/><path class="cls-1" d="m345.6,126.3V61.7h10.5v11.2l-.4,12.6.9,12.6v28.2h-11Zm26.3-16.6c-3.8,0-7.3-.9-10.5-2.7-3.2-1.8-5.7-4.4-7.5-8-1.9-3.6-2.8-8.1-2.8-13.6s.9-10.1,2.7-13.6c1.8-3.5,4.3-6.2,7.4-7.9s6.7-2.6,10.7-2.6c4.7,0,8.8,1,12.4,3s6.4,4.8,8.5,8.4,3.1,7.9,3.1,12.8-1,9.2-3.1,12.8c-2.1,3.6-4.9,6.5-8.5,8.5-3.6,1.9-7.8,2.9-12.4,2.9h0Zm-1.3-9.5c2.7,0,5-.6,7.1-1.8,2.1-1.2,3.8-2.9,5-5.1s1.9-4.9,1.9-7.9-.6-5.7-1.9-7.9c-1.2-2.2-2.9-3.9-5-5.1s-4.5-1.8-7.1-1.8-5.1.6-7.2,1.8c-2.1,1.2-3.8,2.9-5.1,5.1-1.2,2.2-1.9,4.9-1.9,7.9s.6,5.6,1.9,7.9c1.2,2.2,2.9,4,5.1,5.1,2.2,1.2,4.6,1.8,7.2,1.8Z"/><path class="cls-1" d="m412,53.9c-2.1,0-3.8-.6-5.1-2-1.3-1.3-2-2.9-2-4.7,0-1.9.7-3.5,2-4.7,1.3-1.3,3-1.9,5.1-1.9s3.8.6,5.1,1.8c1.3,1.2,2,2.7,2,4.6,0,2-.7,3.6-2,4.9-1.2,1.4-2.9,2-5.1,2Zm-5.6,55.2v-47.4h11.1v47.3h-11.1v.1Z"/><path class="cls-1" d="m446.3,109.7c-3.5,0-6.6-.6-9.3-1.8-2.7-1.2-4.7-2.9-6.2-5.1-1.4-2.2-2.2-4.6-2.2-7.3s.6-5.1,1.9-7.2,3.4-3.8,6.2-5.1c2.9-1.2,6.7-1.9,11.5-1.9h13.7v7.4h-12.9c-3.8,0-6.3.6-7.6,1.8-1.3,1.2-2,2.7-2,4.5,0,2,.8,3.6,2.4,4.8,1.6,1.2,3.8,1.8,6.6,1.8s5.2-.6,7.3-1.9c2.2-1.2,3.7-3.1,4.7-5.5l1.9,6.6c-1.1,2.8-3,4.9-5.7,6.5-2.6,1.6-6.1,2.4-10.3,2.4Zm14.9-.6v-9.6l-.6-2v-16.8c0-3.2-1-5.8-2.9-7.6-2-1.8-4.9-2.7-8.9-2.7-2.7,0-5.3.4-7.8,1.2-2.6.8-4.7,2-6.5,3.5l-4.3-8.1c2.5-2,5.6-3.4,9.1-4.4s7.2-1.5,10.9-1.5c6.9,0,12.2,1.6,15.9,4.9,3.8,3.3,5.6,8.3,5.6,15.2v27.7h-10.5v.2h0Z"/></g></g></svg>