<?xml version="1.0" encoding="UTF-8"?><svg id="Layer_1" xmlns="http://www.w3.org/2000/svg" xmlns:xlink="http://www.w3.org/1999/xlink" viewBox="0 0 500 364.49"><defs><style>.cls-1{fill:#fff;}.cls-2{fill:#eab308;}.cls-3{filter:url(#drop-shadow-1);}.cls-4{fill:#1e3a8a;}.cls-5{filter:url(#drop-shadow-2);}</style><filter id="drop-shadow-1" filterUnits="userSpaceOnUse"><feOffset dx="1" dy="1"/><feGaussianBlur result="blur" stdDeviation="2"/><feFlood flood-color="#000" flood-opacity=".75"/><feComposite in2="blur" operator="in"/><feComposite in="SourceGraphic"/></filter><filter id="drop-shadow-2" filterUnits="userSpaceOnUse"><feOffset dx="1" dy="1"/><feGaussianBlur result="blur-2" stdDeviation="2"/><feFlood flood-color="#000" flood-opacity=".75"/><feComposite in2="blur-2" operator="in"/><feComposite in="SourceGraphic"/></filter></defs><g class="cls-3"><path class="cls-2" d="m421.69,132.05v214.7c-.03,9.77-7.08,17.7-15.77,17.74H15.77c-8.69,0-15.77-7.95-15.77-17.74v-214.7h421.69Z"/><path class="cls-2" d="m405.92,63.25h-85.29V17.74C320.63,7.95,313.58,0,304.85,0H116.85c-8.67-.05-15.75,7.83-15.8,17.58v45.68H15.77c-8.69,0-15.77,7.94-15.77,17.74v37.86h421.69v-37.86c-.03-9.77-7.08-17.7-15.77-17.74Zm-273.3,0v-27.77h156.4v27.77h-156.4Z"/></g><g class="cls-5"><polygon class="cls-1" points="500 83.83 421.69 322.17 421.69 147.18 442.55 83.83 500 83.83"/><polygon class="cls-2" points="162.89 132.05 100.98 132.05 99.98 129.04 96.64 118.86 158.64 118.86 161.93 129.04 162.89 132.05"/><polygon class="cls-4" points="158.64 118.86 96.64 118.86 95.65 115.84 95.15 114.34 85.12 83.83 147.41 83.83 157.2 114.34 158.64 118.86"/><polygon class="cls-2" points="338.34 132.05 250.99 132.05 252 129.04 255.41 118.86 334.08 118.86 337.36 129.04 338.34 132.05"/><polygon class="cls-4" points="334.08 118.86 255.41 118.86 256.42 115.84 256.93 114.34 267.17 83.83 322.79 83.83 332.62 114.34 333.1 115.84 334.08 118.86"/><polygon class="cls-4" points="421.69 147.18 421.69 322.17 414.73 343.34 350.96 343.34 350.41 341.64 293.39 167.41 234.53 343.34 170.39 343.34 101.96 135.06 100.98 132.05 162.89 132.05 163.86 135.06 205.96 266.25 249.98 135.06 250.99 132.05 338.34 132.05 339.31 135.06 350.41 169.47 373.49 241.04 382.06 267.61 410.65 180.72 421.69 147.18"/></g></svg>