<?xml version="1.0" encoding="utf-8"?>
<!-- Generator: Adobe Illustrator 27.2.0, SVG Export Plug-In . SVG Version: 6.00 Build 0)  -->
<svg version="1.1" id="Layer_1" xmlns="http://www.w3.org/2000/svg" xmlns:xlink="http://www.w3.org/1999/xlink" x="0px" y="0px"
	 viewBox="0 0 500 500" style="enable-background:new 0 0 500 500;" xml:space="preserve">
<style type="text/css">
	.st0{fill:url(#SVGID_1_);}
	.st1{fill:url(#SVGID_00000008151089002982298980000009121685449608865969_);}
	.st2{fill:url(#SVGID_00000073716463927273087910000011782209587974754727_);}
	.st3{fill:url(#SVGID_00000168838219665790213690000006904838456705866922_);}
	.st4{fill:url(#SVGID_00000027600291990374049160000013396598099420997518_);}
	.st5{fill:url(#SVGID_00000059310263453860818760000013548945053401519799_);}
	.st6{fill:url(#SVGID_00000029043125339243022310000017991733579387509662_);}
	.st7{fill:url(#SVGID_00000047017962479673026890000017868050080357349804_);}
	.st8{fill:url(#SVGID_00000052823591033093863940000015430641574796408208_);}
	.st9{fill:url(#SVGID_00000041973615915287514880000015186063684695927469_);}
</style>
<g>
	<g>
		
			<linearGradient id="SVGID_1_" gradientUnits="userSpaceOnUse" x1="414.6147" y1="33.4431" x2="438.5137" y2="-106.3406" gradientTransform="matrix(-1 0 0 -1 876.85 143.14)">
			<stop  offset="0" style="stop-color:#FAAF3A"/>
			<stop  offset="1" style="stop-color:#F05A26"/>
		</linearGradient>
		<rect x="422.3" y="192.2" class="st0" width="44.7" height="40.8"/>
		
			<linearGradient id="SVGID_00000065759760636560376680000003890520814058955418_" gradientUnits="userSpaceOnUse" x1="367.5965" y1="43.3325" x2="394.9352" y2="-116.5103" gradientTransform="matrix(-1 0 0 -1 876.85 143.14)">
			<stop  offset="0" style="stop-color:#FAAF3A"/>
			<stop  offset="1" style="stop-color:#F05A26"/>
		</linearGradient>
		<rect x="467" y="233" style="fill:url(#SVGID_00000065759760636560376680000003890520814058955418_);" width="33" height="35"/>
		
			<linearGradient id="SVGID_00000070093655513737855910000015534303703110398091_" gradientUnits="userSpaceOnUse" x1="387.3375" y1="52.0525" x2="415.5162" y2="-112.6501" gradientTransform="matrix(-1 0 0 -1 876.85 143.14)">
			<stop  offset="0" style="stop-color:#FAAF3A"/>
			<stop  offset="1" style="stop-color:#F05A26"/>
		</linearGradient>
		
			<rect x="447.5" y="268" style="fill:url(#SVGID_00000070093655513737855910000015534303703110398091_);" width="19.4" height="23.3"/>
		
			<linearGradient id="SVGID_00000021090405318185495890000000867145244197901226_" gradientUnits="userSpaceOnUse" x1="465.9375" y1="-39.7247" x2="401.4504" y2="-100.4219" gradientTransform="matrix(-1 0 0 -1 876.85 143.14)">
			<stop  offset="0" style="stop-color:#FAAF3A"/>
			<stop  offset="1" style="stop-color:#F05A26"/>
		</linearGradient>
		
			<rect x="426.2" y="198" style="fill:url(#SVGID_00000021090405318185495890000000867145244197901226_);" width="38.9" height="35"/>
		
			<linearGradient id="SVGID_00000083076085483634273310000002487781014629889717_" gradientUnits="userSpaceOnUse" x1="467.4118" y1="-36.7987" x2="399.1848" y2="-101.0358" gradientTransform="matrix(-1 0 0 -1 876.85 143.14)">
			<stop  offset="0" style="stop-color:#FAAF3A"/>
			<stop  offset="1" style="stop-color:#F05A26"/>
		</linearGradient>
		
			<rect x="474.8" y="236.9" style="fill:url(#SVGID_00000083076085483634273310000002487781014629889717_);" width="23.3" height="31.1"/>
		
			<linearGradient id="SVGID_00000135661390328379614290000013420653170551789993_" gradientUnits="userSpaceOnUse" x1="503.0045" y1="-57.0124" x2="428.2478" y2="-127.3692" gradientTransform="matrix(-1 0 0 -1 876.85 143.14)">
			<stop  offset="0" style="stop-color:#FAAF3A"/>
			<stop  offset="1" style="stop-color:#F05A26"/>
		</linearGradient>
		
			<rect x="449.5" y="269.9" style="fill:url(#SVGID_00000135661390328379614290000013420653170551789993_);" width="15.5" height="17.5"/>
	</g>
	<g>
		
			<linearGradient id="SVGID_00000039104435233294110720000001750034719946729873_" gradientUnits="userSpaceOnUse" x1="636.6254" y1="77.501" x2="703.5524" y2="-212.5859" gradientTransform="matrix(-1 0 0 -1 876.85 143.14)">
			<stop  offset="0" style="stop-color:#FAAC18"/>
			<stop  offset="1" style="stop-color:#EF4E23"/>
		</linearGradient>
		<path style="fill:url(#SVGID_00000039104435233294110720000001750034719946729873_);" d="M391.2,168.8c2.7-23.4-13-43.1-37.4-42.7
			h-85V93.8c0-12-10.8-20.7-22.7-22c-0.2,0-0.5-0.1-0.7-0.1c-0.8-0.1-1.6-0.1-2.4-0.1h-86.2c-0.7,0-1.4,0-2.1,0h-0.4
			c-31.3,0.3-22.3,34.4-23.5,54.5H34.9c-15.9,0-26.2,8.2-30.3,21.2v0.1c-0.2,0.6-0.4,1.2-0.5,1.9c-0.4,1.4-0.7,2.9-0.9,4.5
			c-0.4,2.5-0.6,5.2-0.6,8c0.1,29.6-0.1,55.5-0.5,78c-0.5,38.2-1.2,66.9-0.1,88.4c0.1,2,0.2,3.9,0.4,5.8
			c1.5,21.9,5.2,35.4,13.4,43.7c4,4,9,6.7,15.3,8.5h0c18.8,5.3,49.3,2.5,98.3,0.3c15.9-0.7,33.7-1.4,53.7-1.7
			c3.7-0.1,7.4-0.1,11.3-0.1c8.2,0,16.8,0,25.7,0c19.3,0.2,40.3,0.7,63.1,1.9l51,41.9l-1.8-41.9c29.5,3,57.8-5,59-39.9v-135h-44.7
			v33h-31.1v-33H296V198h19.4v13.6h31.1v-42.8L391.2,168.8L391.2,168.8L391.2,168.8z M350.4,357.4h-52.5v-79.7h52.5V357.4z
			 M229,89.2c7.2,0,15.6-0.2,18.8,4.2c0.9,1.2,1.4,2.7,1.4,4.7v28h-95.2v-28c0-9.2,0.1-8.9,9.3-8.9H229L229,89.2z M288.2,357.4
			h-52.5V236.9h52.5V357.4z M163.8,186.3v171h-52.5v-171L163.8,186.3L163.8,186.3z M49.1,277.7h48.6v79.7H49.1V277.7z M173.5,264.1
			H226v93.3h-52.5V264.1z"/>
		
			<linearGradient id="SVGID_00000138573440929446219960000009942278022587471789_" gradientUnits="userSpaceOnUse" x1="895.7527" y1="61.0249" x2="549.4683" y2="-221.1824" gradientTransform="matrix(-1 0 0 -1 876.85 143.14)">
			<stop  offset="0" style="stop-color:#FAAC18"/>
			<stop  offset="1" style="stop-color:#EF4E23"/>
		</linearGradient>
		<path style="fill:url(#SVGID_00000138573440929446219960000009942278022587471789_);" d="M314.8,210.1h27.1v-45.2h45.2
			c1.3-20.4-12.5-36.3-33.5-36.1h-89.9c-0.8-17,5.9-53.4-17.6-56.9c-0.2,0-0.5-0.1-0.7-0.1c-0.8-0.1-1.7-0.2-2.6-0.2h-86.2
			c-0.7,0-1.3,0-1.9,0h-0.4c-31.6,1.5-21.5,37.1-23.1,57.2c-40.8-0.8-69.2-1.7-88.8,0c-22.3,2-33.3,7.4-38.4,20.5
			c-0.5,1.3-1,2.6-1.3,4.1c-4.5,16.5-2.2,43.4-0.7,86.5c0.5,14.2,0.9,30.1,1,48C3,302,2.8,317.3,2.2,334c-0.1,2-0.1,4-0.2,6
			c-0.1,2.1-0.1,4.3-0.2,6.5c0,6.6,1.6,13.3,4.6,19.2c2.3,4.5,5.4,8.6,9.3,11.8c5.1,4.3,11.6,7,19,7h249.2l46.6,38.3l-1.6-38.3
			c30.9,2.2,56.2-1.8,58.2-38.1V216.1h-39.1v33.1h-39.1v-33.1h-21.1V189h27.1L314.8,210.1L314.8,210.1z M146.2,98.1
			c-0.1-12.5,8.9-11.4,17-11.4h69.4c7.7,0,13.3,1.2,15.2,6.7c0.5,1.3,0.7,2.9,0.7,4.7v30.7H146.2C146.2,128.8,146.2,98.1,146.2,98.1
			z M97.7,357.4H49.1v-79.7h48.6V357.4z M163.8,357.4h-52.5v-171h52.5V357.4L163.8,357.4z M173.5,357.4v-93.3H226v93.3H173.5
			L173.5,357.4z M350.4,277.7v79.7h-52.5v-79.7H350.4z M288.2,236.9v120.5h-52.5V236.9L288.2,236.9L288.2,236.9z"/>
		
			<linearGradient id="SVGID_00000011721522370931221720000017351750730053595040_" gradientUnits="userSpaceOnUse" x1="720.7661" y1="-132.9677" x2="535.8943" y2="118.141" gradientTransform="matrix(-1 0 0 -1 876.85 143.14)">
			<stop  offset="0" style="stop-color:#FAAC18"/>
			<stop  offset="1" style="stop-color:#EF4E23"/>
		</linearGradient>
		<path style="fill:url(#SVGID_00000011721522370931221720000017351750730053595040_);" d="M314.8,210.1h27.1v-45.2h45.2
			c1.3-20.4-12.5-36.3-33.5-36.1h-89.9c-0.8-17,5.9-53.4-17.6-56.9c-0.2,0-0.5-0.1-0.7-0.1c-0.8-0.1-1.7-0.2-2.6-0.2h-86.2
			c-0.7,0-1.3,0-1.9,0h-0.4c-31.6,1.5-21.5,37.1-23.1,57.2H34.7c-14-0.1-25.1,7.1-30.1,18.5v0.1c-0.8,1.9-1.5,3.8-1.9,5.9l0,0.1
			c0.1,0.1,0.3,0.3,0.4,0.5c22.2,23.8,46.7,44.3,73.1,61.7c11.4,7.5,23.2,14.5,35.2,21v-50.2h52.5v74.1c1.5,0.6,3.1,1.2,4.6,1.7
			c1.7,0.6,3.4,1.3,5.1,1.9H226V280c3.2,0.8,6.5,1.6,9.7,2.3v-45.4h52.5v55.1c3.2,0.5,6.5,0.9,9.7,1.3v-15.5h52.5v19.9
			c12.2,0.6,24.5,0.8,36.7,0.7v-82.1H348v33.1h-39.1v-33.1h-21.1V189h27.1L314.8,210.1L314.8,210.1L314.8,210.1z M248.6,128.8H146.2
			V98.1c-0.1-12.5,8.9-11.4,17-11.4h69.4c7.7,0,13.3,1.2,15.2,6.7c0.5,1.3,0.7,2.9,0.7,4.7V128.8z"/>
		
			<linearGradient id="SVGID_00000045576615450876625480000007533478671319116181_" gradientUnits="userSpaceOnUse" x1="141.0641" y1="-43.9299" x2="224.3203" y2="-545.0272" gradientTransform="matrix(1 0 0 -1 0 143.14)">
			<stop  offset="0" style="stop-color:#FAAF3A"/>
			<stop  offset="1" style="stop-color:#F05A26"/>
		</linearGradient>
		<path style="fill:url(#SVGID_00000045576615450876625480000007533478671319116181_);" d="M297.9,357.4v-79.7h-0.9l-8.8,9.6v70.1
			h-52.5V236.9h-2L217,264.1h8.9v93.3h-52.5v-93.3h14l-17-2.9l-2.1,1l-4.6,2.2v93h-52.5V187.7l-2.2-4.8l-33,32.6L3,287.9l-0.5,0.5
			c0.9,10.1-0.4,24.9-0.6,39.9c0,3.9,0,7.9,0.1,11.8c0.4,9.3,1.6,18.3,4.4,25.8c4,10.9,11.4,18.7,24.6,20.4h0
			c1.9,0.2,3.9,0.3,6.1,0.3h136.5l9.5-1.7l0.8-0.1l151-27.3H297.9L297.9,357.4z M49.1,277.7h48.6v79.7H49.1V277.7z"/>
	</g>
</g>
</svg>
