<?xml version="1.0" encoding="UTF-8"?><svg id="Layer_1" xmlns="http://www.w3.org/2000/svg" xmlns:xlink="http://www.w3.org/1999/xlink" viewBox="0 0 479.11 370.5"><defs><style>.cls-1{fill:url(#linear-gradient-2);}.cls-2{fill:#fff;}.cls-3{fill:url(#linear-gradient-6);}.cls-4{filter:url(#drop-shadow-1);}.cls-5{fill:url(#linear-gradient-10);}.cls-6{fill:url(#linear-gradient-5);}.cls-7{fill:url(#linear-gradient-7);}.cls-8{fill:url(#linear-gradient-9);}.cls-9{fill:url(#linear-gradient-3);}.cls-10{fill:url(#linear-gradient);}.cls-11{fill:url(#linear-gradient-11);filter:url(#drop-shadow-2);}.cls-12{fill:url(#linear-gradient-4);}.cls-13{fill:url(#linear-gradient-8);}</style><linearGradient id="linear-gradient" x1="-1685.36" y1="343.82" x2="-1668.95" y2="247.87" gradientTransform="translate(-1300.13 369.98) rotate(-180)" gradientUnits="userSpaceOnUse"><stop offset="0" stop-color="#faaf3a"/><stop offset="1" stop-color="#f05a26"/></linearGradient><linearGradient id="linear-gradient-2" x1="-1717.65" y1="350.61" x2="-1698.88" y2="240.89" gradientTransform="translate(-1300.13 369.98) rotate(-180)" gradientUnits="userSpaceOnUse"><stop offset="0" stop-color="#faaf3a"/><stop offset="1" stop-color="#f05a26"/></linearGradient><linearGradient id="linear-gradient-3" x1="-1704.08" y1="356.6" x2="-1684.75" y2="243.54" gradientTransform="translate(-1300.13 369.98) rotate(-180)" gradientUnits="userSpaceOnUse"><stop offset="0" stop-color="#faaf3a"/><stop offset="1" stop-color="#f05a26"/></linearGradient><linearGradient id="linear-gradient-4" x1="-1650.13" y1="293.61" x2="-1694.4" y2="251.94" gradientTransform="translate(-1300.13 369.98) rotate(-180)" gradientUnits="userSpaceOnUse"><stop offset="0" stop-color="#faaf3a"/><stop offset="1" stop-color="#f05a26"/></linearGradient><linearGradient id="linear-gradient-5" x1="-1649.11" y1="295.58" x2="-1695.95" y2="251.5" gradientTransform="translate(-1300.13 369.98) rotate(-180)" gradientUnits="userSpaceOnUse"><stop offset="0" stop-color="#faaf3a"/><stop offset="1" stop-color="#f05a26"/></linearGradient><linearGradient id="linear-gradient-6" x1="-1624.68" y1="281.73" x2="-1676" y2="233.43" gradientTransform="translate(-1300.13 369.98) rotate(-180)" gradientUnits="userSpaceOnUse"><stop offset="0" stop-color="#faaf3a"/><stop offset="1" stop-color="#f05a26"/></linearGradient><linearGradient id="linear-gradient-7" x1="-1532.92" y1="374.08" x2="-1486.97" y2="174.93" gradientTransform="translate(-1300.13 369.98) rotate(-180)" gradientUnits="userSpaceOnUse"><stop offset="0" stop-color="#faac18"/><stop offset="1" stop-color="#ef4e23"/></linearGradient><linearGradient id="linear-gradient-8" x1="-1355.08" y1="362.76" x2="-1592.8" y2="169.03" gradientTransform="translate(-1300.13 369.98) rotate(-180)" gradientUnits="userSpaceOnUse"><stop offset="0" stop-color="#faac18"/><stop offset="1" stop-color="#ef4e23"/></linearGradient><linearGradient id="linear-gradient-9" x1="-1475.19" y1="229.59" x2="-1602.1" y2="401.97" gradientTransform="translate(-1300.13 369.98) rotate(-180)" gradientUnits="userSpaceOnUse"><stop offset="0" stop-color="#faac18"/><stop offset="1" stop-color="#ef4e23"/></linearGradient><linearGradient id="linear-gradient-10" x1="164.74" y1="290.7" x2="221.9" y2="-53.28" gradientTransform="translate(0 369.98) scale(1 -1)" gradientUnits="userSpaceOnUse"><stop offset="0" stop-color="#faaf3a"/><stop offset="1" stop-color="#f05a26"/></linearGradient><filter id="drop-shadow-1"><feOffset dx="1.75" dy="1.75"/><feGaussianBlur result="blur" stdDeviation="3.49"/><feFlood flood-color="#000" flood-opacity=".75"/><feComposite in="blur" operator="in"/><feComposite in="SourceGraphic"/></filter><linearGradient id="linear-gradient-11" x1="231.54" y1="66.8" x2="246.71" y2="-24.5" gradientTransform="translate(0 369.98) scale(1 -1)" gradientUnits="userSpaceOnUse"><stop offset="0" stop-color="#faaf3a"/><stop offset="1" stop-color="#f05a26"/></linearGradient><filter id="drop-shadow-2"><feOffset dx="1" dy="1"/><feGaussianBlur result="blur-2" stdDeviation="2"/><feFlood flood-color="#000" flood-opacity=".75"/><feComposite in="blur-2" operator="in"/><feComposite in="SourceGraphic"/></filter></defs><g id="Layer_1-2"><g><g><g><rect class="cls-10" x="357.81" y="82.77" width="30.69" height="28.02"/><rect class="cls-1" x="388.49" y="110.79" width="22.68" height="24.01"/><rect class="cls-9" x="375.15" y="134.81" width="13.34" height="16.01"/><rect class="cls-12" x="360.47" y="86.78" width="26.68" height="24.01"/><rect class="cls-6" x="393.83" y="113.46" width="16.01" height="21.35"/><rect class="cls-3" x="376.48" y="136.14" width="10.67" height="12.01"/></g><g><path class="cls-7" d="m336.46,66.76c1.83-16.04-8.9-29.61-25.68-29.34h-58.37V15.26c0-8.27-7.38-14.19-15.57-15.08-.16-.03-.31-.05-.47-.05-.56-.05-1.12-.07-1.68-.07h-59.16c-.49-.02-.98-.03-1.45-.03h-.26c-21.52.19-15.29,23.6-16.15,37.39h-65.81c-10.91,0-17.96,5.62-20.81,14.56,0,.02-.02.03-.02.07-.14.42-.26.86-.37,1.29-.28,1-.49,2.02-.65,3.11-.26,1.75-.4,3.58-.4,5.5.09,20.35-.1,38.11-.33,53.57-.35,26.24-.8,45.94-.09,60.68.07,1.36.16,2.69.24,3.96,1.03,15.01,3.56,24.33,9.2,29.97,2.72,2.74,6.16,4.61,10.51,5.85h.03c12.93,3.67,33.86,1.75,67.5.21,10.89-.51,23.13-.96,36.85-1.17,2.53-.05,5.11-.09,7.73-.1,5.64-.03,11.5-.03,17.63,0,13.25.12,27.65.51,43.31,1.27l35,28.77-1.24-28.77c20.25,2.06,39.68-3.46,40.48-27.41v-92.66h-30.69v22.68h-21.35v-22.68h-13.34v-9.34h13.34v9.34h21.35v-29.36h30.72Zm-28.02,129.42h-36.03v-54.71h36.03v54.71ZM225.15,12.07c4.94,0,10.68-.12,12.94,2.86.63.82.98,1.89.98,3.25v19.24h-65.37v-19.24c0-6.32.1-6.11,6.41-6.11h45.05-.01Zm40.6,184.11h-36.03v-82.72h36.03v82.72Zm-85.4-117.41v117.41h-36.01v-117.41h36.01Zm-78.71,62.7h33.36v54.71h-33.36v-54.71h0Zm85.4-9.34h36.01v64.05h-36.01v-64.05Z"/><path class="cls-13" d="m284.03,95.06h18.61v-31h31c.91-14.02-8.59-24.93-22.99-24.79h-61.74c-.54-11.64,4.08-36.66-12.06-39.08-.16-.03-.31-.05-.47-.05-.58-.09-1.17-.12-1.8-.14h-59.18c-.45,0-.89,0-1.31.03h-.26c-21.68,1.06-14.73,25.5-15.85,39.24-28-.56-47.48-1.2-60.94,0-15.29,1.36-22.85,5.11-26.36,14.07-.35.87-.66,1.82-.93,2.79-3.12,11.35-1.48,29.76-.45,59.39.35,9.72.63,20.67.66,32.96.02,9.69-.12,20.23-.51,31.68-.05,1.38-.09,2.76-.16,4.15-.05,1.47-.1,2.97-.17,4.47,0,4.5,1.12,9.13,3.18,13.21,1.57,3.12,3.72,5.94,6.35,8.13,3.53,2.95,7.94,4.78,13.07,4.78h171.1l32,26.29-1.13-26.29c21.23,1.54,38.56-1.24,39.94-26.13v-89.58h-26.86v22.73h-26.86v-22.73h-14.47v-18.61h18.59v14.47h0ZM168.31,18.18c-.03-8.55,6.11-7.86,11.66-7.86h47.66c5.29,0,9.16.86,10.46,4.61.33.91.49,1.97.49,3.25v21.09h-70.26v-21.09h-.01Zm-33.31,178h-33.36v-54.71h33.36v54.71Zm45.35,0h-36.01v-117.41h36.01v117.41Zm6.69,0v-64.05h36.01v64.05h-36.01Zm121.41-54.71v54.71h-36.03v-54.71h36.03Zm-42.7-28.02v82.72h-36.03v-82.72h36.03Z"/><path class="cls-8" d="m284.03,95.06h18.61v-31h31c.91-14.02-8.59-24.93-22.99-24.79h-61.74c-.54-11.64,4.08-36.66-12.06-39.08-.16-.03-.31-.05-.47-.05-.58-.09-1.17-.12-1.8-.14h-59.18c-.45,0-.89,0-1.31.03h-.26c-21.68,1.06-14.73,25.5-15.85,39.24h-66.25c-9.6-.05-17.23,4.85-20.67,12.71,0,.02-.02.03-.02.07-.56,1.27-1.01,2.62-1.33,4.05l.03.03c.09.1.19.21.28.31,15.22,16.36,32.07,30.43,50.15,42.38,7.84,5.18,15.9,9.98,24.16,14.4v-34.46h36.01v50.87c1.05.42,2.11.82,3.16,1.2,1.17.44,2.34.87,3.53,1.29h36.01v10.93c2.22.54,4.43,1.08,6.67,1.59v-31.19h36.03v37.79c2.22.31,4.45.61,6.67.87v-10.65h36.03v13.63c8.38.38,16.79.52,25.19.47v-56.38h-26.86v22.73h-26.86v-22.73h-14.47v-18.61h18.59v14.49Zm-45.46-55.79h-70.26v-21.09c-.03-8.55,6.11-7.86,11.66-7.86h47.66c5.29,0,9.16.86,10.46,4.61.33.91.49,1.97.49,3.25v21.09h-.01Z"/><path class="cls-5" d="m272.42,196.18v-54.71h-.65l-6.02,6.62v48.09h-36.03v-82.72h-1.34l-11.47,18.68h6.14v64.05h-36.01v-64.05h9.62l-11.68-1.99-1.47.7-3.16,1.48v63.85h-36.01v-116.47l-1.54-3.26-22.62,22.38-50.22,49.65-.33.31c.61,6.97-.28,17.11-.42,27.41-.03,2.71-.02,5.43.09,8.12.28,6.39,1.1,12.53,3,17.68,2.76,7.45,7.82,12.85,16.86,13.98h.03c1.31.16,2.71.23,4.17.21h93.67l6.51-1.17.54-.1,103.64-18.73h-25.31,0Zm-170.77-54.72h33.36v54.71h-33.36v-54.71Z"/></g></g><g><g class="cls-4"><path class="cls-2" d="m75.46,263.85l-12.77,38.8-12.51-38.8h-11.75l-12.92,38.51-12.36-38.51H0l18,54.79h13.55l12.42-37.14,12.15,37.14h13.47l18-54.79h-12.13Z"/><path class="cls-2" d="m136.67,286.35c-1.99-3.26-4.73-5.81-8.22-7.67-3.5-1.85-7.49-2.78-11.98-2.78s-8.39.93-11.86,2.78c-3.47,1.86-6.19,4.41-8.17,7.67-1.99,3.27-2.98,7.01-2.98,11.24s.99,7.89,2.98,11.15c1.98,3.26,4.7,5.83,8.17,7.71s7.43,2.82,11.86,2.82,8.48-.94,11.98-2.82c3.49-1.88,6.23-4.43,8.22-7.67,1.98-3.23,2.97-6.97,2.97-11.19s-.99-7.97-2.97-11.24h0Zm-10.84,17.5c-.97,1.77-2.25,3.12-3.84,4.03s-3.43,1.37-5.52,1.37c-1.98,0-3.78-.46-5.4-1.37s-2.91-2.26-3.87-4.03c-.97-1.77-1.45-3.86-1.45-6.26s.48-4.54,1.45-6.27c.96-1.72,2.25-3.03,3.87-3.95,1.62-.91,3.45-1.37,5.48-1.37s3.85.46,5.44,1.37c1.59.92,2.87,2.23,3.84,3.95.96,1.73,1.45,3.81,1.45,6.27s-.49,4.49-1.45,6.26Z"/><path class="cls-2" d="m165.4,278.21c-1.78.99-3.25,2.28-4.39,3.86v-5.54h-11.66v42.11h12.21v-19.88c0-4.02,1.02-6.99,3.05-8.92,2.04-1.93,4.78-2.9,8.22-2.9.42,0,.85.03,1.29.08.45.05.9.13,1.37.23v-11.35c-3.96,0-7.33.78-10.09,2.31h0Z"/><path class="cls-2" d="m184.65,260.56v58.08h12.21v-58.08h-12.21Zm30.06,15.97l-17.85,16.85-1.8,1.7-.31,14.95,2.11-2.06,5.93-5.78,1.27-1.24,6.34-5.24,1.33-1.35,17.54-17.83h-14.56Zm-2.98,17.83l-2.26-2.88-7.68,9.47,1,1.24,13.25,16.45h14.79l-19.1-24.28Z"/><path class="cls-2" d="m284.95,295.51c-1.18-1.9-2.7-3.41-4.58-4.54-1.88-1.12-3.94-2.04-6.19-2.78-2.24-.73-4.51-1.34-6.81-1.84-2.29-.49-4.38-.99-6.26-1.48-1.88-.5-3.39-1.19-4.54-2.08-1.15-.88-1.72-2.06-1.72-3.52,0-1.15.35-2.19,1.06-3.13.7-.94,1.81-1.68,3.32-2.23,1.52-.55,3.52-.82,6.03-.82s4.9.35,7.51,1.05c2.61.71,5.14,1.76,7.6,3.17l3.99-9.55c-2.51-1.56-5.44-2.76-8.81-3.6-3.36-.83-6.77-1.25-10.21-1.25-5.17,0-9.46.77-12.88,2.31s-5.96,3.6-7.63,6.18c-1.67,2.59-2.5,5.44-2.5,8.58,0,2.87.55,5.25,1.68,7.16,1.12,1.9,2.63,3.44,4.54,4.62,1.9,1.17,3.99,2.11,6.26,2.81,2.27.71,4.53,1.31,6.77,1.8,2.24.5,4.32,1.02,6.22,1.57,1.91.55,3.43,1.25,4.58,2.11s1.72,2.03,1.72,3.49c0,1.14-.36,2.15-1.09,3.01-.73.86-1.87,1.55-3.41,2.07-1.54.53-3.56.79-6.06.79-3.29,0-6.55-.54-9.79-1.61-3.23-1.07-6-2.44-8.29-4.11l-4.31,9.55c2.45,1.88,5.7,3.41,9.75,4.58,4.04,1.18,8.25,1.76,12.64,1.76,5.16,0,9.47-.78,12.91-2.35,3.45-1.56,6.02-3.62,7.71-6.18,1.7-2.56,2.55-5.37,2.55-8.45,0-2.82-.59-5.18-1.76-7.09h0Z"/><path class="cls-2" d="m321.62,307.88c-1.62.91-3.4,1.37-5.33,1.37-2.03,0-3.88-.46-5.55-1.37-1.67-.91-3-2.24-3.99-3.99-1-1.75-1.49-3.85-1.49-6.3s.49-4.54,1.49-6.27c.99-1.72,2.32-3.03,3.99-3.95,1.67-.91,3.52-1.37,5.55-1.37s3.71.46,5.33,1.37c1.61.92,3,2.36,4.15,4.35l9.39-5.17c-1.46-3.39-3.85-6.01-7.16-7.87-3.32-1.85-7.19-2.78-11.63-2.78s-8.57.94-12.09,2.82-6.29,4.44-8.3,7.67c-2.01,3.24-3.01,6.97-3.01,11.2s1,7.9,3.01,11.19,4.78,5.86,8.3,7.71,7.55,2.78,12.09,2.78,8.31-.94,11.63-2.82c3.31-1.88,5.7-4.49,7.16-7.83l-9.39-5.16c-1.15,2.03-2.54,3.51-4.15,4.42h0Z"/><path class="cls-2" d="m384.08,286.35c-1.98-3.26-4.72-5.81-8.22-7.67-3.5-1.85-7.49-2.78-11.97-2.78s-8.39.93-11.86,2.78c-3.47,1.86-6.2,4.41-8.18,7.67-1.99,3.27-2.98,7.01-2.98,11.24s.99,7.89,2.98,11.15c1.98,3.26,4.71,5.83,8.18,7.71s7.42,2.82,11.86,2.82,8.47-.94,11.97-2.82,6.24-4.43,8.22-7.67c1.98-3.23,2.97-6.97,2.97-11.19s-.99-7.97-2.97-11.24h0Zm-10.84,17.5c-.97,1.77-2.25,3.12-3.84,4.03s-3.43,1.37-5.51,1.37-3.79-.46-5.41-1.37c-1.61-.91-2.91-2.26-3.87-4.03-.97-1.77-1.45-3.86-1.45-6.26s.48-4.54,1.45-6.27c.96-1.72,2.26-3.03,3.87-3.95,1.62-.91,3.45-1.37,5.48-1.37s3.85.46,5.44,1.37c1.59.92,2.87,2.23,3.84,3.95.96,1.73,1.45,3.81,1.45,6.27s-.49,4.49-1.45,6.26Z"/><path class="cls-2" d="m427.05,276.53v20.9c0,2.51-.43,4.59-1.29,6.26-.86,1.67-2.02,2.93-3.48,3.76-1.46.84-3.13,1.25-5.01,1.25-2.71,0-4.81-.82-6.3-2.46-1.49-1.65-2.23-4.24-2.23-7.79v-21.92h-12.21v23.8c0,4.28.75,7.82,2.27,10.64,1.51,2.82,3.62,4.91,6.34,6.26,2.71,1.36,5.84,2.04,9.39,2.04,3.23,0,6.21-.74,8.92-2.23,1.61-.88,3-2.01,4.15-3.4v5h11.59v-42.11h-12.14,0Z"/><path class="cls-2" d="m447.01,277.47v9.39h29.2v-9.39h-29.2Zm28.89,30.53c-1.36,1.04-3.03,1.56-5.01,1.56-1.57,0-2.81-.49-3.72-1.48-.92-.99-1.37-2.38-1.37-4.15v-36.71h-12.29v36.94c0,5.01,1.38,8.78,4.15,11.31,2.76,2.53,6.62,3.8,11.58,3.8,1.88,0,3.69-.22,5.44-.67,1.75-.44,3.22-1.1,4.43-1.99l-3.21-8.61h0Z"/></g><path class="cls-11" d="m25.97,339.67s-.1-.1-.19-.13c-.1-.04-.23-.06-.39-.1-.16-.02-.35-.03-.58-.03-.25,0-.45.01-.6.03-.15.04-.28.06-.37.1-.1.03-.17.08-.21.13-.04.06-.05.12-.05.2v7.43h-8.45v-7.43c0-.08-.02-.14-.05-.2-.04-.05-.11-.1-.2-.13-.1-.04-.22-.06-.39-.1-.15-.02-.35-.03-.59-.03-.22,0-.43.01-.59.03-.16.04-.29.06-.38.1-.1.03-.16.08-.2.13-.04.06-.07.12-.07.2v17.8c0,.08.03.15.07.2.04.06.1.11.2.15.09.03.22.06.38.08.16.03.37.04.59.04.24,0,.44-.01.59-.04.17-.02.29-.05.39-.08.09-.04.16-.09.2-.15.03-.05.05-.12.05-.2v-8.23h8.45v8.23c0,.08,0,.15.05.2.04.06.11.11.21.15.09.03.22.06.37.08.15.03.35.04.6.04.23,0,.42-.01.58-.04.16-.02.29-.05.39-.08.09-.04.16-.09.19-.15.04-.05.06-.12.06-.2v-17.8c0-.08-.02-.14-.06-.2Zm15.99,8.21c-.21-.74-.54-1.39-1.01-1.94-.45-.55-1.04-.99-1.76-1.31-.71-.32-1.57-.48-2.58-.48-.95,0-1.81.16-2.56.49-.77.32-1.42.8-1.97,1.42-.53.61-.95,1.36-1.24,2.25-.28.88-.42,1.88-.42,2.98,0,1.18.14,2.2.41,3.08.27.88.69,1.6,1.23,2.19.55.58,1.22,1.02,2.02,1.31.8.3,1.73.45,2.79.45.61,0,1.19-.04,1.73-.13.53-.09,1.01-.19,1.42-.32.42-.11.75-.23,1-.35.26-.11.42-.2.47-.25.06-.05.1-.11.13-.16.03-.07.06-.13.07-.21.02-.07.03-.15.04-.24,0-.09,0-.19,0-.32,0-.17,0-.32-.02-.44s-.04-.21-.06-.27c-.03-.07-.07-.12-.12-.15-.06-.04-.12-.05-.18-.05-.13,0-.3.05-.52.15s-.52.21-.86.33c-.35.12-.77.24-1.25.34s-1.02.15-1.64.15c-.78,0-1.44-.11-1.97-.33-.55-.22-.98-.53-1.32-.95-.33-.41-.57-.9-.71-1.47-.16-.58-.23-1.22-.23-1.94h8.51c.24,0,.45-.07.63-.24.19-.16.29-.42.29-.79v-.43c0-.84-.12-1.64-.33-2.37Zm-9.1,2.1c.02-.53.11-1.03.28-1.52.17-.48.4-.9.69-1.26.3-.37.67-.66,1.12-.88.44-.22.96-.32,1.54-.32,1.14,0,2,.35,2.59,1.06.58.69.86,1.68.83,2.92h-7.05Zm15.92-11.65s-.1-.1-.19-.14-.2-.06-.35-.08c-.16-.02-.35-.03-.6-.03-.22,0-.41.01-.56.03s-.28.04-.38.08c-.08.04-.15.09-.18.14-.03.06-.05.13-.05.2v19.16c0,.07.02.14.05.19s.1.11.18.14c.1.04.23.07.38.09s.34.03.56.03c.25,0,.44-.01.6-.03.15-.02.26-.05.35-.09.09-.03.15-.09.19-.14.04-.05.06-.12.06-.19v-19.16c0-.07-.02-.14-.06-.2Zm16.6,10.05c-.19-.84-.49-1.58-.9-2.2-.43-.63-.97-1.13-1.62-1.49-.66-.36-1.46-.54-2.4-.54-.42,0-.84.05-1.22.15-.39.09-.77.24-1.13.43-.37.2-.74.45-1.11.75-.36.29-.73.64-1.13,1.04v-1.74c0-.08-.01-.15-.05-.2-.03-.05-.09-.1-.17-.14-.09-.03-.19-.06-.32-.07-.14-.02-.3-.03-.5-.03s-.35.01-.48.03c-.15.01-.25.04-.34.07-.08.04-.14.09-.17.14-.03.05-.04.12-.04.2v18.03c0,.08,0,.14.05.2.03.06.09.1.18.14s.21.07.37.09c.15.01.34.02.57.02s.44-.01.59-.02c.15-.02.27-.05.36-.09.08-.04.14-.08.18-.14s.07-.12.07-.2v-6.45c.34.33.66.62.97.87.3.25.61.45.93.61.3.17.62.29.95.37.32.07.67.11,1.06.11.9,0,1.7-.17,2.39-.51.7-.34,1.29-.82,1.76-1.44.47-.63.83-1.4,1.07-2.3.25-.89.37-1.91.37-3.03,0-.94-.09-1.83-.29-2.66h0Zm-2.35,4.72c-.12.6-.32,1.13-.59,1.61-.26.47-.6.86-1.04,1.14-.42.3-.94.44-1.53.44-.64,0-1.26-.22-1.84-.64-.59-.41-1.22-1.02-1.86-1.82v-5.13c.37-.47.72-.86,1.06-1.18s.65-.58.97-.78c.3-.19.6-.34.91-.43.29-.08.59-.13.91-.13.61,0,1.13.14,1.53.43.42.29.75.67.99,1.14.25.48.42,1.03.52,1.64.1.62.15,1.26.15,1.92,0,.6-.06,1.2-.18,1.79h0Zm9.11-13.79c-.2-.19-.59-.29-1.14-.29s-.95.1-1.16.3c-.21.21-.32.58-.32,1.14s.11.92.31,1.11c.21.19.59.29,1.15.29s.95-.1,1.15-.3c.21-.19.32-.58.32-1.13s-.1-.91-.31-1.12Zm-.02,5.29c-.04-.06-.1-.1-.18-.14-.1-.04-.22-.07-.37-.09s-.34-.03-.58-.03-.43.01-.58.03-.27.05-.36.09c-.1.04-.16.08-.19.14-.04.06-.05.12-.05.18v12.91c0,.07.01.14.05.19.03.05.09.11.19.14.09.04.21.07.36.09s.34.03.58.03.43-.01.58-.03.27-.05.37-.09c.08-.03.14-.09.18-.14.04-.05.06-.12.06-.19v-12.91c0-.06-.02-.12-.06-.18Zm15.89,2.86c-.16-.66-.42-1.22-.78-1.72-.36-.48-.84-.87-1.42-1.16-.6-.29-1.32-.43-2.18-.43-.74,0-1.46.18-2.19.56-.72.38-1.45.97-2.17,1.78v-1.71c0-.07-.02-.13-.05-.19-.04-.05-.09-.1-.17-.14-.07-.04-.18-.07-.32-.08-.13-.02-.31-.03-.52-.03s-.4.01-.53.03c-.13.01-.24.04-.33.08-.09.04-.15.09-.17.14-.03.06-.05.12-.05.19v12.91c0,.07.02.14.05.19.04.05.1.11.19.14.1.04.22.07.37.09s.34.03.57.03.44-.01.59-.03c.15-.02.27-.05.35-.09.1-.03.16-.09.2-.14.03-.05.05-.12.05-.19v-9.02c.65-.81,1.27-1.43,1.87-1.85.58-.42,1.18-.63,1.78-.63.45,0,.86.09,1.2.26.35.17.64.43.86.75.21.32.38.71.49,1.16.13.45.18,1.04.18,1.77v7.56c0,.07.02.14.06.19s.1.11.19.14c.08.04.2.07.35.09s.35.03.59.03.42-.01.58-.03c.15-.02.27-.05.35-.09.09-.03.15-.09.19-.14.03-.05.05-.12.05-.19v-7.87c0-.92-.07-1.7-.23-2.36h0Zm15.78-1.36c.09-.14.14-.39.14-.72s-.04-.57-.12-.73-.2-.23-.36-.23h-3.91c-.3-.08-.61-.14-.95-.18-.34-.04-.7-.07-1.1-.07-.73,0-1.39.11-2.01.32-.62.22-1.15.52-1.59.93-.43.4-.79.89-1.03,1.48-.25.58-.37,1.24-.37,1.98,0,.62.09,1.16.26,1.6.17.45.41.85.7,1.21-.36.36-.65.77-.89,1.23-.23.46-.36.97-.36,1.56,0,.42.12.81.34,1.17.22.36.56.67,1.04.91-.3.23-.58.47-.81.72-.23.24-.43.5-.59.77-.16.27-.28.55-.35.85-.08.29-.12.59-.12.91,0,.5.11.96.32,1.38.21.43.55.8,1.01,1.1.48.3,1.08.55,1.8.73.74.17,1.62.26,2.66.26s2.02-.12,2.81-.35c.8-.23,1.45-.56,1.96-.96.52-.41.89-.88,1.15-1.42.24-.53.37-1.09.37-1.69,0-.56-.11-1.06-.33-1.48-.23-.43-.53-.78-.92-1.07-.4-.3-.85-.52-1.39-.68-.53-.15-1.13-.24-1.77-.26l-3.36-.14c-.52-.02-.93-.15-1.25-.37-.3-.21-.46-.49-.46-.83,0-.28.06-.53.16-.76.11-.22.25-.41.42-.58.27.21.63.38,1.11.52.47.13.97.21,1.49.21.75,0,1.43-.11,2.03-.32.62-.21,1.15-.51,1.59-.91.45-.39.79-.88,1.02-1.45.24-.58.37-1.24.37-1.98,0-.45-.07-.88-.21-1.3-.13-.41-.36-.8-.69-1.14h1.85c.14,0,.25-.07.34-.22h0Zm-9.45,12.31c.11-.19.27-.39.46-.62.19-.21.45-.43.76-.67l3.34.11c.78.02,1.38.18,1.84.48.45.31.68.73.68,1.29,0,.32-.07.63-.2.93-.12.29-.33.55-.63.78-.3.24-.69.42-1.17.56-.48.13-1.08.2-1.8.2-1.13,0-2.01-.16-2.64-.47-.63-.33-.95-.8-.95-1.42,0-.2.02-.39.08-.58.04-.2.12-.39.23-.59Zm5.73-8.56c-.11.34-.28.64-.51.91-.22.26-.5.46-.84.61-.35.16-.76.23-1.23.23-.87,0-1.54-.25-2.03-.73-.48-.49-.72-1.16-.72-2.01,0-.39.05-.75.16-1.1.12-.35.28-.65.51-.93.22-.26.5-.47.84-.62s.74-.23,1.2-.23c.89,0,1.58.25,2.05.73.49.5.73,1.19.73,2.07,0,.37-.06.72-.16,1.07Zm26.25-10.26c-.08-.07-.21-.11-.41-.15-.19-.02-.47-.03-.81-.03-.24,0-.45.01-.62.02-.16.02-.28.06-.37.09-.09.04-.16.09-.22.15-.05.07-.09.15-.12.24l-2.58,5.37c-.24.52-.48,1.05-.71,1.6-.23.53-.45,1.08-.68,1.62h-.03c-.24-.56-.48-1.12-.73-1.68-.23-.55-.47-1.08-.7-1.59l-2.57-5.33c-.05-.1-.1-.17-.15-.24-.05-.06-.13-.1-.23-.14-.12-.03-.26-.07-.43-.09-.18,0-.41-.02-.7-.02-.31,0-.56.01-.74.02-.2.02-.32.08-.4.14-.07.07-.09.16-.07.29.03.12.09.29.19.51l5.25,10.47v6.83c0,.08.02.15.06.2.04.06.11.11.21.15.09.03.22.06.39.08.15.03.35.04.58.04s.43-.01.59-.04c.16-.02.29-.05.38-.08.09-.04.16-.09.2-.15.05-.05.06-.12.06-.2v-6.83l5.24-10.47c.11-.21.17-.38.2-.5.02-.12,0-.22-.08-.28h0Zm12.77,8.6c-.26-.87-.67-1.6-1.18-2.19-.53-.61-1.18-1.07-1.97-1.39-.79-.31-1.72-.46-2.78-.46s-2.06.17-2.88.52c-.82.36-1.51.85-2.06,1.5-.55.63-.96,1.39-1.23,2.28-.27.88-.41,1.85-.41,2.9s.13,2.07.39,2.93c.25.85.65,1.59,1.17,2.19.53.61,1.19,1.06,1.97,1.37.79.33,1.71.48,2.77.48s2.06-.18,2.89-.54c.81-.35,1.5-.86,2.06-1.49.54-.65.96-1.41,1.23-2.29.28-.89.43-1.86.43-2.91s-.14-2.04-.4-2.9h0Zm-2.29,5.11c-.15.62-.4,1.16-.72,1.61-.33.45-.75.8-1.26,1.04-.51.26-1.12.38-1.81.38-.76,0-1.4-.13-1.91-.41-.51-.27-.92-.64-1.23-1.11-.3-.45-.51-1-.65-1.63-.13-.61-.19-1.28-.19-1.99s.08-1.41.24-2.03.4-1.16.73-1.62c.33-.44.74-.8,1.25-1.05.5-.24,1.11-.37,1.82-.37.75,0,1.39.14,1.91.41.5.27.91.64,1.21,1.11.3.47.52,1.01.65,1.63.13.63.19,1.28.19,1.98,0,.75-.08,1.43-.23,2.05h0Zm17.74-8.71s-.1-.1-.19-.14c-.08-.04-.21-.07-.36-.08-.16-.02-.34-.03-.57-.03-.25,0-.44.01-.59.03-.14.01-.26.04-.36.08-.09.04-.17.09-.2.14-.03.06-.05.12-.05.19v9.02c-.65.82-1.28,1.44-1.87,1.85-.58.42-1.17.64-1.77.64-.45,0-.86-.09-1.2-.27s-.63-.43-.86-.74c-.22-.33-.38-.71-.49-1.17-.11-.45-.17-1.06-.17-1.81v-7.52c0-.07-.02-.13-.06-.19-.04-.05-.1-.1-.19-.14s-.21-.07-.36-.08c-.16-.02-.35-.03-.58-.03s-.42.01-.57.03c-.16.01-.28.04-.38.08-.09.04-.16.09-.19.14-.03.06-.05.12-.05.19v7.84c0,.93.08,1.73.24,2.38.15.66.42,1.23.78,1.72.36.5.84.88,1.43,1.17.58.29,1.31.43,2.17.43.74,0,1.45-.18,2.17-.56.72-.37,1.45-.97,2.19-1.78v1.71c0,.07,0,.14.04.19s.08.11.16.14c.08.04.19.07.33.09s.32.03.54.03c.2,0,.37-.01.51-.03.13-.02.25-.05.34-.09.08-.03.14-.09.18-.14.03-.05.05-.12.05-.19v-12.91c0-.07-.03-.13-.07-.19h0Zm26.48-4.86c-.04-.06-.11-.11-.2-.15s-.21-.07-.37-.09c-.16-.03-.36-.04-.58-.04-.25,0-.45.01-.61.04-.16.02-.28.05-.38.09-.09.04-.16.09-.2.15s-.06.12-.06.18v10.07c0,.76,0,1.54,0,2.35,0,.82,0,1.61.03,2.36h0c-.22-.45-.45-.89-.68-1.33-.22-.45-.45-.9-.69-1.36-.22-.46-.46-.93-.71-1.39-.26-.48-.51-.97-.78-1.46l-4.35-8.15c-.16-.29-.3-.54-.45-.74-.15-.19-.29-.34-.44-.45-.16-.11-.33-.19-.52-.24-.2-.04-.43-.07-.72-.07h-1.21c-.26,0-.49.08-.71.24-.21.16-.33.43-.33.82v17.11c0,.07.02.13.06.19.04.07.11.12.2.16.09.03.21.06.37.08.15.03.35.04.6.04s.44-.01.59-.04c.17-.02.29-.05.39-.08.09-.04.16-.09.2-.16.04-.06.06-.12.06-.19v-11.19c0-.71,0-1.42-.02-2.14,0-.71-.02-1.42-.04-2.11h.03c.26.57.54,1.15.84,1.74.3.6.6,1.18.89,1.72l5.66,10.56c.19.36.38.67.56.91.17.24.34.43.51.56.17.14.36.23.55.3.19.05.42.07.67.07h.82c.13,0,.26-.01.39-.05.13-.04.24-.11.34-.2.11-.08.19-.19.25-.32.08-.13.11-.3.11-.49v-17.12c0-.06-.02-.12-.07-.18h0Zm14.75,7.17c-.18-.61-.47-1.12-.87-1.52-.4-.41-.93-.71-1.57-.92-.66-.21-1.45-.31-2.37-.31-.49,0-.99.04-1.47.13-.5.09-.94.2-1.36.34-.4.14-.77.29-1.08.47-.32.16-.55.3-.67.43-.13.12-.21.25-.24.39-.04.15-.05.33-.05.57,0,.14,0,.27.02.4.02.12.05.21.1.29.04.07.09.13.15.17.05.04.12.06.19.06.13,0,.3-.07.53-.21.23-.14.53-.29.88-.46.34-.17.75-.32,1.21-.46.47-.13.99-.2,1.58-.2.54,0,1,.06,1.37.19.38.13.68.31.91.57.24.26.41.57.51.95.1.39.16.82.16,1.32v1.01h-1.78c-1,0-1.91.08-2.71.26-.81.17-1.48.45-2.04.8-.54.36-.98.79-1.27,1.33-.3.53-.45,1.17-.45,1.9,0,.61.11,1.17.33,1.65.21.49.51.9.9,1.24.39.33.86.58,1.4.77.56.17,1.17.26,1.85.26.77,0,1.51-.16,2.19-.5.7-.34,1.33-.81,1.9-1.4v1.28c0,.12.03.2.1.26.06.06.17.11.32.13.14.03.34.05.6.05s.44-.02.58-.05c.13-.02.24-.07.32-.13.07-.06.11-.14.11-.26v-8.7c0-.8-.09-1.51-.28-2.1h0Zm-2.07,7.65c-.58.64-1.14,1.13-1.68,1.44-.52.33-1.1.48-1.71.48-.77,0-1.37-.19-1.79-.6-.43-.39-.64-.93-.64-1.59,0-.39.07-.74.22-1.05.15-.29.38-.55.7-.76.31-.22.71-.38,1.18-.49.49-.11,1.04-.17,1.7-.17h2.02v2.74Zm17.32-9.99s-.09-.09-.17-.13-.19-.06-.34-.07c-.14,0-.32-.02-.54-.02-.26,0-.47.01-.63.03-.15.01-.27.04-.36.07-.09.04-.16.09-.22.15-.05.05-.08.12-.1.21l-3.6,10.64-.04.17-.06-.17-3.64-10.64c-.04-.09-.08-.16-.12-.21-.04-.06-.11-.11-.2-.15-.09-.03-.22-.06-.38-.07-.18-.02-.4-.03-.67-.03-.22,0-.41.01-.56.02-.14.01-.26.03-.35.06-.09.04-.16.08-.19.14-.04.05-.06.12-.06.2,0,.02,0,.06,0,.1,0,.05.02.11.04.2.02.09.05.19.09.3l4.39,12.26c.04.09.09.17.16.24.06.06.16.13.27.16.12.04.28.07.47.09s.43.03.71.03c.3,0,.53-.01.72-.02.19-.02.35-.04.48-.08.12-.04.22-.1.28-.17.06-.06.11-.15.15-.25l4.4-12.26c.02-.06.03-.13.05-.18,0-.06.03-.11.03-.17,0-.05.02-.09.03-.13v-.12c0-.08,0-.14-.05-.2h0Zm5.65-5.25c-.2-.19-.59-.29-1.14-.29s-.95.1-1.16.3c-.21.21-.32.58-.32,1.14s.1.92.32,1.11c.2.19.58.29,1.14.29s.95-.1,1.15-.3c.21-.19.32-.58.32-1.13s-.11-.91-.31-1.12Zm-.02,5.29c-.04-.06-.1-.1-.18-.14-.09-.04-.21-.07-.37-.09-.15-.02-.34-.03-.58-.03s-.43.01-.58.03c-.15.02-.27.05-.36.09s-.15.08-.18.14c-.04.06-.06.12-.06.18v12.91c0,.07.02.14.06.19.03.05.09.11.18.14.09.04.21.07.36.09s.35.03.58.03.43-.01.58-.03c.16-.02.28-.05.37-.09.08-.03.14-.09.18-.14.04-.05.06-.12.06-.19v-12.91c0-.06-.02-.12-.06-.18Zm15.66,1.5c.09-.14.14-.39.14-.72s-.04-.57-.12-.73-.2-.23-.37-.23h-3.9c-.3-.08-.61-.14-.96-.18-.33-.04-.69-.07-1.09-.07-.73,0-1.39.11-2.01.32-.62.22-1.15.52-1.59.93-.44.4-.79.89-1.03,1.48-.25.58-.37,1.24-.37,1.98,0,.62.09,1.16.26,1.6.17.45.4.85.7,1.21-.36.36-.65.77-.89,1.23-.24.46-.36.97-.36,1.56,0,.42.12.81.34,1.17.22.36.56.67,1.04.91-.31.23-.58.47-.81.72-.24.24-.43.5-.6.77-.15.27-.27.55-.34.85-.08.29-.12.59-.12.91,0,.5.11.96.32,1.38.2.43.55.8,1.01,1.1.48.3,1.07.55,1.8.73.74.17,1.62.26,2.66.26s2.02-.12,2.81-.35c.8-.23,1.45-.56,1.96-.96.51-.41.89-.88,1.15-1.42.24-.53.36-1.09.36-1.69,0-.56-.1-1.06-.32-1.48-.23-.43-.53-.78-.92-1.07-.4-.3-.86-.52-1.39-.68-.54-.15-1.13-.24-1.77-.26l-3.36-.14c-.52-.02-.93-.15-1.25-.37-.31-.21-.46-.49-.46-.83,0-.28.06-.53.16-.76.11-.22.25-.41.42-.58.27.21.63.38,1.1.52.48.13.98.21,1.5.21.75,0,1.43-.11,2.03-.32.62-.21,1.15-.51,1.59-.91.45-.39.79-.88,1.02-1.45.24-.58.37-1.24.37-1.98,0-.45-.08-.88-.21-1.3-.13-.41-.36-.8-.69-1.14h1.84c.15,0,.26-.07.35-.22h0Zm-9.45,12.31c.11-.19.27-.39.46-.62.19-.21.45-.43.75-.67l3.35.11c.76.02,1.38.18,1.84.48.45.31.68.73.68,1.29,0,.32-.07.63-.2.93-.12.29-.33.55-.64.78-.29.24-.68.42-1.16.56-.48.13-1.08.2-1.8.2-1.13,0-2.01-.16-2.64-.47-.63-.33-.95-.8-.95-1.42,0-.2.02-.39.07-.58.04-.2.13-.39.24-.59h0Zm5.72-8.56c-.1.34-.27.64-.5.91-.22.26-.5.46-.86.61-.34.16-.74.23-1.21.23-.87,0-1.55-.25-2.03-.73-.48-.49-.72-1.16-.72-2.01,0-.39.05-.75.16-1.1s.28-.65.51-.93c.22-.26.5-.47.84-.62s.74-.23,1.2-.23c.89,0,1.57.25,2.05.73.49.5.73,1.19.73,2.07,0,.37-.06.72-.17,1.07h0Zm16.4-2.95c-.19-.61-.48-1.12-.87-1.52-.41-.41-.93-.71-1.58-.92-.66-.21-1.45-.31-2.37-.31-.5,0-.99.04-1.48.13-.49.09-.93.2-1.35.34-.4.14-.76.29-1.09.47-.31.16-.53.3-.67.43-.12.12-.2.25-.24.39-.03.15-.05.33-.05.57,0,.14,0,.27.03.4.02.12.05.21.09.29.05.07.1.13.15.17.06.04.14.06.21.06.12,0,.29-.07.52-.21.23-.14.53-.29.87-.46.36-.17.76-.32,1.22-.46.47-.13,1-.2,1.57-.2s1.01.06,1.38.19.67.31.92.57c.23.26.39.57.5.95.1.39.15.82.15,1.32v1.01h-1.77c-1.01,0-1.91.08-2.7.26-.81.17-1.49.45-2.05.8-.55.36-.98.79-1.27,1.33-.29.53-.45,1.17-.45,1.9,0,.61.12,1.17.33,1.65.21.49.51.9.9,1.24.39.33.86.58,1.4.77.56.17,1.17.26,1.84.26.78,0,1.52-.16,2.21-.5s1.32-.81,1.89-1.4v1.28c0,.12.03.2.1.26.06.06.17.11.31.13.15.03.36.05.6.05.26,0,.45-.02.58-.05.15-.02.25-.07.33-.13.07-.06.11-.14.11-.26v-8.7c0-.8-.09-1.51-.27-2.1h0Zm-2.09,7.65c-.57.64-1.13,1.13-1.66,1.44-.53.33-1.11.48-1.73.48-.76,0-1.36-.19-1.78-.6-.43-.39-.64-.93-.64-1.59,0-.39.07-.74.22-1.05.14-.29.38-.55.69-.76.32-.22.72-.38,1.19-.49.48-.11,1.04-.17,1.69-.17h2.02v2.74h0Zm13.63,1.49c-.02-.07-.05-.11-.1-.14-.04-.02-.08-.03-.13-.03-.08,0-.16.02-.26.06s-.21.09-.35.14c-.13.04-.28.1-.45.14-.18.04-.38.06-.59.06-.68,0-1.15-.23-1.41-.68-.27-.46-.4-1.12-.4-2.01v-7.2h3.32c.14,0,.25-.08.34-.23.08-.15.12-.41.12-.75,0-.18,0-.33-.02-.46-.02-.12-.05-.22-.1-.3-.04-.08-.09-.14-.14-.17-.06-.04-.13-.05-.2-.05h-3.32v-3.07c0-.08-.02-.14-.06-.19-.03-.06-.1-.11-.18-.15-.09-.04-.2-.08-.36-.09-.16-.02-.35-.03-.59-.03-.22,0-.42.01-.57.03-.15,0-.28.05-.36.09-.09.04-.16.09-.19.15-.03.05-.05.11-.05.19v3.07h-1.79c-.08,0-.16,0-.22.05-.06.03-.11.09-.15.17-.03.08-.06.18-.09.3-.02.13-.03.28-.03.46,0,.34.04.6.12.75.09.15.2.23.35.23h1.81v7.54c0,.75.07,1.4.21,1.94.13.55.35,1,.66,1.37.31.35.7.62,1.18.8.47.18,1.05.26,1.72.26.22,0,.44-.01.65-.04.23-.03.44-.06.63-.11.19-.04.37-.09.53-.16.15-.07.26-.15.34-.22.07-.08.13-.2.17-.36.04-.16.05-.38.05-.66,0-.17,0-.31-.02-.42-.02-.12-.04-.22-.07-.28h0Zm14.18-8.16c-.22-.74-.55-1.39-1.01-1.94-.46-.55-1.04-.99-1.76-1.31-.7-.32-1.57-.48-2.58-.48-.94,0-1.8.16-2.57.49-.76.32-1.42.8-1.95,1.42-.55.61-.96,1.36-1.25,2.25-.28.88-.43,1.88-.43,2.98,0,1.18.14,2.2.42,3.08.28.88.69,1.6,1.24,2.19.53.58,1.21,1.02,2.01,1.31.8.3,1.73.45,2.79.45.61,0,1.18-.04,1.72-.13s1.02-.19,1.43-.32c.41-.11.74-.23,1-.35.26-.11.42-.2.47-.25s.09-.11.13-.16c.03-.07.05-.13.07-.21.01-.07.02-.15.03-.24s.02-.19.02-.32c0-.17-.01-.32-.02-.44-.02-.12-.04-.21-.07-.27-.03-.07-.07-.12-.12-.15-.05-.04-.11-.05-.18-.05-.11,0-.29.05-.51.15-.23.1-.51.21-.87.33-.34.12-.77.24-1.24.34-.49.1-1.03.15-1.64.15-.78,0-1.44-.11-1.98-.33s-.97-.53-1.3-.95c-.35-.41-.58-.9-.73-1.47-.14-.58-.21-1.22-.21-1.94h8.49c.24,0,.45-.07.64-.24.19-.16.29-.42.29-.79v-.43c0-.84-.11-1.64-.33-2.37h0Zm-9.09,2.1c.02-.53.11-1.03.27-1.52.16-.48.39-.9.7-1.26.29-.37.66-.66,1.1-.88s.96-.32,1.54-.32c1.15,0,2.02.35,2.59,1.06.59.69.86,1.68.83,2.92h-7.03Zm27.44,6.06c-.03-.07-.06-.11-.1-.14-.04-.02-.09-.03-.14-.03-.07,0-.16.02-.25.06-.1.04-.22.09-.35.14-.13.04-.28.1-.46.14-.17.04-.37.06-.59.06-.68,0-1.14-.23-1.4-.68-.27-.46-.4-1.12-.4-2.01v-7.2h3.31c.14,0,.26-.08.34-.23.09-.15.13-.41.13-.75,0-.18,0-.33-.03-.46-.02-.12-.05-.22-.09-.3s-.09-.14-.15-.17c-.06-.04-.12-.05-.2-.05h-3.31v-3.07c0-.08-.02-.14-.06-.19-.04-.06-.1-.11-.18-.15-.09-.04-.21-.08-.36-.09-.16-.02-.35-.03-.59-.03s-.42.01-.58.03c-.15,0-.27.05-.36.09s-.15.09-.18.15c-.04.05-.05.11-.05.19v3.07h-1.8c-.07,0-.14,0-.2.05-.07.03-.12.09-.16.17-.04.08-.07.18-.09.3-.03.13-.04.28-.04.46,0,.34.04.6.13.75.08.15.21.23.35.23h1.81v7.54c0,.75.07,1.4.2,1.94.14.55.36,1,.67,1.37.3.35.69.62,1.17.8s1.05.26,1.73.26c.21,0,.43-.01.65-.04.23-.03.43-.06.63-.11.19-.04.37-.09.52-.16s.27-.15.34-.22c.08-.08.14-.2.17-.36.04-.16.06-.38.06-.66,0-.17,0-.31-.03-.42-.02-.12-.04-.22-.06-.28h0Zm14.68-8.58c-.16-.66-.41-1.22-.78-1.72-.36-.48-.84-.87-1.43-1.16s-1.31-.43-2.17-.43c-.69,0-1.39.17-2.08.51-.69.35-1.37.89-2.05,1.61v-7.74c0-.07-.02-.14-.05-.2-.04-.05-.1-.1-.19-.14-.08-.04-.21-.06-.36-.08s-.35-.03-.58-.03-.43.01-.58.03-.27.04-.36.08c-.09.04-.16.09-.2.14-.03.06-.05.13-.05.2v19.16c0,.07.02.14.05.19.04.05.11.11.2.14.09.04.21.07.36.09s.34.03.58.03.43-.01.58-.03.28-.05.36-.09c.09-.03.15-.09.19-.14.03-.05.05-.12.05-.19v-9.02c.66-.81,1.27-1.43,1.87-1.85.59-.42,1.18-.63,1.77-.63.46,0,.87.09,1.21.26.36.17.64.43.86.75.21.32.39.71.5,1.16.12.45.17,1.04.17,1.77v7.56c0,.07.02.14.06.19s.1.11.18.14c.09.04.21.07.36.09.16.02.35.03.59.03s.43-.01.58-.03.27-.05.35-.09c.09-.03.15-.09.19-.14.03-.05.05-.12.05-.19v-7.85c0-.93-.07-1.72-.23-2.38h0Zm15.83.42c-.22-.74-.55-1.39-1.01-1.94s-1.05-.99-1.76-1.31c-.72-.32-1.57-.48-2.59-.48-.95,0-1.8.16-2.56.49-.77.32-1.42.8-1.96,1.42-.54.61-.95,1.36-1.24,2.25-.29.88-.43,1.88-.43,2.98,0,1.18.14,2.2.41,3.08.28.88.69,1.6,1.24,2.19.54.58,1.22,1.02,2.02,1.31.79.3,1.72.45,2.78.45.61,0,1.19-.04,1.73-.13s1.02-.19,1.42-.32c.42-.11.75-.23,1.01-.35.25-.11.42-.2.47-.25s.09-.11.13-.16c.03-.07.05-.13.07-.21.01-.07.02-.15.03-.24,0-.09.02-.19.02-.32,0-.17-.01-.32-.03-.44-.01-.12-.03-.21-.06-.27-.03-.07-.07-.12-.12-.15-.05-.04-.11-.05-.18-.05-.12,0-.29.05-.52.15-.22.1-.51.21-.86.33-.35.12-.77.24-1.24.34-.49.1-1.03.15-1.65.15-.78,0-1.44-.11-1.97-.33-.54-.22-.97-.53-1.32-.95-.33-.41-.57-.9-.71-1.47-.15-.58-.22-1.22-.22-1.94h8.5c.24,0,.45-.07.64-.24.18-.16.28-.42.28-.79v-.43c0-.84-.11-1.64-.32-2.37h0Zm-9.1,2.1c.02-.53.12-1.03.28-1.52.16-.48.39-.9.68-1.26.31-.37.67-.66,1.12-.88.44-.22.96-.32,1.54-.32,1.15,0,2,.35,2.59,1.06.58.69.86,1.68.83,2.92h-7.04,0Zm25.51-10.31s-.11-.1-.2-.14c-.09-.04-.21-.08-.38-.1-.16,0-.36-.02-.58-.02-.25,0-.45.01-.6.02-.16.02-.28.06-.38.1-.09.04-.17.09-.21.14-.04.06-.05.12-.05.19v13.27c0,.62-.04,1.12-.12,1.51-.07.39-.19.7-.34.91-.15.22-.35.37-.58.45-.22.08-.5.13-.83.13-.29,0-.55-.04-.76-.11-.23-.08-.42-.15-.59-.24-.16-.08-.3-.16-.43-.23-.12-.07-.22-.11-.29-.11-.08,0-.14.02-.2.05-.05.03-.09.09-.13.17-.04.08-.06.19-.08.33-.01.14-.02.32-.02.52v.44c.01.13.03.22.05.31.03.08.06.14.09.2s.08.11.13.17.15.13.32.21c.16.08.36.16.57.23.22.07.46.13.73.17.26.05.52.07.8.07.77,0,1.43-.12,1.97-.36.52-.23.95-.56,1.28-1,.32-.42.55-.95.69-1.55.13-.62.2-1.29.2-2.02v-13.52c0-.07-.03-.13-.07-.19h0Zm16.87,8.52c-.26-.87-.66-1.6-1.18-2.19-.53-.61-1.18-1.07-1.97-1.39-.79-.31-1.71-.46-2.77-.46s-2.06.17-2.88.52c-.83.36-1.51.85-2.07,1.5-.54.63-.96,1.39-1.23,2.28-.27.88-.4,1.85-.4,2.9s.13,2.07.38,2.93c.26.85.65,1.59,1.17,2.19.53.61,1.19,1.06,1.97,1.37.79.33,1.72.48,2.79.48s2.04-.18,2.87-.54c.82-.35,1.51-.86,2.06-1.49.55-.65.97-1.41,1.24-2.29.27-.89.42-1.86.42-2.91s-.14-2.04-.4-2.9h0Zm-2.28,5.11c-.16.62-.4,1.16-.73,1.61-.32.45-.75.8-1.25,1.04-.52.26-1.12.38-1.81.38-.77,0-1.4-.13-1.91-.41-.52-.27-.92-.64-1.23-1.11-.3-.45-.51-1-.64-1.63-.14-.61-.21-1.28-.21-1.99s.08-1.41.25-2.03c.16-.62.4-1.16.72-1.62.34-.44.75-.8,1.26-1.05.5-.24,1.11-.37,1.82-.37.76,0,1.39.14,1.9.41.51.27.92.64,1.22,1.11.29.47.51,1.01.64,1.63.13.63.2,1.28.2,1.98,0,.75-.08,1.43-.23,2.05h0Zm18.34-4.9c-.2-.84-.5-1.58-.91-2.2-.42-.63-.96-1.12-1.62-1.5-.67-.37-1.47-.55-2.41-.55-.38,0-.75.03-1.09.11s-.69.2-1.03.36c-.34.17-.7.38-1.05.66-.37.26-.73.59-1.11.99v-7.74c0-.07-.02-.14-.06-.2-.05-.05-.11-.1-.19-.14-.09-.04-.21-.06-.36-.08s-.34-.03-.59-.03c-.22,0-.41.01-.57.03-.15.02-.28.04-.37.08-.09.04-.15.09-.18.14-.03.06-.05.13-.05.2v19.16c0,.07.01.14.04.2.03.05.09.11.17.14.09.03.2.06.34.08.13.02.29.03.48.03.2,0,.37-.01.5-.03s.23-.05.32-.08c.08-.03.14-.09.18-.14.04-.06.06-.13.06-.2v-1.58c.38.4.73.73,1.06,1.01.34.27.67.5,1.01.68.33.19.67.32,1.03.4.34.08.72.12,1.13.12.89,0,1.68-.16,2.36-.5.69-.34,1.28-.82,1.75-1.45s.83-1.39,1.07-2.29c.25-.89.37-1.9.37-3.01,0-.94-.09-1.83-.28-2.67h0Zm-2.35,4.72c-.12.59-.31,1.12-.58,1.6-.26.46-.6.85-1.03,1.13-.42.3-.94.44-1.53.44-.64,0-1.27-.22-1.86-.63-.6-.41-1.22-1.02-1.87-1.81v-5.15c.37-.48.72-.87,1.06-1.19.33-.31.64-.57.96-.78.3-.2.6-.34.91-.42.29-.09.59-.13.9-.13.61,0,1.13.14,1.54.43.42.3.75.68,1,1.15.25.49.43,1.04.53,1.66s.15,1.26.15,1.92c0,.6-.06,1.2-.18,1.78h0Zm34.35-13.02c-.06-.13-.13-.25-.22-.34s-.2-.15-.33-.19c-.14-.05-.28-.07-.42-.07h-1.59c-.24,0-.46.03-.64.08-.19.05-.36.14-.5.25-.15.12-.29.28-.42.48-.12.21-.25.45-.35.73l-5.52,13.4h-.07l-5.3-13.44c-.1-.25-.2-.48-.31-.68-.12-.18-.26-.34-.43-.46-.18-.13-.39-.22-.62-.27-.23-.06-.5-.09-.82-.09h-1.5c-.27,0-.51.09-.72.26s-.33.45-.33.86v17.05c0,.08.02.15.07.2.03.06.09.11.19.15.09.03.21.06.37.08.15.03.35.04.59.04s.45-.01.6-.04c.17-.02.29-.05.39-.08.1-.04.17-.09.21-.15.03-.05.05-.12.05-.2v-16.15h.02l6.25,16.22c.02.06.06.11.11.16s.12.1.22.13c.09.03.21.06.36.08.14.02.31.03.51.03s.36-.01.5-.02c.14-.02.26-.04.36-.07.1-.04.17-.09.22-.14.06-.04.1-.1.12-.17l6.55-16.22h.03v16.15c0,.08.02.15.06.2.04.06.1.11.19.15.1.03.22.06.38.08.16.03.37.04.59.04.24,0,.44-.01.6-.04.15-.02.28-.05.38-.08.09-.04.16-.09.2-.15.04-.05.06-.12.06-.2v-17.05c0-.2-.03-.38-.09-.52h0Zm14.78,6.8c-.18-.61-.47-1.12-.87-1.52-.4-.41-.93-.71-1.58-.92s-1.44-.31-2.36-.31c-.5,0-.99.04-1.48.13-.48.09-.94.2-1.35.34-.41.14-.77.29-1.08.47-.33.16-.55.3-.67.43-.13.12-.21.25-.24.39-.04.15-.05.33-.05.57,0,.14.01.27.02.4.02.12.05.21.1.29.04.07.09.13.15.17.05.04.12.06.19.06.12,0,.29-.07.53-.21.23-.14.52-.29.88-.46.34-.17.74-.32,1.21-.46.46-.13.99-.2,1.58-.2.53,0,1,.06,1.37.19.38.13.68.31.91.57s.41.57.51.95c.1.39.16.82.16,1.32v1.01h-1.78c-1,0-1.91.08-2.71.26-.81.17-1.49.45-2.04.8-.55.36-.98.79-1.28,1.33-.29.53-.44,1.17-.44,1.9,0,.61.11,1.17.32,1.65.22.49.52.9.9,1.24.4.33.86.58,1.41.77.55.17,1.17.26,1.85.26.77,0,1.5-.16,2.19-.5.7-.34,1.33-.81,1.89-1.4v1.28c0,.12.03.2.1.26.06.06.18.11.33.13.14.03.34.05.59.05s.45-.02.59-.05c.13-.02.23-.07.31-.13.07-.06.11-.14.11-.26v-8.7c0-.8-.09-1.51-.27-2.1h0Zm-2.07,7.65c-.59.64-1.14,1.13-1.68,1.44-.52.33-1.1.48-1.72.48-.77,0-1.36-.19-1.79-.6-.42-.39-.63-.93-.63-1.59,0-.39.07-.74.22-1.05.15-.29.37-.55.7-.76.31-.22.7-.38,1.18-.49.48-.11,1.04-.17,1.7-.17h2.02v2.74Zm14.81-9.44c0-.13-.01-.23-.03-.3,0-.06-.03-.12-.05-.16s-.05-.09-.11-.13c-.06-.05-.15-.1-.3-.15-.14-.04-.29-.09-.46-.12-.17-.04-.33-.07-.5-.08-.16-.02-.3-.02-.42-.02-.27,0-.55.03-.82.1s-.56.2-.83.39c-.27.18-.57.44-.88.76-.31.33-.65.75-1,1.26v-1.88c0-.07,0-.13-.05-.19-.03-.05-.08-.1-.16-.14-.08-.04-.18-.07-.33-.08-.14-.02-.31-.03-.52-.03s-.4.01-.53.03c-.13.01-.24.04-.33.08-.08.04-.14.09-.17.14-.03.06-.04.12-.04.19v12.91c0,.07.02.14.05.19s.09.11.18.14c.09.04.21.07.37.09s.35.03.57.03c.24,0,.43-.01.59-.03s.27-.05.36-.09c.08-.03.15-.09.18-.14.04-.05.06-.12.06-.19v-8.49c.34-.53.64-.97.92-1.33.28-.37.54-.65.79-.87.25-.23.5-.38.73-.48.23-.09.46-.14.71-.14.19,0,.38.02.55.06.17.03.33.07.47.12.14.04.26.08.37.12.11.05.2.07.28.07s.14-.02.18-.07c.04-.04.08-.1.11-.18s.05-.19.06-.33c0-.15.01-.33.01-.54s0-.39-.01-.52h0Zm13.81,12.29c-.05-.1-.14-.23-.26-.4l-5.25-6.81,4.67-4.67c.14-.15.24-.29.3-.4.07-.12.1-.24.1-.35,0-.08-.02-.15-.07-.21-.04-.05-.11-.09-.21-.12-.1-.04-.23-.06-.39-.07-.17-.02-.37-.03-.61-.03-.22,0-.42.01-.59.03-.16.01-.3.04-.42.08-.11.04-.22.1-.3.16-.1.06-.18.14-.25.23l-4.87,5.37v-11.68c0-.07-.02-.14-.06-.2-.04-.05-.1-.1-.18-.14-.09-.04-.21-.06-.37-.08-.15-.02-.34-.03-.58-.03s-.43.01-.58.03-.27.04-.36.08c-.09.04-.15.09-.18.14-.05.06-.06.13-.06.2v19.16c0,.07.01.14.06.19.03.05.09.11.18.14.09.04.21.07.36.09s.34.03.58.03.43-.01.58-.03c.16-.02.28-.05.37-.09.08-.03.14-.09.18-.14.04-.05.06-.12.06-.19v-7.16l5.45,7.14c.05.09.12.16.19.22s.16.12.27.16c.13.03.27.05.43.07.17.01.38.02.64.02s.45-.01.61-.03c.16-.02.3-.05.39-.09.09-.03.15-.09.19-.15.04-.05.06-.12.06-.2s-.03-.17-.08-.27h0Zm13.16-9.52c-.22-.74-.56-1.39-1.01-1.94-.47-.55-1.05-.99-1.76-1.31-.71-.32-1.58-.48-2.59-.48-.95,0-1.8.16-2.57.49-.76.32-1.41.8-1.95,1.42-.54.61-.96,1.36-1.24,2.25-.28.88-.43,1.88-.43,2.98,0,1.18.14,2.2.41,3.08.28.88.7,1.6,1.23,2.19.55.58,1.23,1.02,2.03,1.31.79.3,1.72.45,2.78.45.61,0,1.19-.04,1.72-.13.55-.09,1.03-.19,1.43-.32.41-.11.75-.23,1.01-.35.25-.11.41-.2.47-.25.05-.05.09-.11.13-.16.03-.07.05-.13.07-.21.01-.07.02-.15.03-.24s.02-.19.02-.32c0-.17-.01-.32-.03-.44,0-.12-.03-.21-.06-.27-.03-.07-.07-.12-.12-.15-.05-.04-.12-.05-.19-.05-.11,0-.28.05-.5.15-.23.1-.52.21-.87.33s-.77.24-1.24.34c-.49.1-1.04.15-1.65.15-.78,0-1.44-.11-1.97-.33-.54-.22-.97-.53-1.32-.95-.33-.41-.57-.9-.72-1.47-.14-.58-.21-1.22-.21-1.94h8.49c.25,0,.46-.07.65-.24.18-.16.28-.42.28-.79v-.43c0-.84-.11-1.64-.32-2.37Zm-9.1,2.1c.02-.53.11-1.03.28-1.52.16-.48.39-.9.68-1.26.31-.37.68-.66,1.11-.88.45-.22.96-.32,1.55-.32,1.14,0,2.01.35,2.59,1.06.59.69.86,1.68.83,2.92h-7.04,0Zm20.06,6.06c-.02-.07-.05-.11-.1-.14-.04-.02-.08-.03-.13-.03-.08,0-.17.02-.27.06-.09.04-.2.09-.34.14-.13.04-.28.1-.46.14-.17.04-.36.06-.58.06-.68,0-1.15-.23-1.42-.68-.26-.46-.39-1.12-.39-2.01v-7.2h3.31c.15,0,.26-.08.35-.23.08-.15.13-.41.13-.75,0-.18-.01-.33-.03-.46-.02-.12-.05-.22-.09-.3-.05-.08-.1-.14-.15-.17-.06-.04-.13-.05-.21-.05h-3.31v-3.07c0-.08-.02-.14-.05-.19-.04-.06-.1-.11-.19-.15-.08-.04-.21-.08-.36-.09-.15-.02-.35-.03-.58-.03s-.43.01-.58.03c-.15,0-.27.05-.36.09s-.16.09-.2.15c-.03.05-.05.11-.05.19v3.07h-1.79c-.08,0-.14,0-.21.05-.06.03-.11.09-.14.17-.04.08-.07.18-.1.3-.02.13-.03.28-.03.46,0,.34.04.6.13.75.08.15.19.23.34.23h1.8v7.54c0,.75.07,1.4.22,1.94.14.55.35,1,.66,1.37.31.35.7.62,1.18.8.47.18,1.05.26,1.71.26.23,0,.45-.01.66-.04.22-.03.44-.06.63-.11.2-.04.37-.09.52-.16.16-.07.27-.15.35-.22.07-.08.13-.2.17-.36.04-.16.06-.38.06-.66,0-.17-.01-.31-.03-.42-.02-.12-.04-.22-.07-.28h0Z"/></g></g></g></svg>