<?xml version="1.0" encoding="UTF-8"?><svg id="Layer_1" xmlns="http://www.w3.org/2000/svg" xmlns:xlink="http://www.w3.org/1999/xlink" viewBox="0 0 682.66 140.33"><defs><style>.cls-1{fill:url(#linear-gradient-2);}.cls-2{fill:#fff;}.cls-3{fill:url(#linear-gradient-6);}.cls-4{fill:url(#linear-gradient-11);}.cls-5{filter:url(#drop-shadow-1);}.cls-6{fill:url(#linear-gradient-10);}.cls-7{fill:url(#linear-gradient-5);}.cls-8{fill:url(#linear-gradient-7);}.cls-9{fill:url(#linear-gradient-9);}.cls-10{fill:url(#linear-gradient-3);}.cls-11{fill:url(#linear-gradient);}.cls-12{fill:url(#linear-gradient-4);}.cls-13{fill:url(#linear-gradient-8);}</style><linearGradient id="linear-gradient" x1="895.08" y1="372.99" x2="904.48" y2="427.96" gradientTransform="translate(1076.85 -358) rotate(-180) scale(1 -1)" gradientUnits="userSpaceOnUse"><stop offset="0" stop-color="#faaf3a"/><stop offset="1" stop-color="#f05a26"/></linearGradient><linearGradient id="linear-gradient-2" x1="876.59" y1="369.1" x2="887.34" y2="431.96" gradientTransform="translate(1076.85 -358) rotate(-180) scale(1 -1)" gradientUnits="userSpaceOnUse"><stop offset="0" stop-color="#faaf3a"/><stop offset="1" stop-color="#f05a26"/></linearGradient><linearGradient id="linear-gradient-3" x1="884.36" y1="365.67" x2="895.44" y2="430.44" gradientTransform="translate(1076.85 -358) rotate(-180) scale(1 -1)" gradientUnits="userSpaceOnUse"><stop offset="0" stop-color="#faaf3a"/><stop offset="1" stop-color="#f05a26"/></linearGradient><linearGradient id="linear-gradient-4" x1="915.26" y1="401.76" x2="889.9" y2="425.63" gradientTransform="translate(1076.85 -358) rotate(-180) scale(1 -1)" gradientUnits="userSpaceOnUse"><stop offset="0" stop-color="#faaf3a"/><stop offset="1" stop-color="#f05a26"/></linearGradient><linearGradient id="linear-gradient-5" x1="915.85" y1="400.62" x2="889.02" y2="425.88" gradientTransform="translate(1076.85 -358) rotate(-180) scale(1 -1)" gradientUnits="userSpaceOnUse"><stop offset="0" stop-color="#faaf3a"/><stop offset="1" stop-color="#f05a26"/></linearGradient><linearGradient id="linear-gradient-6" x1="929.84" y1="408.56" x2="900.44" y2="436.23" gradientTransform="translate(1076.85 -358) rotate(-180) scale(1 -1)" gradientUnits="userSpaceOnUse"><stop offset="0" stop-color="#faaf3a"/><stop offset="1" stop-color="#f05a26"/></linearGradient><linearGradient id="linear-gradient-7" x1="982.39" y1="355.66" x2="1008.71" y2="469.74" gradientTransform="translate(1076.85 -358) rotate(-180) scale(1 -1)" gradientUnits="userSpaceOnUse"><stop offset="0" stop-color="#faac18"/><stop offset="1" stop-color="#ef4e23"/></linearGradient><linearGradient id="linear-gradient-8" x1="1084.29" y1="362.14" x2="948.11" y2="473.12" gradientTransform="translate(1076.85 -358) rotate(-180) scale(1 -1)" gradientUnits="userSpaceOnUse"><stop offset="0" stop-color="#faac18"/><stop offset="1" stop-color="#ef4e23"/></linearGradient><linearGradient id="linear-gradient-9" x1="1015.48" y1="438.43" x2="942.78" y2="339.68" gradientTransform="translate(1076.85 -358) rotate(-180) scale(1 -1)" gradientUnits="userSpaceOnUse"><stop offset="0" stop-color="#faac18"/><stop offset="1" stop-color="#ef4e23"/></linearGradient><linearGradient id="linear-gradient-10" x1="55.46" y1="403.42" x2="88.2" y2="600.48" gradientTransform="translate(0 -358)" gradientUnits="userSpaceOnUse"><stop offset="0" stop-color="#faaf3a"/><stop offset="1" stop-color="#f05a26"/></linearGradient><filter id="drop-shadow-1" filterUnits="userSpaceOnUse"><feOffset dx="2" dy="2"/><feGaussianBlur result="blur" stdDeviation="4"/><feFlood flood-color="#000" flood-opacity=".75"/><feComposite in2="blur" operator="in"/><feComposite in="SourceGraphic"/></filter><linearGradient id="linear-gradient-11" x1="439.73" y1="420.88" x2="455.42" y2="515.3" gradientTransform="translate(0 -358)" gradientUnits="userSpaceOnUse"><stop offset="0" stop-color="#faaf3a"/><stop offset="1" stop-color="#f05a26"/></linearGradient></defs><g id="Layer_1-2"><g><g><g><rect class="cls-11" x="166.06" y="47.42" width="17.58" height="16.05"/><rect class="cls-1" x="183.63" y="63.47" width="12.99" height="13.76"/><rect class="cls-10" x="175.99" y="77.23" width="7.64" height="9.17"/><rect class="cls-12" x="167.58" y="49.72" width="15.29" height="13.76"/><rect class="cls-7" x="186.69" y="65" width="9.17" height="12.23"/><rect class="cls-3" x="176.76" y="78" width="6.11" height="6.88"/></g><g><path class="cls-8" d="m153.83,38.25c1.05-9.19-5.1-16.96-14.71-16.81h-33.44v-12.69c0-4.74-4.23-8.13-8.92-8.64-.09-.02-.18-.03-.27-.03-.32-.03-.64-.04-.96-.04h-33.89c-.28,0-.56-.02-.83-.02h-.15c-12.33.11-8.76,13.52-9.25,21.42H13.71c-6.25,0-10.29,3.22-11.92,8.34v.04c-.08.24-.15.49-.21.74-.16.57-.28,1.16-.37,1.78-.15,1-.23,2.05-.23,3.15.05,11.66-.06,21.83-.19,30.69-.2,15.03-.46,26.32-.05,34.76.04.78.09,1.54.14,2.27.59,8.6,2.04,13.94,5.27,17.17,1.56,1.57,3.53,2.64,6.02,3.35h.02c7.41,2.1,19.4,1,38.67.12,6.24-.29,13.25-.55,21.11-.67,1.45-.03,2.93-.05,4.43-.06,3.23-.02,6.59-.02,10.1,0,7.59.07,15.84.29,24.81.73l20.05,16.48-.71-16.48c11.6,1.18,22.73-1.98,23.19-15.7v-53.08h-17.58v12.99h-12.23v-12.99h-7.64v-5.35h7.64v5.35h12.23v-16.82h17.58,0Zm-16.05,74.14h-20.64v-31.34h20.64v31.34ZM90.06,6.92c2.83,0,6.12-.07,7.41,1.64.36.47.56,1.08.56,1.86v11.02h-37.45v-11.02c0-3.62.06-3.5,3.67-3.5h25.81Zm23.26,105.47h-20.64v-47.39h20.64v47.39Zm-48.92-67.26v67.26h-20.63V45.13s20.63,0,20.63,0Zm-45.09,35.92h19.11v31.34h-19.11v-31.34Zm48.92-5.35h20.63v36.69h-20.63v-36.69Z"/><path class="cls-13" d="m123.79,54.46h10.66v-17.76h17.76c.52-8.03-4.92-14.28-13.17-14.2h-35.37c-.31-6.67,2.34-21-6.91-22.39-.09-.02-.18-.03-.27-.03-.33-.05-.67-.07-1.03-.08h-33.9c-.26,0-.51,0-.75.02h-.15c-12.42.61-8.44,14.61-9.08,22.48-16.04-.32-27.2-.69-34.91,0-8.76.78-13.09,2.93-15.1,8.06-.2.5-.38,1.04-.53,1.6-1.79,6.5-.85,17.05-.26,34.02.2,5.57.36,11.84.38,18.88,0,5.55-.07,11.59-.29,18.15-.03.79-.05,1.58-.09,2.38-.03.84-.06,1.7-.1,2.56,0,2.58.64,5.23,1.82,7.57.9,1.79,2.13,3.4,3.64,4.66,2.02,1.69,4.55,2.74,7.49,2.74h98.02l18.33,15.06-.65-15.06c12.16.88,22.09-.71,22.88-14.97v-51.32h-15.39v13.02h-15.39v-13.02h-8.29v-10.66h10.65s0,8.29,0,8.29ZM57.5,10.42c-.02-4.9,3.5-4.5,6.68-4.5h27.3c3.03,0,5.25.49,5.99,2.64.19.52.28,1.13.28,1.86v12.08h-40.25s0-12.08,0-12.08Zm-19.08,101.97h-19.11v-31.34h19.11v31.34Zm25.98,0h-20.63V45.13h20.63v67.26Zm3.83,0v-36.69h20.63v36.69h-20.63Zm69.55-31.34v31.34h-20.64v-31.34h20.64Zm-24.46-16.05v47.39h-20.64v-47.39h20.64Z"/><path class="cls-9" d="m123.79,54.46h10.66v-17.76h17.76c.52-8.03-4.92-14.28-13.17-14.2h-35.37c-.31-6.67,2.34-21-6.91-22.39-.09-.02-.18-.03-.27-.03-.33-.05-.67-.07-1.03-.08h-33.9c-.26,0-.51,0-.75.02h-.15c-12.42.61-8.44,14.61-9.08,22.48H13.63c-5.5-.03-9.87,2.78-11.84,7.28v.04c-.32.73-.58,1.5-.76,2.32l.02.02c.05.06.11.12.16.18,8.72,9.37,18.37,17.43,28.73,24.28,4.49,2.97,9.11,5.72,13.84,8.25v-19.74h20.63v29.14c.6.24,1.21.47,1.81.69.67.25,1.34.5,2.02.74h20.63v6.26c1.27.31,2.54.62,3.82.91v-17.87h20.64v21.65c1.27.18,2.55.35,3.82.5v-6.1h20.64v7.81c4.8.22,9.62.3,14.43.27v-32.3h-15.39v13.02h-15.39v-13.02h-8.29v-10.66h10.65v8.29h0Zm-26.04-31.96h-40.25v-12.08c-.02-4.9,3.5-4.5,6.68-4.5h27.3c3.03,0,5.25.49,5.99,2.64.19.52.28,1.13.28,1.86,0,0,0,12.08,0,12.08Z"/><path class="cls-6" d="m117.14,112.39v-31.34h-.37l-3.45,3.79v27.55h-20.64v-47.39h-.77l-6.57,10.7h3.52v36.69h-20.63v-36.69h5.51l-6.69-1.14-.84.4-1.81.85v36.58h-20.63V45.67l-.88-1.87-12.96,12.82L1.16,85.06l-.19.18c.35,3.99-.16,9.8-.24,15.7-.02,1.55,0,3.11.05,4.65.16,3.66.63,7.18,1.72,10.13,1.58,4.27,4.48,7.36,9.66,8.01h.02c.75.09,1.55.13,2.39.12h53.66l3.73-.67.31-.06,59.37-10.73h-14.5Zm-97.83-31.34h19.11v31.34h-19.11v-31.34Z"/></g></g><g><g class="cls-5"><path class="cls-2" d="m280.95,28.29l-12.74,38.71-12.48-38.71h-11.72l-12.89,38.42-12.33-38.42h-13.12l17.96,54.67h13.52l12.39-37.06,12.12,37.06h13.44l17.96-54.67h-12.11Z"/><path class="cls-2" d="m342.02,50.74c-1.99-3.25-4.72-5.8-8.2-7.65-3.49-1.85-7.47-2.77-11.95-2.77s-8.37.93-11.83,2.77c-3.46,1.86-6.18,4.4-8.15,7.65-1.99,3.26-2.97,6.99-2.97,11.21s.99,7.87,2.97,11.13c1.98,3.25,4.69,5.82,8.15,7.69s7.41,2.81,11.83,2.81,8.46-.94,11.95-2.81c3.48-1.88,6.22-4.42,8.2-7.65,1.98-3.22,2.96-6.95,2.96-11.16s-.99-7.95-2.96-11.21h0Zm-10.82,17.45c-.97,1.77-2.24,3.11-3.83,4.02s-3.42,1.37-5.51,1.37c-1.98,0-3.77-.46-5.39-1.37s-2.9-2.25-3.86-4.02c-.97-1.77-1.45-3.85-1.45-6.25s.48-4.53,1.45-6.26c.96-1.72,2.24-3.02,3.86-3.94,1.62-.91,3.44-1.37,5.47-1.37s3.84.46,5.43,1.37c1.59.92,2.86,2.23,3.83,3.94.96,1.73,1.45,3.8,1.45,6.26s-.49,4.48-1.45,6.25h0Z"/><path class="cls-2" d="m370.68,42.62c-1.78.99-3.24,2.27-4.38,3.85v-5.53h-11.63v42.02h12.18v-19.84c0-4.01,1.02-6.97,3.04-8.9,2.04-1.93,4.77-2.89,8.2-2.89.42,0,.85.03,1.29.08.45.05.9.13,1.37.23v-11.32c-3.95,0-7.31.78-10.07,2.3h0Z"/><path class="cls-2" d="m389.89,25.01v57.95h12.18V25.01h-12.18Zm29.99,15.93l-17.81,16.81-1.8,1.7-.31,14.92,2.11-2.06,5.92-5.77,1.27-1.24,6.33-5.23,1.33-1.35,17.5-17.79h-14.54Zm-2.97,17.8l-2.25-2.87-7.66,9.45,1,1.24,13.22,16.41h14.76l-19.06-24.23h-.01Z"/><path class="cls-2" d="m488.93,59.88c-1.18-1.9-2.69-3.4-4.57-4.53-1.88-1.12-3.93-2.04-6.18-2.77-2.23-.73-4.5-1.34-6.79-1.84-2.28-.49-4.37-.99-6.25-1.48-1.88-.5-3.38-1.19-4.53-2.08-1.15-.88-1.72-2.06-1.72-3.51,0-1.15.35-2.19,1.06-3.12.7-.94,1.81-1.68,3.31-2.23,1.52-.55,3.51-.82,6.02-.82s4.89.35,7.49,1.05c2.6.71,5.13,1.76,7.58,3.16l3.98-9.53c-2.5-1.56-5.43-2.75-8.79-3.59-3.35-.83-6.75-1.25-10.19-1.25-5.16,0-9.44.77-12.85,2.3-3.41,1.54-5.95,3.59-7.61,6.17-1.67,2.58-2.49,5.43-2.49,8.56,0,2.86.55,5.24,1.68,7.14,1.12,1.9,2.62,3.43,4.53,4.61,1.9,1.17,3.98,2.11,6.25,2.8,2.26.71,4.52,1.31,6.75,1.8,2.23.5,4.31,1.02,6.21,1.57,1.91.55,3.42,1.25,4.57,2.11,1.15.86,1.72,2.03,1.72,3.48,0,1.14-.36,2.15-1.09,3s-1.87,1.55-3.4,2.07c-1.54.53-3.55.79-6.05.79-3.28,0-6.54-.54-9.77-1.61-3.22-1.07-5.99-2.43-8.27-4.1l-4.3,9.53c2.44,1.88,5.69,3.4,9.73,4.57,4.03,1.18,8.23,1.76,12.61,1.76,5.15,0,9.45-.78,12.88-2.34,3.44-1.56,6.01-3.61,7.69-6.17,1.7-2.55,2.54-5.36,2.54-8.43,0-2.81-.59-5.17-1.76-7.07h0Z"/><path class="cls-2" d="m525.52,72.22c-1.62.91-3.39,1.37-5.32,1.37-2.03,0-3.87-.46-5.54-1.37s-2.99-2.23-3.98-3.98c-1-1.75-1.49-3.84-1.49-6.29s.49-4.53,1.49-6.26c.99-1.72,2.31-3.02,3.98-3.94,1.67-.91,3.51-1.37,5.54-1.37s3.7.46,5.32,1.37c1.61.92,2.99,2.35,4.14,4.34l9.37-5.16c-1.46-3.38-3.84-6-7.14-7.85-3.31-1.85-7.17-2.77-11.6-2.77s-8.55.94-12.06,2.81-6.28,4.43-8.28,7.65c-2.01,3.23-3,6.95-3,11.17s1,7.88,3,11.16c2.01,3.28,4.77,5.85,8.28,7.69,3.51,1.85,7.53,2.77,12.06,2.77s8.29-.94,11.6-2.81c3.3-1.88,5.69-4.48,7.14-7.81l-9.37-5.15c-1.15,2.03-2.53,3.5-4.14,4.41v.02Z"/><path class="cls-2" d="m587.84,50.74c-1.98-3.25-4.71-5.8-8.2-7.65-3.49-1.85-7.47-2.77-11.94-2.77s-8.37.93-11.83,2.77c-3.46,1.86-6.19,4.4-8.16,7.65-1.99,3.26-2.97,6.99-2.97,11.21s.99,7.87,2.97,11.13c1.98,3.25,4.7,5.82,8.16,7.69s7.4,2.81,11.83,2.81,8.45-.94,11.94-2.81,6.23-4.42,8.2-7.65c1.98-3.22,2.96-6.95,2.96-11.16s-.99-7.95-2.96-11.21h0Zm-10.82,17.45c-.97,1.77-2.24,3.11-3.83,4.02s-3.42,1.37-5.5,1.37-3.78-.46-5.4-1.37c-1.61-.91-2.9-2.25-3.86-4.02-.97-1.77-1.45-3.85-1.45-6.25s.48-4.53,1.45-6.26c.96-1.72,2.25-3.02,3.86-3.94,1.62-.91,3.44-1.37,5.47-1.37s3.84.46,5.43,1.37c1.59.92,2.86,2.23,3.83,3.94.96,1.73,1.45,3.8,1.45,6.26s-.49,4.48-1.45,6.25h0Z"/><path class="cls-2" d="m630.71,40.94v20.85c0,2.5-.43,4.58-1.29,6.25s-2.02,2.92-3.47,3.75c-1.46.84-3.12,1.25-5,1.25-2.7,0-4.8-.82-6.29-2.45-1.49-1.65-2.22-4.23-2.22-7.77v-21.87h-12.18v23.75c0,4.27.75,7.8,2.26,10.62,1.51,2.81,3.61,4.9,6.33,6.25,2.7,1.36,5.83,2.04,9.37,2.04,3.22,0,6.2-.74,8.9-2.23,1.61-.88,2.99-2.01,4.14-3.39v4.99h11.56v-42.02h-12.11v-.02Z"/><path class="cls-2" d="m650.63,41.88v9.37h29.13v-9.37h-29.13Zm28.83,30.46c-1.36,1.04-3.02,1.56-5,1.56-1.57,0-2.8-.49-3.71-1.48-.92-.99-1.37-2.37-1.37-4.14V31.65h-12.26v36.86c0,5,1.38,8.76,4.14,11.28,2.75,2.52,6.61,3.79,11.55,3.79,1.88,0,3.68-.22,5.43-.67,1.75-.44,3.21-1.1,4.42-1.99l-3.2-8.59h0Z"/></g><path class="cls-4" d="m227.17,100.61s-.1-.1-.2-.13c-.1-.04-.24-.07-.41-.1-.16-.02-.36-.03-.6-.03-.26,0-.46,0-.62.03-.15.04-.29.07-.38.1-.1.03-.18.09-.22.13-.04.07-.05.12-.05.21v7.68h-8.74v-7.68c0-.09-.02-.14-.05-.21-.04-.05-.11-.1-.21-.13-.1-.04-.23-.07-.41-.1-.15-.02-.36-.03-.61-.03-.23,0-.45,0-.61.03-.16.04-.3.07-.39.1-.1.03-.16.09-.21.13-.04.07-.08.12-.08.21v18.41c0,.09.03.15.08.21.04.07.1.11.21.15.09.03.23.07.39.09.16.03.38.04.61.04.25,0,.46,0,.61-.04.18-.02.3-.05.41-.09.09-.04.16-.09.21-.15.03-.05.05-.12.05-.21v-8.51h8.74v8.51c0,.09,0,.15.05.21.04.07.11.11.22.15.09.03.23.07.38.09.15.03.36.04.62.04.24,0,.44,0,.6-.04.16-.02.3-.05.41-.09.09-.04.16-.09.2-.15.04-.05.07-.12.07-.21v-18.41c0-.09-.02-.14-.07-.21Zm16.53,8.49c-.22-.77-.56-1.44-1.04-2.01-.46-.57-1.07-1.02-1.82-1.36-.73-.33-1.62-.49-2.66-.49-.99,0-1.87.16-2.64.5-.8.33-1.47.82-2.04,1.47-.55.64-.99,1.4-1.28,2.32-.29.91-.44,1.94-.44,3.08,0,1.22.14,2.28.43,3.19.27.91.71,1.66,1.27,2.27.57.6,1.26,1.05,2.09,1.36.82.31,1.79.46,2.88.46.64,0,1.23-.04,1.79-.13.55-.09,1.04-.2,1.47-.33.44-.11.78-.24,1.03-.36.27-.11.44-.21.48-.26.07-.05.1-.11.13-.16.03-.08.07-.13.08-.22.02-.08.03-.15.04-.25s0-.2,0-.33c0-.18,0-.33-.02-.46s-.04-.22-.07-.27c-.03-.08-.08-.12-.12-.15-.07-.04-.12-.05-.19-.05-.13,0-.31.05-.54.15s-.54.22-.89.34c-.36.12-.8.25-1.29.35s-1.05.15-1.7.15c-.81,0-1.49-.11-2.04-.34-.57-.23-1.01-.55-1.37-.99-.34-.43-.59-.93-.73-1.52-.16-.6-.24-1.26-.24-2.01h8.8c.25,0,.46-.08.65-.25.2-.16.3-.44.3-.82v-.45c0-.87-.12-1.7-.34-2.46h0Zm-9.41,2.17c.02-.55.11-1.06.29-1.57.18-.49.42-.93.71-1.3.31-.38.69-.68,1.16-.91.46-.23,1-.33,1.59-.33,1.18,0,2.07.36,2.68,1.1.6.71.89,1.73.86,3.02h-7.3Zm16.47-12.06s-.1-.1-.2-.14-.21-.07-.36-.09c-.16-.02-.36-.03-.62-.03-.23,0-.43,0-.58.03s-.29.04-.39.09c-.09.04-.15.09-.19.14-.03.07-.05.13-.05.21v19.81c0,.08.02.14.05.2s.1.11.19.14c.1.04.24.08.39.09s.35.03.58.03c.26,0,.46,0,.62-.03.15-.02.27-.05.36-.09.09-.03.15-.09.2-.14s.07-.12.07-.2v-19.81c0-.08-.02-.14-.07-.21Zm17.17,10.39c-.2-.87-.5-1.63-.93-2.28-.45-.65-1-1.17-1.68-1.55-.68-.37-1.51-.56-2.48-.56-.44,0-.87.05-1.26.15-.41.09-.8.25-1.17.45-.38.21-.77.46-1.15.78-.37.3-.76.66-1.17,1.07v-1.8c0-.09,0-.15-.05-.21-.03-.05-.09-.1-.18-.14-.09-.03-.2-.07-.33-.08-.14-.02-.31-.03-.52-.03s-.36,0-.49.03c-.15,0-.26.04-.35.08-.09.04-.14.09-.18.14s-.04.12-.04.21v18.65c0,.09,0,.14.05.21.03.07.09.1.19.14s.22.08.38.09c.15,0,.35.02.59.02s.46,0,.61-.02c.15-.02.27-.05.37-.09.09-.04.14-.09.19-.14s.08-.12.08-.21v-6.67c.35.34.68.64,1,.9.31.26.64.46.96.64.31.18.64.3.99.38.33.08.69.11,1.1.11.93,0,1.75-.18,2.47-.53.72-.35,1.34-.84,1.82-1.49.48-.65.86-1.45,1.11-2.38.26-.92.38-1.97.38-3.14,0-.98-.09-1.9-.3-2.75h0v.02Zm-2.43,4.88c-.12.62-.33,1.17-.61,1.67-.27.48-.62.89-1.07,1.18-.44.31-.98.46-1.58.46-.66,0-1.3-.23-1.91-.66-.61-.43-1.26-1.05-1.92-1.89v-5.31c.38-.48.75-.89,1.1-1.22s.67-.6,1-.81c.31-.2.62-.35.94-.45.3-.09.61-.13.94-.13.64,0,1.17.14,1.58.45.44.3.78.69,1.02,1.18.26.49.44,1.06.54,1.7.1.64.15,1.3.15,1.98,0,.62-.07,1.24-.19,1.85v.02Zm9.42-14.52c-.21-.2-.61-.3-1.18-.3s-.99.1-1.2.31c-.22.22-.33.6-.33,1.18s.11.95.32,1.15c.22.2.61.3,1.18.3s.99-.1,1.18-.31c.22-.2.33-.6.33-1.17s-.1-.94-.32-1.16h0Zm-.02,5.73c-.04-.07-.1-.1-.19-.14-.1-.04-.23-.08-.38-.09s-.35-.03-.6-.03-.45,0-.6.03-.27.05-.37.09c-.1.04-.16.09-.2.14-.04.07-.05.12-.05.19v13.35c0,.08,0,.14.05.2.03.05.09.11.2.14.09.04.22.08.37.09s.35.03.6.03.45,0,.6-.03.27-.05.38-.09c.09-.03.14-.09.19-.14.04-.05.07-.12.07-.2v-13.35c0-.07-.02-.12-.07-.19Zm16.43,2.96c-.16-.68-.44-1.26-.81-1.78-.37-.49-.87-.9-1.47-1.2-.62-.3-1.37-.45-2.26-.45-.77,0-1.51.19-2.27.58-.75.39-1.5,1-2.25,1.84v-1.77c0-.08-.02-.13-.05-.2-.04-.05-.09-.1-.18-.14-.08-.04-.19-.08-.33-.09-.13-.02-.32-.03-.54-.03s-.42,0-.55.03c-.13,0-.25.04-.34.09s-.15.09-.18.14c-.03.07-.05.12-.05.2v13.35c0,.08.02.14.05.2.04.05.1.11.2.14.1.04.23.08.38.09s.35.03.59.03.46,0,.61-.03.27-.05.36-.09c.1-.03.16-.09.21-.14.03-.05.05-.12.05-.2v-9.33c.67-.83,1.32-1.48,1.93-1.91.6-.44,1.22-.65,1.84-.65.46,0,.89.09,1.24.27.36.18.66.45.89.78.22.33.39.73.5,1.2.13.46.19,1.07.19,1.83v7.82c0,.08.02.14.07.2s.1.11.2.14c.09.04.21.08.36.09s.36.03.61.03.44,0,.6-.03c.15-.02.27-.05.36-.09.09-.03.15-.09.2-.14.03-.05.05-.12.05-.2v-8.13c0-.95-.08-1.75-.24-2.44h.03Zm16.31-1.39c.09-.14.14-.41.14-.75s-.04-.59-.12-.76-.21-.24-.37-.24h-4.05c-.31-.09-.64-.14-.99-.19-.35-.04-.72-.08-1.14-.08-.76,0-1.44.11-2.08.33-.64.23-1.18.54-1.64.96-.45.42-.82.92-1.06,1.53-.26.6-.38,1.28-.38,2.05,0,.64.09,1.2.27,1.66.18.46.43.88.72,1.25-.37.37-.67.8-.92,1.27-.24.47-.37,1-.37,1.61,0,.44.12.83.35,1.21s.58.69,1.07.94c-.31.24-.6.48-.83.75-.24.25-.45.52-.61.8s-.29.57-.36.88c-.09.3-.12.61-.12.94,0,.52.11,1,.33,1.43.22.45.57.82,1.04,1.14.49.31,1.12.57,1.86.76.77.18,1.68.27,2.75.27s2.09-.12,2.91-.36,1.5-.58,2.03-1c.54-.43.92-.91,1.18-1.47.25-.55.38-1.13.38-1.74,0-.58-.11-1.1-.34-1.53-.24-.45-.55-.81-.95-1.11-.42-.31-.88-.54-1.44-.7-.55-.15-1.17-.25-1.83-.27l-3.48-.14c-.54-.02-.96-.15-1.29-.38-.31-.22-.47-.5-.47-.86,0-.29.07-.55.16-.79.11-.23.26-.43.44-.6.27.22.65.39,1.15.54.48.13,1,.22,1.55.22.78,0,1.48-.11,2.1-.33.64-.22,1.18-.53,1.64-.94.46-.41.82-.91,1.05-1.5.25-.6.38-1.28.38-2.05,0-.46-.08-.91-.22-1.35-.13-.43-.37-.82-.71-1.18h1.91c.14,0,.26-.08.35-.23h0Zm-9.77,12.72c.11-.2.27-.41.47-.64.2-.22.46-.45.79-.69l3.45.11c.81.02,1.43.19,1.91.49.46.32.7.76.7,1.34,0,.33-.08.65-.21.96-.12.3-.34.57-.65.81-.31.25-.71.44-1.21.58-.49.13-1.12.21-1.86.21-1.17,0-2.08-.16-2.73-.48-.65-.34-.99-.82-.99-1.47,0-.21.02-.41.09-.6.04-.21.12-.41.24-.61h0Zm5.92-8.85c-.11.35-.29.66-.53.94-.23.27-.52.47-.87.64-.36.16-.79.24-1.27.24-.9,0-1.59-.26-2.1-.76-.49-.5-.75-1.2-.75-2.08,0-.41.05-.78.16-1.14.12-.36.29-.67.53-.96.23-.27.52-.48.87-.64s.77-.24,1.24-.24c.92,0,1.63.26,2.12.76.5.52.76,1.23.76,2.14,0,.38-.07.75-.16,1.11h0Zm27.14-10.62c-.09-.08-.22-.11-.43-.15-.2-.02-.48-.03-.83-.03-.25,0-.46,0-.64.02-.16.02-.29.07-.38.09-.09.04-.16.09-.23.15-.05.08-.09.15-.12.25l-2.66,5.56c-.25.54-.49,1.09-.73,1.66-.24.55-.46,1.12-.7,1.68h-.03c-.25-.58-.49-1.16-.76-1.73-.24-.57-.48-1.12-.72-1.64l-2.65-5.51c-.05-.1-.1-.18-.15-.25-.05-.07-.13-.1-.24-.14-.12-.03-.27-.08-.45-.09-.19,0-.43-.02-.72-.02-.32,0-.58,0-.77.02-.21.02-.33.09-.42.14-.08.08-.09.16-.08.3.03.12.09.3.2.53l5.43,10.83v7.06c0,.09.02.15.07.21.04.07.11.11.22.15.09.03.23.07.41.09.15.03.36.04.6.04s.45,0,.61-.04c.16-.02.3-.05.39-.09.09-.04.16-.09.21-.15.05-.05.07-.12.07-.21v-7.06l5.42-10.83c.11-.22.18-.39.21-.52.02-.12,0-.23-.09-.29h0l-.03-.02Zm13.21,8.89c-.27-.9-.69-1.66-1.22-2.27-.55-.64-1.22-1.11-2.04-1.44-.82-.32-1.78-.47-2.87-.47s-2.13.18-2.98.54c-.84.37-1.56.88-2.13,1.55-.57.65-1,1.44-1.27,2.36-.27.91-.43,1.91-.43,3s.13,2.14.41,3.03c.26.88.67,1.64,1.21,2.27.55.64,1.23,1.1,2.04,1.41.82.34,1.77.49,2.86.49s2.13-.19,2.99-.56c.83-.36,1.55-.89,2.13-1.55.56-.67,1-1.46,1.27-2.37.29-.92.45-1.92.45-3.01s-.14-2.11-.42-3h0Zm-2.37,5.28c-.15.64-.42,1.2-.75,1.67-.34.46-.78.82-1.3,1.07-.53.27-1.16.39-1.87.39-.79,0-1.45-.13-1.97-.43-.53-.27-.95-.66-1.27-1.15-.31-.46-.53-1.03-.67-1.69-.13-.64-.2-1.33-.2-2.06s.09-1.46.25-2.1c.16-.64.42-1.2.76-1.68.34-.46.77-.82,1.29-1.09.52-.25,1.15-.38,1.89-.38.78,0,1.44.14,1.97.43.52.27.94.66,1.25,1.15s.54,1.04.67,1.69c.13.65.2,1.33.2,2.05,0,.78-.09,1.48-.24,2.12h0Zm18.34-9.01s-.1-.1-.2-.14c-.09-.04-.22-.08-.37-.09-.16-.02-.35-.03-.59-.03-.26,0-.46,0-.61.03-.14,0-.27.04-.37.09-.09.04-.18.09-.21.14-.03.07-.05.12-.05.2v9.33c-.67.84-1.33,1.49-1.93,1.91-.6.44-1.21.66-1.83.66-.46,0-.89-.09-1.24-.27-.35-.19-.65-.45-.89-.77-.23-.34-.39-.73-.5-1.21-.11-.46-.18-1.1-.18-1.87v-7.77c0-.08-.02-.13-.07-.2-.04-.05-.1-.1-.2-.14s-.22-.08-.37-.09c-.16-.02-.36-.03-.6-.03s-.44,0-.59.03c-.16,0-.29.04-.39.09-.09.04-.16.09-.2.14-.03.07-.05.12-.05.2v8.11c0,.96.09,1.79.25,2.46.15.68.44,1.27.81,1.78.37.52.87.91,1.48,1.21.6.3,1.36.45,2.25.45.77,0,1.5-.19,2.25-.58.75-.38,1.5-1,2.27-1.84v1.77c0,.08,0,.14.04.2s.09.11.16.14c.09.04.2.08.34.09s.33.03.56.03c.21,0,.38,0,.53-.03.13-.02.26-.05.35-.09.09-.03.14-.09.19-.14.03-.05.05-.12.05-.2v-13.35c0-.08-.03-.13-.08-.2h0v-.03Zm27.37-5.02c-.04-.07-.11-.11-.21-.15s-.22-.08-.38-.09c-.16-.03-.37-.04-.6-.04-.26,0-.46,0-.64.04-.16.02-.29.05-.39.09-.09.04-.16.09-.21.15-.04.07-.07.12-.07.19v10.41c0,.79,0,1.59,0,2.43,0,.84,0,1.67.03,2.44h0c-.23-.46-.46-.92-.7-1.37-.23-.46-.46-.93-.71-1.4-.23-.47-.47-.96-.73-1.44-.27-.49-.53-1-.81-1.51l-4.5-8.43c-.16-.3-.31-.56-.46-.77-.15-.2-.3-.35-.46-.46-.16-.11-.34-.2-.54-.25-.21-.04-.45-.08-.75-.08h-1.25c-.27,0-.5.09-.73.25-.22.16-.34.45-.34.84v17.69c0,.08.02.13.07.2.04.08.11.12.21.16.09.03.22.07.38.09.15.03.36.04.62.04s.46,0,.61-.04c.18-.02.3-.05.41-.09.09-.04.16-.09.21-.16.04-.07.07-.12.07-.2v-11.57c0-.73,0-1.47-.02-2.21,0-.73-.02-1.47-.04-2.18h.03c.27.59.56,1.18.87,1.8.31.62.62,1.22.92,1.78l5.85,10.92c.2.37.39.69.58.94.18.25.35.45.53.58.18.14.37.24.57.31.2.05.44.08.69.08h.84c.13,0,.27,0,.41-.05s.25-.11.35-.21c.11-.09.2-.2.26-.33.09-.13.11-.31.11-.5v-17.7c0-.07-.02-.12-.08-.19h0Zm15.25,7.41c-.19-.64-.48-1.16-.9-1.57-.42-.43-.96-.73-1.62-.95-.68-.22-1.5-.32-2.46-.32-.5,0-1.02.04-1.52.13-.52.09-.98.21-1.4.35-.42.14-.8.3-1.12.48-.33.16-.57.31-.69.45-.13.12-.22.26-.25.41-.04.15-.05.34-.05.59,0,.14,0,.27.02.42.02.12.05.22.1.3.04.08.09.13.15.18.05.04.12.07.2.07.13,0,.31-.08.55-.22s.55-.3.91-.47c.35-.18.78-.33,1.25-.47.48-.13,1.02-.21,1.63-.21.56,0,1.03.07,1.41.2.39.13.7.32.94.59.25.27.43.59.53.99.1.41.16.84.16,1.37v1.04h-1.84c-1.03,0-1.97.09-2.81.27s-1.53.46-2.11.82c-.56.37-1.01.82-1.32,1.37-.31.55-.46,1.21-.46,1.96,0,.64.11,1.21.34,1.71.22.5.53.93.93,1.28.41.34.89.6,1.45.8.58.18,1.21.27,1.91.27.8,0,1.56-.16,2.27-.52.72-.35,1.37-.83,1.96-1.45v1.33c0,.12.03.21.1.27.07.07.18.11.33.13.14.03.35.05.62.05s.46-.02.6-.05c.13-.02.25-.08.33-.13.08-.07.11-.14.11-.27v-9c0-.82-.09-1.56-.29-2.17h.02Zm-2.14,7.91c-.6.66-1.18,1.17-1.73,1.49-.54.34-1.14.49-1.77.49-.8,0-1.41-.2-1.85-.62-.45-.41-.66-.96-.66-1.64,0-.41.08-.77.23-1.09.15-.3.39-.57.72-.79.32-.23.73-.39,1.22-.5.5-.11,1.07-.18,1.75-.18h2.09v2.83h0Zm17.91-10.33s-.09-.09-.18-.13-.2-.07-.35-.08c-.14,0-.33-.02-.56-.02-.27,0-.48,0-.65.03-.15,0-.27.04-.37.08s-.16.09-.23.15c-.05.05-.09.12-.1.22l-3.73,11.01-.04.18-.07-.18-3.76-11.01c-.04-.09-.09-.16-.12-.22-.04-.07-.11-.11-.21-.15-.09-.03-.23-.07-.39-.08-.19-.02-.42-.03-.69-.03-.23,0-.43,0-.58.02-.14,0-.27.03-.36.07s-.16.09-.2.14c-.04.05-.07.12-.07.21,0,.02,0,.07,0,.1,0,.05.02.11.04.21.02.09.05.2.09.31l4.54,12.67c.04.09.09.18.16.25s.16.13.27.16c.12.04.29.08.48.09s.45.03.73.03c.31,0,.55,0,.75-.02.2-.02.36-.04.49-.09.12-.04.23-.1.29-.18.07-.07.11-.15.15-.26l4.55-12.67c.02-.07.03-.13.05-.19,0-.07.03-.11.03-.18,0-.05.02-.09.03-.13v-.12c0-.09,0-.14-.05-.21h.03Zm5.84-5.68c-.21-.2-.61-.3-1.18-.3s-.99.1-1.2.31c-.22.22-.33.6-.33,1.18s.1.95.33,1.15c.21.2.6.3,1.18.3s.99-.1,1.18-.31c.22-.2.33-.6.33-1.17s-.11-.94-.32-1.16h0Zm-.02,5.73c-.04-.07-.1-.1-.19-.14-.09-.04-.22-.08-.38-.09-.15-.02-.35-.03-.6-.03s-.45,0-.6.03-.27.05-.37.09c-.09.04-.15.09-.19.14-.04.07-.07.12-.07.19v13.35c0,.08.02.14.07.2.03.05.09.11.19.14.09.04.22.08.37.09s.36.03.6.03.45,0,.6-.03c.16-.02.29-.05.38-.09.09-.03.14-.09.19-.14.04-.05.07-.12.07-.2v-13.35c0-.07-.02-.12-.07-.19Zm16.19,1.55c.09-.14.14-.41.14-.75s-.04-.59-.12-.76-.21-.24-.38-.24h-4.03c-.31-.09-.64-.14-1-.19-.34-.04-.71-.08-1.13-.08-.76,0-1.44.11-2.08.33-.64.23-1.18.54-1.64.96s-.82.92-1.06,1.53c-.26.6-.38,1.28-.38,2.05,0,.64.09,1.2.27,1.66.18.46.42.88.72,1.25-.37.37-.67.8-.92,1.27s-.37,1-.37,1.61c0,.44.12.83.35,1.21s.58.69,1.07.94c-.32.24-.6.48-.83.75-.25.25-.45.52-.62.8-.15.27-.27.57-.35.88-.09.3-.12.61-.12.94,0,.52.11,1,.33,1.43.21.45.57.82,1.04,1.14.49.31,1.11.57,1.86.76.77.18,1.68.27,2.75.27s2.09-.12,2.91-.36,1.5-.58,2.03-1c.53-.43.92-.91,1.18-1.47.25-.55.37-1.13.37-1.74,0-.58-.1-1.1-.33-1.53-.24-.45-.55-.81-.95-1.11-.42-.31-.89-.54-1.44-.7-.56-.15-1.17-.25-1.83-.27l-3.48-.14c-.54-.02-.96-.15-1.29-.38-.32-.22-.47-.5-.47-.86,0-.29.07-.55.16-.79.11-.23.26-.43.44-.6.27.22.65.39,1.14.54.49.13,1.01.22,1.55.22.78,0,1.48-.11,2.1-.33.64-.22,1.18-.53,1.64-.94.46-.41.82-.91,1.05-1.5.25-.6.38-1.28.38-2.05,0-.46-.09-.91-.22-1.35-.13-.43-.37-.82-.71-1.18h1.91c.15,0,.27-.08.36-.23h0Zm-9.77,12.72c.11-.2.27-.41.47-.64.2-.22.46-.45.78-.69l3.46.11c.79.02,1.43.19,1.91.49.46.32.7.76.7,1.34,0,.33-.08.65-.21.96-.12.3-.34.57-.66.81-.3.25-.7.44-1.2.58-.49.13-1.12.21-1.86.21-1.17,0-2.08-.16-2.73-.48-.65-.34-.99-.82-.99-1.47,0-.21.02-.41.08-.6.04-.21.13-.41.25-.61h0Zm5.92-8.85c-.1.35-.27.66-.52.94-.23.27-.52.47-.89.64-.35.16-.77.24-1.25.24-.9,0-1.6-.26-2.1-.76-.49-.5-.75-1.2-.75-2.08,0-.41.05-.78.16-1.14s.29-.67.53-.96c.23-.27.52-.48.87-.64s.77-.24,1.24-.24c.92,0,1.62.26,2.12.76.5.52.76,1.23.76,2.14,0,.38-.07.75-.18,1.11h0Zm16.96-3.06c-.2-.64-.49-1.16-.9-1.57-.43-.43-.96-.73-1.63-.95-.68-.22-1.5-.32-2.46-.32-.52,0-1.02.04-1.53.13s-.96.21-1.39.35c-.42.14-.79.3-1.13.48-.32.16-.55.31-.69.45-.12.12-.21.26-.25.41-.03.15-.05.34-.05.59,0,.14,0,.27.03.42.02.12.05.22.09.3.05.08.1.13.15.18.07.04.14.07.22.07.12,0,.3-.08.54-.22s.55-.3.9-.47c.37-.18.79-.33,1.26-.47.48-.13,1.03-.21,1.62-.21s1.04.07,1.43.2.69.32.95.59c.24.27.41.59.52.99.1.41.15.84.15,1.37v1.04h-1.83c-1.04,0-1.97.09-2.8.27-.83.18-1.55.46-2.12.82-.57.37-1.01.82-1.32,1.37-.3.55-.46,1.21-.46,1.96,0,.64.12,1.21.34,1.71.22.5.53.93.93,1.28.41.34.89.6,1.45.8.58.18,1.21.27,1.91.27.81,0,1.57-.16,2.28-.52s1.37-.83,1.95-1.45v1.33c0,.12.03.21.1.27.07.07.18.11.32.13.15.03.37.05.62.05.27,0,.46-.02.6-.05.15-.02.26-.08.34-.13.08-.07.11-.14.11-.27v-9c0-.82-.09-1.56-.27-2.17h0Zm-2.16,7.91c-.59.66-1.17,1.17-1.72,1.49-.55.34-1.15.49-1.79.49-.79,0-1.4-.2-1.84-.62-.45-.41-.66-.96-.66-1.64,0-.41.08-.77.23-1.09.14-.3.39-.57.71-.79.33-.23.75-.39,1.23-.5.49-.11,1.07-.18,1.74-.18h2.09v2.83h0Zm14.1,1.55c-.02-.08-.05-.11-.1-.14-.04-.02-.09-.03-.13-.03-.09,0-.16.02-.27.07s-.22.09-.36.14c-.13.04-.29.1-.46.14-.19.04-.39.07-.61.07-.7,0-1.18-.24-1.46-.7-.27-.47-.42-1.16-.42-2.08v-7.44h3.43c.14,0,.26-.09.35-.24.09-.15.12-.43.12-.78,0-.19,0-.34-.02-.47-.02-.12-.05-.23-.1-.31-.04-.09-.09-.14-.14-.18-.07-.04-.13-.05-.21-.05h-3.43v-3.18c0-.09-.02-.14-.07-.2-.03-.07-.1-.11-.19-.15-.09-.04-.21-.09-.37-.09-.16-.02-.36-.03-.61-.03-.23,0-.44,0-.59.03-.15,0-.29.05-.37.09-.09.04-.16.09-.2.15-.03.05-.05.11-.05.2v3.18h-1.85c-.09,0-.16,0-.23.05-.07.03-.11.09-.15.18-.03.09-.07.19-.09.31-.02.13-.03.29-.03.47,0,.35.04.62.12.78.09.15.21.24.36.24h1.87v7.79c0,.78.08,1.45.22,2.01.13.57.36,1.03.68,1.41.32.36.72.64,1.22.82.48.19,1.09.27,1.78.27.23,0,.46,0,.67-.04.24-.03.46-.07.65-.11.2-.04.38-.09.55-.16.15-.08.27-.15.35-.23.08-.09.13-.21.18-.37s.05-.39.05-.68c0-.18,0-.32-.02-.44-.02-.12-.04-.23-.08-.29h-.02Zm14.67-8.45c-.23-.77-.57-1.44-1.04-2.01-.47-.57-1.07-1.02-1.82-1.36-.72-.33-1.62-.49-2.66-.49-.98,0-1.86.16-2.65.5-.79.33-1.47.82-2.02,1.47-.57.64-1,1.4-1.29,2.32-.29.91-.45,1.94-.45,3.08,0,1.22.14,2.28.44,3.19s.71,1.66,1.28,2.27c.55.6,1.25,1.05,2.08,1.36.82.31,1.79.46,2.88.46.64,0,1.22-.04,1.78-.13s1.05-.2,1.48-.33c.43-.11.77-.24,1.03-.36.27-.11.44-.21.48-.26s.09-.11.13-.16c.03-.08.05-.13.08-.22,0-.08.02-.15.03-.25s.02-.2.02-.33c0-.18,0-.33-.02-.46-.02-.12-.04-.22-.08-.27-.03-.08-.08-.12-.12-.15-.05-.04-.11-.05-.19-.05-.11,0-.3.05-.53.15-.24.1-.53.22-.9.34-.35.12-.8.25-1.28.35-.5.1-1.06.15-1.7.15-.81,0-1.49-.11-2.05-.34s-1-.55-1.35-.99c-.36-.43-.6-.93-.76-1.52-.14-.6-.22-1.26-.22-2.01h8.78c.25,0,.46-.08.66-.25.2-.16.3-.44.3-.82v-.45c0-.87-.11-1.7-.34-2.46h0Zm-9.4,2.17c.02-.55.11-1.06.27-1.57.16-.49.41-.93.72-1.3.3-.38.68-.68,1.14-.91s1-.33,1.59-.33c1.18,0,2.09.36,2.68,1.1.61.71.89,1.73.86,3.02h-7.27Zm28.37,6.26c-.03-.08-.07-.11-.1-.14-.04-.02-.09-.03-.14-.03-.08,0-.16.02-.26.07-.1.04-.23.09-.36.14-.13.04-.29.1-.47.14s-.38.07-.61.07c-.7,0-1.18-.24-1.45-.7-.27-.47-.42-1.16-.42-2.08v-7.44h3.42c.14,0,.27-.09.35-.24.09-.15.13-.43.13-.78,0-.19,0-.34-.03-.47-.02-.12-.05-.23-.09-.31-.04-.09-.09-.14-.15-.18-.07-.04-.12-.05-.21-.05h-3.42v-3.18c0-.09-.02-.14-.07-.2-.04-.07-.1-.11-.19-.15-.09-.04-.22-.09-.37-.09-.16-.02-.36-.03-.61-.03s-.44,0-.6.03c-.15,0-.27.05-.37.09s-.15.09-.19.15c-.04.05-.05.11-.05.2v3.18h-1.86c-.08,0-.14,0-.21.05-.08.03-.12.09-.16.18s-.08.19-.09.31c-.03.13-.04.29-.04.47,0,.35.04.62.13.78.09.15.22.24.36.24h1.87v7.79c0,.78.08,1.45.21,2.01.14.57.37,1.03.69,1.41.31.36.71.64,1.21.82s1.09.27,1.79.27c.22,0,.45,0,.67-.04.24-.03.45-.07.65-.11.2-.04.38-.09.54-.16.15-.08.27-.15.35-.23.09-.09.14-.21.18-.37s.07-.39.07-.68c0-.18,0-.32-.03-.44-.02-.12-.04-.23-.07-.29h-.03Zm15.18-8.88c-.16-.68-.43-1.26-.81-1.78-.37-.49-.87-.9-1.48-1.2s-1.36-.45-2.25-.45c-.71,0-1.44.18-2.15.53-.71.36-1.41.92-2.12,1.67v-8c0-.08-.02-.14-.05-.21-.04-.05-.1-.1-.2-.14-.09-.04-.22-.07-.37-.09-.15-.02-.36-.03-.6-.03s-.45,0-.6.03-.27.04-.37.09c-.09.04-.16.09-.21.14-.03.07-.05.13-.05.21v19.81c0,.08.02.14.05.2.04.05.11.11.21.14.09.04.22.08.37.09.15.02.35.03.6.03s.45,0,.6-.03.29-.05.37-.09c.09-.03.15-.09.2-.14.03-.05.05-.12.05-.2v-9.33c.68-.83,1.32-1.48,1.93-1.91.61-.44,1.22-.65,1.83-.65.47,0,.9.09,1.25.27.37.18.66.45.89.78.22.33.41.73.52,1.2.12.46.18,1.07.18,1.83v7.82c0,.08.02.14.07.2s.1.11.19.14c.09.04.22.08.37.09.16.02.36.03.61.03s.45,0,.6-.03.27-.05.36-.09c.09-.03.15-.09.2-.14.03-.05.05-.12.05-.2v-8.11c0-.96-.08-1.78-.24-2.46h0Zm16.37.44c-.23-.77-.57-1.44-1.04-2.01s-1.09-1.02-1.82-1.36c-.75-.33-1.62-.49-2.68-.49-.99,0-1.86.16-2.64.5-.8.33-1.47.82-2.03,1.47-.56.64-.99,1.4-1.28,2.32-.3.91-.45,1.94-.45,3.08,0,1.22.14,2.28.43,3.19.29.91.71,1.66,1.28,2.27.56.6,1.26,1.05,2.09,1.36.82.31,1.78.46,2.87.46.64,0,1.23-.04,1.79-.13s1.05-.2,1.47-.33c.44-.11.78-.24,1.04-.36.26-.11.44-.21.48-.26s.09-.11.13-.16c.03-.08.05-.13.08-.22,0-.08.02-.15.03-.25,0-.09.02-.2.02-.33,0-.18,0-.33-.03-.46,0-.12-.03-.22-.07-.27-.03-.08-.08-.12-.12-.15-.05-.04-.11-.05-.19-.05-.12,0-.3.05-.54.15-.23.1-.53.22-.89.34s-.8.25-1.28.35c-.5.1-1.06.15-1.71.15-.81,0-1.49-.11-2.04-.34-.56-.23-1-.55-1.37-.99-.34-.43-.59-.93-.73-1.52-.15-.6-.23-1.26-.23-2.01h8.79c.25,0,.46-.08.66-.25.19-.16.29-.44.29-.82v-.45c0-.87-.11-1.7-.33-2.46h0Zm-9.41,2.17c.02-.55.12-1.06.29-1.57.16-.49.41-.93.7-1.3.32-.38.69-.68,1.16-.91.46-.23,1-.33,1.59-.33,1.18,0,2.07.36,2.68,1.1.6.71.89,1.73.86,3.02h-7.29Zm26.38-10.67s-.11-.1-.21-.14-.22-.09-.39-.1c-.16,0-.37-.02-.6-.02-.26,0-.46,0-.62.02-.16.02-.29.07-.39.1s-.18.09-.22.14c-.04.07-.05.12-.05.2v13.73c0,.64-.04,1.16-.12,1.56-.08.41-.2.72-.35.94-.15.23-.36.38-.6.46-.23.09-.52.13-.86.13-.3,0-.57-.04-.79-.11-.24-.09-.44-.15-.61-.25-.16-.09-.31-.16-.45-.24-.12-.08-.23-.11-.3-.11-.09,0-.14.02-.21.05-.05.03-.09.09-.13.18s-.07.2-.09.34c0,.14-.02.33-.02.54v.46c0,.13.03.23.05.32.03.09.07.14.09.21s.09.11.13.18.15.13.33.22c.16.09.37.16.59.24.23.08.47.13.76.18.27.05.54.08.82.08.8,0,1.48-.12,2.04-.37.54-.24.99-.58,1.33-1.03.33-.44.57-.99.71-1.6.13-.64.21-1.34.21-2.09v-13.98c0-.08-.03-.13-.08-.2h0v-.03Zm17.43,8.81c-.27-.9-.68-1.66-1.22-2.27-.55-.64-1.22-1.11-2.04-1.44-.82-.32-1.77-.47-2.86-.47s-2.13.18-2.98.54c-.86.37-1.56.88-2.14,1.55-.56.65-1,1.44-1.27,2.36-.27.91-.42,1.91-.42,3s.13,2.14.39,3.03c.27.88.67,1.64,1.21,2.27.55.64,1.23,1.1,2.04,1.41.82.34,1.78.49,2.88.49s2.11-.19,2.97-.56c.84-.36,1.56-.89,2.13-1.55.57-.67,1-1.46,1.28-2.37.27-.92.44-1.92.44-3.01s-.14-2.11-.42-3h0Zm-2.36,5.28c-.16.64-.42,1.2-.76,1.67-.33.46-.78.82-1.29,1.07-.54.27-1.16.39-1.87.39-.8,0-1.45-.13-1.97-.43-.54-.27-.95-.66-1.27-1.15-.31-.46-.53-1.03-.66-1.69-.14-.64-.22-1.33-.22-2.06s.09-1.46.26-2.1c.16-.64.42-1.2.75-1.68.35-.46.78-.82,1.3-1.09.52-.25,1.15-.38,1.89-.38.79,0,1.44.14,1.96.43.53.27.95.66,1.26,1.15.3.48.53,1.04.66,1.69.13.65.21,1.33.21,2.05,0,.78-.09,1.48-.24,2.12h0Zm18.97-5.06c-.21-.87-.52-1.63-.94-2.28-.44-.65-1-1.16-1.68-1.55-.69-.38-1.52-.57-2.49-.57-.39,0-.78.03-1.13.11s-.71.21-1.06.37c-.35.18-.72.39-1.09.68-.38.27-.76.61-1.15,1.02v-8c0-.08-.02-.14-.07-.21-.05-.05-.11-.1-.2-.14-.09-.04-.22-.07-.37-.09-.15-.02-.35-.03-.61-.03-.23,0-.43,0-.59.03-.15.02-.29.04-.38.09-.09.04-.15.09-.19.14-.03.07-.05.13-.05.21v19.81c0,.08,0,.14.04.21.03.05.09.11.18.14.09.03.21.07.35.09.13.02.3.03.49.03.21,0,.38,0,.52-.03s.24-.05.33-.09c.09-.03.14-.09.19-.14.04-.07.07-.13.07-.21v-1.63c.39.42.76.76,1.1,1.04.35.27.69.52,1.04.7.34.2.69.33,1.06.42.35.09.75.12,1.17.12.92,0,1.73-.16,2.44-.52.71-.35,1.33-.84,1.81-1.5s.86-1.44,1.11-2.37c.26-.92.38-1.96.38-3.11,0-.98-.09-1.9-.29-2.76h0Zm-2.43,4.88c-.12.61-.32,1.16-.6,1.66-.27.47-.62.88-1.06,1.17-.44.31-.98.46-1.58.46-.66,0-1.32-.23-1.92-.65-.62-.43-1.26-1.05-1.93-1.87v-5.33c.38-.49.75-.9,1.1-1.23.34-.32.66-.59,1-.81.31-.21.62-.35.94-.44.3-.09.61-.13.93-.13.64,0,1.17.14,1.59.45.44.31.78.7,1.03,1.18.26.5.45,1.07.55,1.72.1.64.15,1.3.15,1.98,0,.62-.07,1.24-.19,1.84h0Zm35.52-13.45c-.07-.13-.13-.26-.23-.35-.09-.09-.21-.15-.34-.2-.14-.05-.29-.08-.44-.08h-1.64c-.25,0-.47.03-.66.09-.2.05-.37.14-.52.26-.15.12-.3.29-.44.49-.12.22-.26.46-.36.76l-5.71,13.86h-.08l-5.48-13.9c-.1-.26-.21-.49-.32-.7-.12-.19-.27-.35-.45-.47-.19-.13-.41-.23-.64-.27-.24-.07-.52-.09-.84-.09h-1.55c-.27,0-.53.09-.75.27-.22.18-.34.46-.34.89v17.63c0,.09.02.15.08.21.03.07.09.11.2.15.09.03.22.07.38.09.15.03.36.04.61.04s.46,0,.62-.04c.18-.02.3-.05.41-.09.1-.04.18-.09.22-.15.03-.05.05-.12.05-.21v-16.7h.02l6.47,16.77c.02.07.07.11.11.16s.12.1.23.13c.09.03.22.07.37.09.14.02.32.03.53.03s.37,0,.52-.02c.14-.02.27-.04.37-.08s.18-.09.23-.14c.07-.04.1-.1.12-.18l6.77-16.77h.03v16.7c0,.09.02.15.07.21.04.07.1.11.2.15.1.03.23.07.39.09.16.03.38.04.61.04.25,0,.46,0,.62-.04.15-.02.29-.05.39-.09.09-.04.16-.09.21-.15.04-.05.07-.12.07-.21v-17.63c0-.21-.03-.39-.09-.54h.03Zm15.28,7.04c-.19-.64-.48-1.16-.9-1.57-.42-.43-.96-.73-1.63-.95s-1.49-.32-2.44-.32c-.52,0-1.02.04-1.53.13-.49.09-.98.21-1.39.35s-.8.3-1.12.48c-.34.16-.57.31-.69.45-.13.12-.22.26-.25.41-.04.15-.05.34-.05.59,0,.14,0,.27.02.42.02.12.05.22.1.3.04.08.09.13.15.18.05.04.12.07.2.07.12,0,.3-.08.55-.22.24-.14.54-.3.91-.47.35-.18.77-.33,1.25-.47.47-.13,1.02-.21,1.63-.21.55,0,1.03.07,1.41.2.39.13.7.32.94.59s.43.59.53.99c.1.41.16.84.16,1.37v1.04h-1.84c-1.03,0-1.97.09-2.81.27s-1.55.46-2.11.82c-.57.37-1.01.82-1.33,1.37-.3.55-.46,1.21-.46,1.96,0,.64.11,1.21.33,1.71.23.5.54.93.93,1.28.42.34.89.6,1.46.8.57.18,1.21.27,1.91.27.8,0,1.55-.16,2.27-.52.72-.35,1.37-.83,1.95-1.45v1.33c0,.12.03.21.1.27.07.07.19.11.34.13.14.03.35.05.61.05s.46-.02.61-.05c.13-.02.24-.08.32-.13.08-.07.11-.14.11-.27v-9c0-.82-.09-1.56-.27-2.17h0Zm-2.14,7.91c-.61.66-1.18,1.17-1.73,1.49-.54.34-1.14.49-1.78.49-.8,0-1.4-.2-1.85-.62-.44-.41-.65-.96-.65-1.64,0-.41.08-.77.23-1.09.15-.3.38-.57.72-.79.32-.23.72-.39,1.22-.5s1.07-.18,1.75-.18h2.09v2.83h0Zm15.31-9.76c0-.13,0-.24-.03-.31,0-.07-.03-.12-.05-.16-.02-.04-.05-.09-.11-.13-.07-.05-.15-.1-.31-.15-.14-.04-.3-.09-.47-.12-.18-.04-.34-.08-.52-.09-.16-.02-.31-.02-.44-.02-.27,0-.57.03-.84.1s-.58.21-.86.41c-.27.19-.59.46-.91.79-.32.34-.67.78-1.03,1.3v-1.94c0-.08,0-.13-.05-.2-.03-.05-.09-.1-.16-.14-.09-.04-.19-.08-.34-.09-.14-.02-.32-.03-.54-.03s-.42,0-.55.03c-.13,0-.25.04-.34.09-.09.04-.14.09-.18.14-.03.07-.04.12-.04.2v13.35c0,.08.02.14.05.2.03.05.09.11.19.14.09.04.22.08.38.09s.36.03.59.03c.25,0,.45,0,.61-.03.16-.02.27-.05.37-.09.09-.03.15-.09.19-.14.04-.05.07-.12.07-.2v-8.78c.35-.55.66-1,.95-1.37.29-.38.56-.67.82-.9.26-.24.52-.39.76-.49.24-.09.47-.14.73-.14.2,0,.39.02.57.07.18.03.34.08.48.12.14.04.27.09.38.12.11.05.21.08.29.08s.14-.02.19-.08c.04-.04.09-.1.11-.19.03-.09.05-.2.07-.34,0-.15,0-.34,0-.56s0-.41,0-.54h0Zm14.28,12.7c-.05-.1-.14-.24-.27-.42l-5.43-7.04,4.83-4.83c.14-.15.25-.3.31-.42.08-.12.1-.25.1-.36,0-.09-.02-.15-.08-.22-.04-.05-.11-.09-.22-.12-.1-.04-.24-.07-.41-.08-.18-.02-.38-.03-.64-.03-.23,0-.44,0-.61.03-.16,0-.31.04-.44.09-.11.04-.23.1-.31.16-.1.07-.19.14-.26.24l-5.03,5.56v-12.08c0-.08-.02-.14-.07-.21-.04-.05-.1-.1-.19-.14-.09-.04-.22-.07-.38-.09-.15-.02-.35-.03-.6-.03s-.45,0-.6.03-.27.04-.37.09c-.09.04-.15.09-.19.14-.05.07-.07.13-.07.21v19.81c0,.08,0,.14.07.2.03.05.09.11.19.14.09.04.22.08.37.09.15.02.35.03.6.03s.45,0,.6-.03c.16-.02.29-.05.38-.09.09-.03.14-.09.19-.14s.07-.12.07-.2v-7.4l5.63,7.38c.05.09.12.16.2.23s.16.12.27.16c.13.03.27.05.45.08.18,0,.39.02.66.02s.46,0,.64-.03.31-.05.41-.09c.09-.03.15-.09.2-.15.04-.05.07-.12.07-.21s-.03-.18-.09-.27h0Zm13.61-9.84c-.23-.77-.58-1.44-1.04-2.01-.48-.57-1.09-1.02-1.82-1.36s-1.63-.49-2.68-.49c-.99,0-1.86.16-2.65.5-.79.33-1.46.82-2.02,1.47-.56.64-1,1.4-1.28,2.32-.29.91-.45,1.94-.45,3.08,0,1.22.14,2.28.43,3.19.29.91.72,1.66,1.27,2.27.57.6,1.27,1.05,2.1,1.36.82.31,1.78.46,2.87.46.64,0,1.23-.04,1.78-.13.57-.09,1.06-.2,1.48-.33.43-.11.78-.24,1.04-.36.26-.11.43-.21.48-.26.05-.05.09-.11.13-.16.03-.08.05-.13.08-.22,0-.08.02-.15.03-.25s.02-.2.02-.33c0-.18,0-.33-.03-.46,0-.12-.03-.22-.07-.27-.03-.08-.08-.12-.12-.15-.05-.04-.12-.05-.2-.05-.11,0-.29.05-.52.15-.24.1-.54.22-.9.34s-.8.25-1.28.35c-.5.1-1.07.15-1.71.15-.81,0-1.49-.11-2.04-.34-.56-.23-1-.55-1.37-.99-.34-.43-.59-.93-.75-1.52-.14-.6-.22-1.26-.22-2.01h8.78c.26,0,.47-.08.67-.25.19-.16.29-.44.29-.82v-.45c0-.87-.11-1.7-.33-2.46h.02Zm-9.41,2.17c.02-.55.11-1.06.29-1.57.16-.49.41-.93.7-1.3.32-.38.7-.68,1.15-.91.46-.23,1-.33,1.6-.33,1.18,0,2.08.36,2.68,1.1.61.71.89,1.73.86,3.02h-7.29Zm20.74,6.26c-.02-.08-.05-.11-.1-.14-.04-.02-.09-.03-.13-.03-.09,0-.18.02-.27.07-.09.04-.21.09-.35.14-.13.04-.29.1-.47.14s-.37.07-.6.07c-.7,0-1.18-.24-1.47-.7-.27-.47-.41-1.16-.41-2.08v-7.44h3.42c.15,0,.27-.09.36-.24.09-.15.13-.43.13-.78,0-.19,0-.34-.03-.47-.02-.12-.05-.23-.09-.31-.05-.09-.1-.14-.15-.18-.07-.04-.13-.05-.22-.05h-3.42v-3.18c0-.09-.02-.14-.05-.2-.04-.07-.1-.11-.2-.15-.09-.04-.22-.09-.37-.09-.15-.02-.36-.03-.6-.03s-.45,0-.6.03c-.15,0-.27.05-.37.09-.09.04-.16.09-.21.15-.03.05-.05.11-.05.2v3.18h-1.85c-.09,0-.14,0-.22.05-.07.03-.11.09-.14.18-.04.09-.08.19-.1.31-.02.13-.03.29-.03.47,0,.35.04.62.13.78.09.15.2.24.35.24h1.86v7.79c0,.78.08,1.45.23,2.01.14.57.36,1.03.68,1.41.32.36.72.64,1.22.82.48.19,1.09.27,1.77.27.24,0,.46,0,.68-.04.23-.03.46-.07.65-.11.21-.04.38-.09.54-.16.16-.08.27-.15.36-.23.08-.09.13-.21.18-.37s.07-.39.07-.68c0-.18,0-.32-.03-.44-.02-.12-.04-.23-.08-.29h-.04Z"/></g></g></g></svg>