<?xml version="1.0" encoding="UTF-8"?><svg id="Layer_1" xmlns="http://www.w3.org/2000/svg" xmlns:xlink="http://www.w3.org/1999/xlink" viewBox="0 0 701.39 140.33"><defs><style>.cls-1{fill:url(#linear-gradient-2);}.cls-2{fill:#282420;}.cls-3{fill:url(#linear-gradient-6);}.cls-4{fill:url(#linear-gradient-11);}.cls-5{fill:url(#linear-gradient-10);}.cls-6{fill:url(#linear-gradient-5);}.cls-7{fill:url(#linear-gradient-7);}.cls-8{fill:url(#linear-gradient-9);}.cls-9{fill:url(#linear-gradient-3);}.cls-10{fill:url(#linear-gradient);}.cls-11{fill:url(#linear-gradient-4);}.cls-12{fill:url(#linear-gradient-8);}</style><linearGradient id="linear-gradient" x1="693.08" y1="127.01" x2="702.48" y2="72.04" gradientTransform="translate(874.85 142) rotate(-180)" gradientUnits="userSpaceOnUse"><stop offset="0" stop-color="#faaf3a"/><stop offset="1" stop-color="#f05a26"/></linearGradient><linearGradient id="linear-gradient-2" x1="674.59" y1="130.9" x2="685.34" y2="68.04" gradientTransform="translate(874.85 142) rotate(-180)" gradientUnits="userSpaceOnUse"><stop offset="0" stop-color="#faaf3a"/><stop offset="1" stop-color="#f05a26"/></linearGradient><linearGradient id="linear-gradient-3" x1="682.36" y1="134.33" x2="693.44" y2="69.56" gradientTransform="translate(874.85 142) rotate(-180)" gradientUnits="userSpaceOnUse"><stop offset="0" stop-color="#faaf3a"/><stop offset="1" stop-color="#f05a26"/></linearGradient><linearGradient id="linear-gradient-4" x1="713.26" y1="98.24" x2="687.9" y2="74.37" gradientTransform="translate(874.85 142) rotate(-180)" gradientUnits="userSpaceOnUse"><stop offset="0" stop-color="#faaf3a"/><stop offset="1" stop-color="#f05a26"/></linearGradient><linearGradient id="linear-gradient-5" x1="713.85" y1="99.38" x2="687.02" y2="74.12" gradientTransform="translate(874.85 142) rotate(-180)" gradientUnits="userSpaceOnUse"><stop offset="0" stop-color="#faaf3a"/><stop offset="1" stop-color="#f05a26"/></linearGradient><linearGradient id="linear-gradient-6" x1="727.84" y1="91.44" x2="698.44" y2="63.77" gradientTransform="translate(874.85 142) rotate(-180)" gradientUnits="userSpaceOnUse"><stop offset="0" stop-color="#faaf3a"/><stop offset="1" stop-color="#f05a26"/></linearGradient><linearGradient id="linear-gradient-7" x1="780.4" y1="144.34" x2="806.72" y2="30.26" gradientTransform="translate(874.85 142) rotate(-180)" gradientUnits="userSpaceOnUse"><stop offset="0" stop-color="#faac18"/><stop offset="1" stop-color="#ef4e23"/></linearGradient><linearGradient id="linear-gradient-8" x1="882.29" y1="137.86" x2="746.11" y2="26.88" gradientTransform="translate(874.85 142) rotate(-180)" gradientUnits="userSpaceOnUse"><stop offset="0" stop-color="#faac18"/><stop offset="1" stop-color="#ef4e23"/></linearGradient><linearGradient id="linear-gradient-9" x1="813.48" y1="61.57" x2="740.78" y2="160.32" gradientTransform="translate(874.85 142) rotate(-180)" gradientUnits="userSpaceOnUse"><stop offset="0" stop-color="#faac18"/><stop offset="1" stop-color="#ef4e23"/></linearGradient><linearGradient id="linear-gradient-10" x1="55.46" y1="96.58" x2="88.2" y2="-100.48" gradientTransform="translate(0 142) scale(1 -1)" gradientUnits="userSpaceOnUse"><stop offset="0" stop-color="#faaf3a"/><stop offset="1" stop-color="#f05a26"/></linearGradient><linearGradient id="linear-gradient-11" x1="445.15" y1="82.54" x2="461.7" y2="-17.05" gradientTransform="translate(0 142) scale(1 -1)" gradientUnits="userSpaceOnUse"><stop offset="0" stop-color="#faaf3a"/><stop offset="1" stop-color="#f05a26"/></linearGradient></defs><g id="Layer_1-2"><g><g><g><rect class="cls-10" x="166.06" y="47.42" width="17.58" height="16.05"/><rect class="cls-1" x="183.63" y="63.47" width="12.99" height="13.76"/><rect class="cls-9" x="175.99" y="77.23" width="7.64" height="9.17"/><rect class="cls-11" x="167.58" y="49.72" width="15.29" height="13.76"/><rect class="cls-6" x="186.69" y="65" width="9.17" height="12.23"/><rect class="cls-3" x="176.76" y="78" width="6.11" height="6.88"/></g><g><path class="cls-7" d="m153.83,38.25c1.05-9.19-5.1-16.96-14.71-16.81h-33.44v-12.69c0-4.74-4.23-8.13-8.92-8.64-.09-.02-.18-.03-.27-.03-.32-.03-.64-.04-.96-.04h-33.89c-.28,0-.56-.02-.83-.02h-.15c-12.33.11-8.76,13.52-9.25,21.42H13.71c-6.25,0-10.29,3.22-11.92,8.34,0,.01,0,.02,0,.04-.08.24-.15.49-.21.74-.16.57-.28,1.16-.37,1.78-.15,1-.23,2.05-.23,3.15.05,11.66-.06,21.83-.19,30.69-.2,15.03-.46,26.32-.05,34.76.04.78.09,1.54.14,2.27.59,8.6,2.04,13.94,5.27,17.17,1.56,1.57,3.53,2.64,6.02,3.35h.02c7.41,2.1,19.4,1,38.67.12,6.24-.29,13.25-.55,21.11-.67,1.45-.03,2.93-.05,4.43-.06,3.23-.02,6.59-.02,10.1,0,7.59.07,15.84.29,24.81.73l20.05,16.48-.71-16.48c11.6,1.18,22.73-1.98,23.19-15.7v-53.08h-17.58v12.99h-12.23v-12.99h-7.64v-5.35h7.64v5.35h12.23v-16.82h17.58Zm-16.05,74.14h-20.64v-31.34h20.64v31.34ZM90.06,6.92c2.83,0,6.12-.07,7.41,1.64.36.47.56,1.08.56,1.86v11.02h-37.45v-11.02c0-3.62.06-3.5,3.67-3.5h25.81Zm23.26,105.47h-20.64v-47.39h20.64v47.39Zm-48.92-67.26v67.26h-20.63V45.13s20.63,0,20.63,0Zm-45.09,35.92h19.11v31.34h-19.11v-31.34Zm48.92-5.35h20.63v36.69h-20.63v-36.69Z"/><path class="cls-12" d="m123.79,54.46h10.66v-17.76h17.76c.52-8.03-4.92-14.28-13.17-14.2h-35.37c-.31-6.67,2.34-21-6.91-22.39-.09-.02-.18-.03-.27-.03-.33-.05-.67-.07-1.03-.08h-33.9c-.26,0-.51,0-.75.02h-.15c-12.42.61-8.44,14.61-9.08,22.48-16.04-.32-27.2-.69-34.91,0-8.76.78-13.09,2.93-15.1,8.06-.2.5-.38,1.04-.53,1.6-1.79,6.5-.85,17.05-.26,34.02.2,5.57.36,11.84.38,18.88,0,5.55-.07,11.59-.29,18.15-.03.79-.05,1.58-.09,2.38-.03.84-.06,1.7-.1,2.56,0,2.58.64,5.23,1.82,7.57.9,1.79,2.13,3.4,3.64,4.66,2.02,1.69,4.55,2.74,7.49,2.74h98.02l18.33,15.06-.65-15.06c12.16.88,22.09-.71,22.88-14.97v-51.32h-15.39v13.02h-15.39v-13.02h-8.29v-10.66h10.65s0,8.29,0,8.29ZM57.5,10.42c-.02-4.9,3.5-4.5,6.68-4.5h27.3c3.03,0,5.25.49,5.99,2.64.19.52.28,1.13.28,1.86v12.08h-40.25s0-12.08,0-12.08Zm-19.08,101.97h-19.11v-31.34h19.11v31.34Zm25.98,0h-20.63V45.13h20.63v67.26Zm3.83,0v-36.69h20.63v36.69h-20.63Zm69.55-31.34v31.34h-20.64v-31.34h20.64Zm-24.46-16.05v47.39h-20.64v-47.39h20.64Z"/><path class="cls-8" d="m123.79,54.46h10.66v-17.76h17.76c.52-8.03-4.92-14.28-13.17-14.2h-35.37c-.31-6.67,2.34-21-6.91-22.39-.09-.02-.18-.03-.27-.03-.33-.05-.67-.07-1.03-.08h-33.9c-.26,0-.51,0-.75.02h-.15c-12.42.61-8.44,14.61-9.08,22.48H13.63c-5.5-.03-9.87,2.78-11.84,7.28,0,.01,0,.02,0,.04-.32.73-.58,1.5-.76,2.32l.02.02c.05.06.11.12.16.18,8.72,9.37,18.37,17.43,28.73,24.28,4.49,2.97,9.11,5.72,13.84,8.25v-19.74h20.63v29.14c.6.24,1.21.47,1.81.69.67.25,1.34.5,2.02.74h20.63v6.26c1.27.31,2.54.62,3.82.91v-17.87h20.64v21.65c1.27.18,2.55.35,3.82.5v-6.1h20.64v7.81c4.8.22,9.62.3,14.43.27v-32.3h-15.39v13.02h-15.39v-13.02h-8.29v-10.66h10.65s0,8.29,0,8.29Zm-26.04-31.96h-40.25v-12.08c-.02-4.9,3.5-4.5,6.68-4.5h27.3c3.03,0,5.25.49,5.99,2.64.19.52.28,1.13.28,1.86,0,0,0,12.08,0,12.08Z"/><path class="cls-5" d="m117.14,112.39v-31.34h-.37l-3.45,3.79v27.55h-20.64v-47.39h-.77l-6.57,10.7h3.52v36.69h-20.63v-36.69h5.51l-6.69-1.14-.84.4-1.81.85v36.58h-20.63V45.67l-.88-1.87-12.96,12.82L1.16,85.06l-.19.18c.35,3.99-.16,9.8-.24,15.7-.02,1.55,0,3.11.05,4.65.16,3.66.63,7.18,1.72,10.13,1.58,4.27,4.48,7.36,9.66,8.01h.02c.75.09,1.55.13,2.39.12h53.66l3.73-.67.31-.06,59.37-10.73h-14.5Zm-97.83-31.34h19.11v31.34h-19.11v-31.34Z"/></g></g><g><g><path class="cls-2" d="m280.95,28.29l-12.74,38.71-12.48-38.71h-11.72l-12.89,38.42-12.33-38.42h-13.12l17.96,54.67h13.52l12.39-37.06,12.12,37.06h13.44l17.96-54.67h-12.1Z"/><path class="cls-2" d="m342.02,50.74c-1.99-3.25-4.72-5.8-8.2-7.65-3.49-1.85-7.47-2.77-11.95-2.77s-8.37.93-11.83,2.77c-3.46,1.86-6.18,4.4-8.15,7.65-1.99,3.26-2.97,6.99-2.97,11.21s.99,7.87,2.97,11.13c1.98,3.25,4.69,5.82,8.15,7.69s7.41,2.81,11.83,2.81,8.46-.94,11.95-2.81c3.48-1.88,6.22-4.42,8.2-7.65,1.98-3.22,2.96-6.95,2.96-11.16s-.99-7.95-2.96-11.21Zm-10.82,17.46c-.97,1.77-2.24,3.11-3.83,4.02s-3.42,1.37-5.51,1.37c-1.98,0-3.77-.46-5.39-1.37s-2.9-2.25-3.86-4.02c-.97-1.77-1.45-3.85-1.45-6.25s.48-4.53,1.45-6.26c.96-1.72,2.24-3.02,3.86-3.94,1.62-.91,3.44-1.37,5.47-1.37s3.84.46,5.43,1.37c1.59.92,2.86,2.23,3.83,3.94.96,1.73,1.45,3.8,1.45,6.26s-.49,4.48-1.45,6.25h0Z"/><path class="cls-2" d="m370.68,42.62c-1.78.99-3.24,2.27-4.38,3.85v-5.53h-11.63v42.02h12.18v-19.84c0-4.01,1.02-6.97,3.04-8.9,2.04-1.93,4.77-2.89,8.2-2.89.42,0,.85.03,1.29.08.45.05.9.13,1.37.23v-11.32c-3.95,0-7.31.78-10.07,2.3h0Z"/><path class="cls-2" d="m389.89,25.01v57.95h12.18V25.01h-12.18Zm29.99,15.93l-17.81,16.81-1.8,1.7-.31,14.92,2.11-2.06,5.92-5.77,1.27-1.24,6.33-5.23,1.33-1.35,17.5-17.79h-14.53,0Zm-2.97,17.79l-2.25-2.87-7.66,9.45,1,1.24,13.22,16.41h14.76s-19.06-24.23-19.06-24.23Z"/><path class="cls-2" d="m506.93,59.88c-1.18-1.9-2.69-3.4-4.57-4.53-1.88-1.12-3.93-2.04-6.18-2.77-2.23-.73-4.5-1.34-6.79-1.84-2.28-.49-4.37-.99-6.25-1.48-1.88-.5-3.38-1.19-4.53-2.08-1.15-.88-1.72-2.06-1.72-3.51,0-1.15.35-2.19,1.06-3.12.7-.94,1.81-1.68,3.31-2.23,1.52-.55,3.51-.82,6.02-.82s4.89.35,7.49,1.05c2.6.71,5.13,1.76,7.58,3.16l3.98-9.53c-2.5-1.56-5.43-2.75-8.79-3.59-3.35-.83-6.75-1.25-10.19-1.25-5.16,0-9.44.77-12.85,2.3-3.41,1.54-5.95,3.59-7.61,6.17-1.67,2.58-2.49,5.43-2.49,8.56,0,2.86.55,5.24,1.68,7.14,1.12,1.9,2.62,3.43,4.53,4.61,1.9,1.17,3.98,2.11,6.25,2.8,2.26.71,4.52,1.31,6.75,1.8,2.23.5,4.31,1.02,6.21,1.57,1.91.55,3.42,1.25,4.57,2.11s1.72,2.03,1.72,3.48c0,1.14-.36,2.15-1.09,3s-1.87,1.55-3.4,2.07c-1.54.53-3.55.79-6.05.79-3.28,0-6.54-.54-9.77-1.61-3.22-1.07-5.99-2.43-8.27-4.1l-4.3,9.53c2.44,1.88,5.69,3.4,9.73,4.57,4.03,1.18,8.23,1.76,12.61,1.76,5.15,0,9.45-.78,12.88-2.34,3.44-1.56,6.01-3.61,7.69-6.17,1.7-2.55,2.54-5.36,2.54-8.43,0-2.81-.59-5.17-1.76-7.07h0Z"/><path class="cls-2" d="m543.52,72.22c-1.62.91-3.39,1.37-5.32,1.37-2.03,0-3.87-.46-5.54-1.37s-2.99-2.23-3.98-3.98c-1-1.75-1.49-3.84-1.49-6.29s.49-4.53,1.49-6.26c.99-1.72,2.31-3.02,3.98-3.94,1.67-.91,3.51-1.37,5.54-1.37s3.7.46,5.32,1.37c1.61.92,2.99,2.35,4.14,4.34l9.37-5.16c-1.46-3.38-3.84-6-7.14-7.85-3.31-1.85-7.17-2.77-11.6-2.77s-8.55.94-12.06,2.81-6.28,4.43-8.28,7.65c-2.01,3.23-3,6.95-3,11.17s1,7.88,3,11.16c2.01,3.28,4.77,5.85,8.28,7.69,3.51,1.85,7.53,2.77,12.06,2.77s8.29-.94,11.6-2.81c3.3-1.88,5.69-4.48,7.14-7.81l-9.37-5.15c-1.15,2.03-2.53,3.5-4.14,4.41Z"/><path class="cls-2" d="m605.84,50.74c-1.98-3.25-4.71-5.8-8.2-7.65-3.49-1.85-7.47-2.77-11.94-2.77s-8.37.93-11.83,2.77c-3.46,1.86-6.19,4.4-8.16,7.65-1.99,3.26-2.97,6.99-2.97,11.21s.99,7.87,2.97,11.13c1.98,3.25,4.7,5.82,8.16,7.69s7.4,2.81,11.83,2.81,8.45-.94,11.94-2.81,6.23-4.42,8.2-7.65c1.98-3.22,2.96-6.95,2.96-11.16s-.99-7.95-2.96-11.21Zm-10.82,17.46c-.97,1.77-2.24,3.11-3.83,4.02s-3.42,1.37-5.5,1.37-3.78-.46-5.4-1.37c-1.61-.91-2.9-2.25-3.86-4.02-.97-1.77-1.45-3.85-1.45-6.25s.48-4.53,1.45-6.26c.96-1.72,2.25-3.02,3.86-3.94,1.62-.91,3.44-1.37,5.47-1.37s3.84.46,5.43,1.37c1.59.92,2.86,2.23,3.83,3.94.96,1.73,1.45,3.8,1.45,6.26s-.49,4.48-1.45,6.25Z"/><path class="cls-2" d="m648.71,40.94v20.85c0,2.5-.43,4.58-1.29,6.25-.86,1.67-2.02,2.92-3.47,3.75-1.46.84-3.12,1.25-5,1.25-2.7,0-4.8-.82-6.29-2.45-1.49-1.65-2.22-4.23-2.22-7.77v-21.87h-12.18v23.75c0,4.27.75,7.8,2.26,10.62,1.51,2.81,3.61,4.9,6.33,6.25,2.7,1.36,5.83,2.04,9.37,2.04,3.22,0,6.2-.74,8.9-2.23,1.61-.88,2.99-2.01,4.14-3.39v4.99h11.56v-42.02h-12.11Z"/><path class="cls-2" d="m668.63,41.88v9.37h29.13v-9.37h-29.13Zm28.83,30.46c-1.36,1.04-3.02,1.56-5,1.56-1.57,0-2.8-.49-3.71-1.48-.92-.99-1.37-2.37-1.37-4.14V31.65h-12.26v36.86c0,5,1.38,8.76,4.14,11.28,2.75,2.52,6.61,3.79,11.55,3.79,1.88,0,3.68-.22,5.43-.67,1.75-.44,3.21-1.1,4.42-1.99l-3.2-8.59h0Z"/></g><path class="cls-4" d="m220.91,99.27c-.03-.05-.11-.11-.21-.14-.11-.04-.25-.07-.43-.11-.17-.02-.38-.03-.63-.03-.27,0-.49.01-.65.03-.16.04-.31.07-.4.11-.11.03-.19.09-.23.14-.04.07-.05.13-.05.22v8.1h-9.22v-8.1c0-.09-.02-.15-.05-.22-.04-.05-.12-.11-.22-.14-.11-.04-.24-.07-.43-.11-.16-.02-.38-.03-.64-.03-.24,0-.47.01-.64.03-.17.04-.32.07-.41.11-.11.03-.17.09-.22.14-.04.07-.08.13-.08.22v19.42c0,.09.03.16.08.22.04.07.11.12.22.16.1.03.24.07.41.09.17.03.4.04.64.04.26,0,.48-.01.64-.04.19-.02.32-.05.43-.09.1-.04.17-.1.22-.16.03-.05.05-.13.05-.22v-8.98h9.22v8.98c0,.09.01.16.05.22.04.07.12.12.23.16.1.03.24.07.4.09.16.03.38.04.65.04.25,0,.46-.01.63-.04.17-.02.32-.05.43-.09.1-.04.17-.1.21-.16.04-.05.07-.13.07-.22v-19.42c0-.09-.02-.15-.07-.22Zm17.44,8.96c-.23-.81-.59-1.52-1.1-2.12-.49-.6-1.13-1.08-1.92-1.43-.77-.35-1.71-.52-2.81-.52-1.04,0-1.97.17-2.79.53-.84.35-1.55.87-2.15,1.55-.58.67-1.04,1.48-1.35,2.45-.31.96-.46,2.05-.46,3.25,0,1.29.15,2.4.45,3.36.29.96.75,1.75,1.34,2.39.6.63,1.33,1.11,2.2,1.43.87.33,1.89.49,3.04.49.67,0,1.3-.04,1.89-.14.58-.1,1.1-.21,1.55-.35.46-.12.82-.25,1.09-.38.28-.12.46-.22.51-.27.07-.05.11-.12.14-.17.03-.08.07-.14.08-.23.02-.08.03-.16.04-.26s.01-.21.01-.35c0-.19-.01-.35-.02-.48s-.04-.23-.07-.29c-.03-.08-.08-.13-.13-.16-.07-.04-.13-.05-.2-.05-.14,0-.33.05-.57.16s-.57.23-.94.36c-.38.13-.84.26-1.36.37s-1.11.16-1.79.16c-.85,0-1.57-.12-2.15-.36-.6-.24-1.07-.58-1.44-1.04-.36-.45-.62-.98-.77-1.6-.17-.63-.25-1.33-.25-2.12h9.28c.26,0,.49-.08.69-.26.21-.17.32-.46.32-.86v-.47c0-.92-.13-1.79-.36-2.59h0Zm-9.93,2.29c.02-.58.12-1.12.31-1.66.19-.52.44-.98.75-1.37.33-.4.73-.72,1.22-.96.48-.24,1.05-.35,1.68-.35,1.24,0,2.18.38,2.83,1.16.63.75.94,1.83.91,3.19h-7.69Zm17.37-12.71s-.11-.11-.21-.15-.22-.07-.38-.09c-.17-.02-.38-.03-.65-.03-.24,0-.45.01-.61.03s-.31.04-.41.09c-.09.04-.16.1-.2.15-.03.07-.05.14-.05.22v20.9c0,.08.02.15.05.21s.11.12.2.15c.11.04.25.08.41.1s.37.03.61.03c.27,0,.48-.01.65-.03.16-.02.28-.05.38-.1.1-.03.16-.1.21-.15s.07-.13.07-.21v-20.9c0-.08-.02-.15-.07-.22Zm18.11,10.96c-.21-.92-.53-1.72-.98-2.4-.47-.69-1.06-1.23-1.77-1.63-.72-.39-1.59-.59-2.62-.59-.46,0-.92.05-1.33.16-.43.1-.84.26-1.23.47-.4.22-.81.49-1.21.82-.39.32-.8.7-1.23,1.13v-1.9c0-.09-.01-.16-.05-.22-.03-.05-.1-.11-.19-.15-.1-.03-.21-.07-.35-.08-.15-.02-.33-.03-.55-.03s-.38.01-.52.03c-.16.01-.27.04-.37.08-.09.04-.15.1-.19.15s-.04.13-.04.22v19.67c0,.09.01.15.05.22.03.07.1.11.2.15s.23.08.4.1c.16.01.37.02.62.02s.48-.01.64-.02c.16-.02.29-.05.39-.1.09-.04.15-.09.2-.15s.08-.13.08-.22v-7.04c.37.36.72.68,1.06.95.33.27.67.49,1.01.67.33.19.68.32,1.04.4.35.08.73.12,1.16.12.98,0,1.85-.19,2.61-.56.76-.37,1.41-.89,1.92-1.57.51-.69.91-1.53,1.17-2.51.27-.97.4-2.08.4-3.31,0-1.03-.1-2-.32-2.9h0Zm-2.56,5.15c-.13.65-.35,1.23-.64,1.76-.28.51-.65.94-1.13,1.24-.46.33-1.03.48-1.67.48-.7,0-1.37-.24-2.01-.7-.64-.45-1.33-1.11-2.03-1.99v-5.6c.4-.51.79-.94,1.16-1.29s.71-.63,1.06-.85c.33-.21.65-.37.99-.47.32-.09.64-.14.99-.14.67,0,1.23.15,1.67.47.46.32.82.73,1.08,1.24.27.52.46,1.12.57,1.79.11.68.16,1.37.16,2.09,0,.65-.07,1.31-.2,1.95Zm9.94-10.04c-.22-.21-.64-.32-1.24-.32s-1.04.11-1.27.33c-.23.23-.35.63-.35,1.24s.12,1,.34,1.21c.23.21.64.32,1.25.32s1.04-.11,1.25-.33c.23-.21.35-.63.35-1.23s-.11-.99-.34-1.22h0Zm-.02.77c-.04-.07-.11-.11-.2-.15-.11-.04-.24-.08-.4-.1s-.37-.03-.63-.03-.47.01-.63.03-.29.05-.39.1c-.11.04-.17.09-.21.15-.04.07-.05.13-.05.2v14.08c0,.08.01.15.05.21.03.05.1.12.21.15.1.04.23.08.39.1s.37.03.63.03.47-.01.63-.03.29-.05.4-.1c.09-.03.15-.1.2-.15.04-.05.07-.13.07-.21v-14.08c0-.07-.02-.13-.07-.2Zm17.33,3.12c-.17-.72-.46-1.33-.85-1.88-.39-.52-.92-.95-1.55-1.27-.65-.32-1.44-.47-2.38-.47-.81,0-1.59.2-2.39.61-.79.41-1.58,1.06-2.37,1.94v-1.87c0-.08-.02-.14-.05-.21-.04-.05-.1-.11-.19-.15-.08-.04-.2-.08-.35-.09-.14-.02-.34-.03-.57-.03s-.44.01-.58.03c-.14.01-.26.04-.36.09s-.16.1-.19.15c-.03.07-.05.13-.05.21v14.08c0,.08.02.15.05.21.04.05.11.12.21.15.11.04.24.08.4.1s.37.03.62.03.48-.01.64-.03.29-.05.38-.1c.11-.03.17-.1.22-.15.03-.05.05-.13.05-.21v-9.84c.71-.88,1.39-1.56,2.04-2.02.63-.46,1.29-.69,1.94-.69.49,0,.94.1,1.31.28.38.19.7.47.94.82.23.35.41.77.53,1.27.14.49.2,1.13.2,1.93v8.25c0,.08.02.15.07.21s.11.12.21.15c.09.04.22.08.38.1s.38.03.64.03.46-.01.63-.03c.16-.02.29-.05.38-.1.1-.03.16-.1.21-.15.03-.05.05-.13.05-.21v-8.58c0-1-.08-1.85-.25-2.57h0Zm17.21-1.48c.1-.15.15-.43.15-.79s-.04-.62-.13-.8-.22-.25-.39-.25h-4.27c-.33-.09-.67-.15-1.04-.2-.37-.04-.76-.08-1.2-.08-.8,0-1.52.12-2.19.35-.68.24-1.25.57-1.73,1.01-.47.44-.86.97-1.12,1.61-.27.63-.4,1.35-.4,2.16,0,.68.1,1.27.28,1.75.19.49.45.93.76,1.32-.39.39-.71.84-.97,1.34-.25.5-.39,1.06-.39,1.7,0,.46.13.88.37,1.28s.61.73,1.13.99c-.33.25-.63.51-.88.79-.25.26-.47.55-.64.84s-.31.6-.38.93c-.09.32-.13.64-.13.99,0,.55.12,1.05.35,1.51.23.47.6.87,1.1,1.2.52.33,1.18.6,1.96.8.81.19,1.77.28,2.9.28s2.2-.13,3.07-.38c.87-.25,1.58-.61,2.14-1.05.57-.45.97-.96,1.25-1.55.26-.58.4-1.19.4-1.84,0-.61-.12-1.16-.36-1.61-.25-.47-.58-.85-1-1.17-.44-.33-.93-.57-1.52-.74-.58-.16-1.23-.26-1.93-.28l-3.67-.15c-.57-.02-1.01-.16-1.36-.4-.33-.23-.5-.53-.5-.91,0-.31.07-.58.17-.83.12-.24.27-.45.46-.63.29.23.69.41,1.21.57.51.14,1.06.23,1.63.23.82,0,1.56-.12,2.21-.35.68-.23,1.25-.56,1.73-.99.49-.43.86-.96,1.11-1.58.26-.63.4-1.35.4-2.16,0-.49-.08-.96-.23-1.42-.14-.45-.39-.87-.75-1.24h2.02c.15,0,.27-.08.37-.24h0Zm-10.31,13.43c.12-.21.29-.43.5-.68.21-.23.49-.47.83-.73l3.64.12c.85.02,1.51.2,2.01.52.49.34.74.8.74,1.41,0,.35-.08.69-.22,1.01-.13.32-.36.6-.69.85-.33.26-.75.46-1.28.61-.52.14-1.18.22-1.96.22-1.23,0-2.19-.17-2.88-.51-.69-.36-1.04-.87-1.04-1.55,0-.22.02-.43.09-.63.04-.22.13-.43.25-.64h0Zm6.25-9.34c-.12.37-.31.7-.56.99-.24.28-.55.5-.92.67-.38.17-.83.25-1.34.25-.95,0-1.68-.27-2.21-.8-.52-.53-.79-1.27-.79-2.19,0-.43.05-.82.17-1.2.13-.38.31-.71.56-1.01.24-.28.55-.51.92-.68s.81-.25,1.31-.25c.97,0,1.72.27,2.24.8.53.55.8,1.3.8,2.26,0,.4-.07.79-.17,1.17Zm28.63-11.19c-.09-.08-.23-.12-.45-.16-.21-.02-.51-.03-.88-.03-.26,0-.49.01-.68.02-.17.02-.31.07-.4.1-.1.04-.17.1-.24.16-.05.08-.1.16-.13.26l-2.81,5.86c-.26.57-.52,1.15-.77,1.75-.25.58-.49,1.18-.74,1.77h-.03c-.26-.61-.52-1.22-.8-1.83-.25-.6-.51-1.18-.76-1.73l-2.8-5.81c-.05-.11-.11-.19-.16-.26-.05-.07-.14-.11-.25-.15-.13-.03-.28-.08-.47-.1-.2,0-.45-.02-.76-.02-.34,0-.61.01-.81.02-.22.02-.35.09-.44.15-.08.08-.1.17-.08.32.03.13.1.32.21.56l5.73,11.42v7.45c0,.09.02.16.07.22.04.07.12.12.23.16.1.03.24.07.43.09.16.03.38.04.63.04s.47-.01.64-.04c.17-.02.32-.05.41-.09.1-.04.17-.1.22-.16.05-.05.07-.13.07-.22v-7.45l5.72-11.42c.12-.23.19-.41.22-.55.02-.13-.01-.24-.09-.31h0Zm13.93,9.38c-.28-.95-.73-1.75-1.29-2.39-.58-.67-1.29-1.17-2.15-1.52-.86-.34-1.88-.5-3.03-.5s-2.25.19-3.14.57c-.89.39-1.65.93-2.25,1.64-.6.69-1.05,1.52-1.34,2.49-.29.96-.45,2.02-.45,3.16s.14,2.26.43,3.2c.27.93.71,1.73,1.28,2.39.58.67,1.3,1.16,2.15,1.49.86.36,1.87.52,3.02.52s2.25-.2,3.15-.59c.88-.38,1.64-.94,2.25-1.63.59-.71,1.05-1.54,1.34-2.5.31-.97.47-2.03.47-3.17s-.15-2.23-.44-3.16h0Zm-2.5,5.57c-.16.68-.44,1.27-.79,1.76-.36.49-.82.87-1.37,1.13-.56.28-1.22.41-1.97.41-.83,0-1.53-.14-2.08-.45-.56-.29-1-.7-1.34-1.21-.33-.49-.56-1.09-.71-1.78-.14-.67-.21-1.4-.21-2.17s.09-1.54.26-2.21c.17-.68.44-1.27.8-1.77.36-.48.81-.87,1.36-1.15.55-.26,1.21-.4,1.99-.4.82,0,1.52.15,2.08.45.55.29.99.7,1.32,1.21s.57,1.1.71,1.78c.14.69.21,1.4.21,2.16,0,.82-.09,1.56-.25,2.24h0Zm19.35-9.5s-.11-.11-.21-.15c-.09-.04-.23-.08-.39-.09-.17-.02-.37-.03-.62-.03-.27,0-.48.01-.64.03-.15.01-.28.04-.39.09-.1.04-.19.1-.22.15-.03.07-.05.13-.05.21v9.84c-.71.89-1.4,1.57-2.04,2.02-.63.46-1.28.7-1.93.7-.49,0-.94-.1-1.31-.29-.37-.2-.69-.47-.94-.81-.24-.36-.41-.77-.53-1.28-.12-.49-.19-1.16-.19-1.97v-8.2c0-.08-.02-.14-.07-.21-.04-.05-.11-.11-.21-.15s-.23-.08-.39-.09c-.17-.02-.38-.03-.63-.03s-.46.01-.62.03c-.17.01-.31.04-.41.09-.1.04-.17.1-.21.15-.03.07-.05.13-.05.21v8.55c0,1.01.09,1.89.26,2.6.16.72.46,1.34.85,1.88.39.55.92.96,1.56,1.28.63.32,1.43.47,2.37.47.81,0,1.58-.2,2.37-.61.79-.4,1.58-1.06,2.39-1.94v1.87c0,.08.01.15.04.21s.09.12.17.15c.09.04.21.08.36.1.15.02.35.03.59.03.22,0,.4-.01.56-.03.14-.02.27-.05.37-.1.09-.03.15-.1.2-.15.03-.05.05-.13.05-.21v-14.08c0-.08-.03-.14-.08-.21h0Zm28.88-5.3c-.04-.07-.12-.12-.22-.16-.1-.04-.23-.08-.4-.1-.17-.03-.39-.04-.63-.04-.27,0-.49.01-.67.04-.17.02-.31.05-.41.1-.1.04-.17.1-.22.16-.04.07-.07.13-.07.2v10.98c0,.83,0,1.68.01,2.56,0,.89,0,1.76.03,2.57h-.01c-.24-.49-.49-.97-.74-1.45-.24-.49-.49-.98-.75-1.48-.24-.5-.5-1.01-.77-1.52-.28-.52-.56-1.06-.85-1.59l-4.75-8.89c-.17-.32-.33-.59-.49-.81-.16-.21-.32-.37-.48-.49-.17-.12-.36-.21-.57-.26-.22-.04-.47-.08-.79-.08h-1.32c-.28,0-.53.09-.77.26-.23.17-.36.47-.36.89v18.66c0,.08.02.14.07.21.04.08.12.13.22.17.1.03.23.07.4.09.16.03.38.04.65.04s.48-.01.64-.04c.19-.02.32-.05.43-.09.1-.04.17-.1.22-.17.04-.07.07-.13.07-.21v-12.21c0-.77-.01-1.55-.02-2.33-.01-.77-.02-1.55-.04-2.3h.03c.28.62.59,1.25.92,1.9.33.65.65,1.29.97,1.88l6.17,11.52c.21.39.41.73.61.99.19.26.37.47.56.61.19.15.39.25.6.33.21.05.46.08.73.08h.89c.14,0,.28-.01.43-.05s.26-.12.37-.22c.12-.09.21-.21.27-.35.09-.14.12-.33.12-.53v-18.67c0-.07-.02-.13-.08-.2h0Zm16.09,7.82c-.2-.67-.51-1.22-.95-1.66-.44-.45-1.01-.77-1.71-1-.72-.23-1.58-.34-2.59-.34-.53,0-1.08.04-1.6.14-.55.1-1.03.22-1.48.37-.44.15-.84.32-1.18.51-.35.17-.6.33-.73.47-.14.13-.23.27-.26.43-.04.16-.05.36-.05.62,0,.15.01.29.02.44.02.13.05.23.11.32.04.08.1.14.16.19.05.04.13.07.21.07.14,0,.33-.08.58-.23s.58-.32.96-.5c.37-.19.82-.35,1.32-.5.51-.14,1.08-.22,1.72-.22.59,0,1.09.07,1.49.21.41.14.74.34.99.62.26.28.45.62.56,1.04.11.43.17.89.17,1.44v1.1h-1.94c-1.09,0-2.08.09-2.96.28-.88.19-1.61.49-2.23.87-.59.39-1.07.86-1.39,1.45-.33.58-.49,1.28-.49,2.07,0,.67.12,1.28.36,1.8.23.53.56.98.98,1.35.43.36.94.63,1.53.84.61.19,1.28.28,2.02.28.84,0,1.65-.17,2.39-.55.76-.37,1.45-.88,2.07-1.53v1.4c0,.13.03.22.11.28.07.07.19.12.35.14.15.03.37.05.65.05s.48-.02.63-.05c.14-.02.26-.08.35-.14.08-.07.12-.15.12-.28v-9.49c0-.87-.1-1.65-.31-2.29h0Zm-2.26,8.34c-.63.7-1.24,1.23-1.83,1.57-.57.36-1.2.52-1.87.52-.84,0-1.49-.21-1.95-.65-.47-.43-.7-1.01-.7-1.73,0-.43.08-.81.24-1.15.16-.32.41-.6.76-.83.34-.24.77-.41,1.29-.53.53-.12,1.13-.19,1.85-.19h2.2s0,2.99,0,2.99Zm18.89-10.9s-.1-.1-.19-.14c-.09-.04-.21-.07-.37-.08-.15,0-.35-.02-.59-.02-.28,0-.51.01-.69.03-.16.01-.29.04-.39.08-.1.04-.17.1-.24.16-.05.05-.09.13-.11.23l-3.93,11.61-.04.19-.07-.19-3.97-11.61c-.04-.1-.09-.17-.13-.23-.04-.07-.12-.12-.22-.16-.1-.03-.24-.07-.41-.08-.2-.02-.44-.03-.73-.03-.24,0-.45.01-.61.02-.15.01-.28.03-.38.07-.1.04-.17.09-.21.15-.04.05-.07.13-.07.22,0,.02,0,.07.01.11,0,.05.02.12.04.22.02.1.05.21.1.33l4.79,13.37c.04.1.1.19.17.26.07.07.17.14.29.17.13.04.31.08.51.1s.47.03.77.03c.33,0,.58-.01.79-.02.21-.02.38-.04.52-.09.13-.04.24-.11.31-.19.07-.07.12-.16.16-.27l4.8-13.37c.02-.07.03-.14.05-.2,0-.07.03-.12.03-.19.01-.05.02-.1.03-.14v-.13c0-.09-.01-.15-.05-.22h0Zm6.16-.73c-.22-.21-.64-.32-1.24-.32s-1.04.11-1.27.33c-.23.23-.35.63-.35,1.24s.11,1,.35,1.21c.22.21.63.32,1.24.32s1.04-.11,1.25-.33c.23-.21.35-.63.35-1.23s-.12-.99-.34-1.22Zm-.02.77c-.04-.07-.11-.11-.2-.15-.1-.04-.23-.08-.4-.1-.16-.02-.37-.03-.63-.03s-.47.01-.63.03-.29.05-.39.1c-.1.04-.16.09-.2.15-.04.07-.07.13-.07.2v14.08c0,.08.02.15.07.21.03.05.1.12.2.15.1.04.23.08.39.1s.38.03.63.03.47-.01.63-.03c.17-.02.31-.05.4-.1.09-.03.15-.1.2-.15.04-.05.07-.13.07-.21v-14.08c0-.07-.02-.13-.07-.2Zm17.08,1.64c.1-.15.15-.43.15-.79s-.04-.62-.13-.8-.22-.25-.4-.25h-4.25c-.33-.09-.67-.15-1.05-.2-.36-.04-.75-.08-1.19-.08-.8,0-1.52.12-2.19.35-.68.24-1.25.57-1.73,1.01-.48.44-.86.97-1.12,1.61-.27.63-.4,1.35-.4,2.16,0,.68.1,1.27.28,1.75.19.49.44.93.76,1.32-.39.39-.71.84-.97,1.34-.26.5-.39,1.06-.39,1.7,0,.46.13.88.37,1.28s.61.73,1.13.99c-.34.25-.63.51-.88.79-.26.26-.47.55-.65.84-.16.29-.29.6-.37.93-.09.32-.13.64-.13.99,0,.55.12,1.05.35,1.51.22.47.6.87,1.1,1.2.52.33,1.17.6,1.96.8.81.19,1.77.28,2.9.28s2.2-.13,3.07-.38c.87-.25,1.58-.61,2.14-1.05.56-.45.97-.96,1.25-1.55.26-.58.39-1.19.39-1.84,0-.61-.11-1.16-.35-1.61-.25-.47-.58-.85-1-1.17-.44-.33-.94-.57-1.52-.74-.59-.16-1.23-.26-1.93-.28l-3.67-.15c-.57-.02-1.01-.16-1.36-.4-.34-.23-.5-.53-.5-.91,0-.31.07-.58.17-.83.12-.24.27-.45.46-.63.29.23.69.41,1.2.57.52.14,1.07.23,1.64.23.82,0,1.56-.12,2.21-.35.68-.23,1.25-.56,1.73-.99.49-.43.86-.96,1.11-1.58.26-.63.4-1.35.4-2.16,0-.49-.09-.96-.23-1.42-.14-.45-.39-.87-.75-1.24h2.01c.16,0,.28-.08.38-.24h0Zm-10.31,13.43c.12-.21.29-.43.5-.68.21-.23.49-.47.82-.73l3.65.12c.83.02,1.51.2,2.01.52.49.34.74.8.74,1.41,0,.35-.08.69-.22,1.01-.13.32-.36.6-.7.85-.32.26-.74.46-1.27.61-.52.14-1.18.22-1.96.22-1.23,0-2.19-.17-2.88-.51-.69-.36-1.04-.87-1.04-1.55,0-.22.02-.43.08-.63.04-.22.14-.43.26-.64h0Zm6.24-9.34c-.11.37-.29.7-.55.99-.24.28-.55.5-.94.67-.37.17-.81.25-1.32.25-.95,0-1.69-.27-2.21-.8-.52-.53-.79-1.27-.79-2.19,0-.43.05-.82.17-1.2s.31-.71.56-1.01c.24-.28.55-.51.92-.68s.81-.25,1.31-.25c.97,0,1.71.27,2.24.8.53.55.8,1.3.8,2.26,0,.4-.07.79-.19,1.17h0Zm17.89-3.22c-.21-.67-.52-1.22-.95-1.66-.45-.45-1.01-.77-1.72-1-.72-.23-1.58-.34-2.59-.34-.55,0-1.08.04-1.61.14-.53.1-1.01.22-1.47.37-.44.15-.83.32-1.19.51-.34.17-.58.33-.73.47-.13.13-.22.27-.26.43-.03.16-.05.36-.05.62,0,.15.01.29.03.44.02.13.05.23.1.32.05.08.11.14.16.19.07.04.15.07.23.07.13,0,.32-.08.57-.23.25-.15.58-.32.95-.5.39-.19.83-.35,1.33-.5.51-.14,1.09-.22,1.71-.22s1.1.07,1.51.21.73.34,1,.62c.25.28.43.62.55,1.04.11.43.16.89.16,1.44v1.1h-1.93c-1.1,0-2.08.09-2.95.28-.88.19-1.63.49-2.24.87-.6.39-1.07.86-1.39,1.45-.32.58-.49,1.28-.49,2.07,0,.67.13,1.28.36,1.8.23.53.56.98.98,1.35.43.36.94.63,1.53.84.61.19,1.28.28,2.01.28.85,0,1.66-.17,2.41-.55s1.44-.88,2.06-1.53v1.4c0,.13.03.22.11.28.07.07.19.12.34.14.16.03.39.05.65.05.28,0,.49-.02.63-.05.16-.02.27-.08.36-.14.08-.07.12-.15.12-.28v-9.49c0-.87-.1-1.65-.29-2.29h0Zm-2.28,8.34c-.62.7-1.23,1.23-1.81,1.57-.58.36-1.21.52-1.89.52-.83,0-1.48-.21-1.94-.65-.47-.43-.7-1.01-.7-1.73,0-.43.08-.81.24-1.15.15-.32.41-.6.75-.83.35-.24.79-.41,1.3-.53.52-.12,1.13-.19,1.84-.19h2.2v2.99h0Zm14.87,1.63c-.02-.08-.05-.12-.11-.15-.04-.02-.09-.03-.14-.03-.09,0-.17.02-.28.07s-.23.1-.38.15c-.14.04-.31.11-.49.15-.2.04-.41.07-.64.07-.74,0-1.25-.25-1.54-.74-.29-.5-.44-1.22-.44-2.19v-7.85h3.62c.15,0,.27-.09.37-.25.09-.16.13-.45.13-.82,0-.2,0-.36-.02-.5-.02-.13-.05-.24-.11-.33-.04-.09-.1-.15-.15-.19-.07-.04-.14-.05-.22-.05h-3.62v-3.35c0-.09-.02-.15-.07-.21-.03-.07-.11-.12-.2-.16-.1-.04-.22-.09-.39-.1-.17-.02-.38-.03-.64-.03-.24,0-.46.01-.62.03-.16,0-.31.05-.39.1-.1.04-.17.1-.21.16-.03.05-.05.12-.05.21v3.35h-1.95c-.09,0-.17,0-.24.05-.07.03-.12.1-.16.19-.03.09-.07.2-.1.33-.02.14-.03.31-.03.5,0,.37.04.65.13.82.1.16.22.25.38.25h1.97v8.22c0,.82.08,1.53.23,2.12.14.6.38,1.09.72,1.49.34.38.76.68,1.29.87.51.2,1.15.28,1.88.28.24,0,.48-.01.71-.04.25-.03.48-.07.69-.12.21-.04.4-.1.58-.17.16-.08.28-.16.37-.24.08-.09.14-.22.19-.39s.05-.41.05-.72c0-.19,0-.34-.02-.46-.02-.13-.04-.24-.08-.31h0Zm15.47-8.9c-.24-.81-.6-1.52-1.1-2.12-.5-.6-1.13-1.08-1.92-1.43-.76-.35-1.71-.52-2.81-.52-1.03,0-1.96.17-2.8.53-.83.35-1.55.87-2.13,1.55-.6.67-1.05,1.48-1.36,2.45-.31.96-.47,2.05-.47,3.25,0,1.29.15,2.4.46,3.36.31.96.75,1.75,1.35,2.39.58.63,1.32,1.11,2.19,1.43.87.33,1.89.49,3.04.49.67,0,1.29-.04,1.88-.14s1.11-.21,1.56-.35c.45-.12.81-.25,1.09-.38.28-.12.46-.22.51-.27s.1-.12.14-.17c.03-.08.05-.14.08-.23.01-.08.02-.16.03-.26s.02-.21.02-.35c0-.19-.01-.35-.02-.48-.02-.13-.04-.23-.08-.29-.03-.08-.08-.13-.13-.16-.05-.04-.12-.05-.2-.05-.12,0-.32.05-.56.16-.25.11-.56.23-.95.36-.37.13-.84.26-1.35.37-.53.11-1.12.16-1.79.16-.85,0-1.57-.12-2.16-.36s-1.06-.58-1.42-1.04c-.38-.45-.63-.98-.8-1.6-.15-.63-.23-1.33-.23-2.12h9.26c.26,0,.49-.08.7-.26.21-.17.32-.46.32-.86v-.47c0-.92-.12-1.79-.36-2.59h0Zm-9.92,2.29c.02-.58.12-1.12.29-1.66.17-.52.43-.98.76-1.37.32-.4.72-.72,1.2-.96.48-.24,1.05-.35,1.68-.35,1.25,0,2.2.38,2.83,1.16.64.75.94,1.83.91,3.19h-7.67Zm29.93,6.61c-.03-.08-.07-.12-.11-.15-.04-.02-.1-.03-.15-.03-.08,0-.17.02-.27.07-.11.04-.24.1-.38.15-.14.04-.31.11-.5.15-.19.04-.4.07-.64.07-.74,0-1.24-.25-1.53-.74-.29-.5-.44-1.22-.44-2.19v-7.85h3.61c.15,0,.28-.09.37-.25.1-.16.14-.45.14-.82,0-.2,0-.36-.03-.5-.02-.13-.05-.24-.1-.33-.04-.09-.1-.15-.16-.19-.07-.04-.13-.05-.22-.05h-3.61v-3.35c0-.09-.02-.15-.07-.21-.04-.07-.11-.12-.2-.16-.1-.04-.23-.09-.39-.1-.17-.02-.38-.03-.64-.03s-.46.01-.63.03c-.16,0-.29.05-.39.1s-.16.1-.2.16c-.04.05-.05.12-.05.21v3.35h-1.96c-.08,0-.15,0-.22.05-.08.03-.13.1-.17.19s-.08.2-.1.33c-.03.14-.04.31-.04.5,0,.37.04.65.14.82.09.16.23.25.38.25h1.97v8.22c0,.82.08,1.53.22,2.12.15.6.39,1.09.73,1.49.33.38.75.68,1.28.87s1.15.28,1.89.28c.23,0,.47-.01.71-.04.25-.03.47-.07.69-.12.21-.04.4-.1.57-.17.16-.08.29-.16.37-.24.09-.09.15-.22.19-.39.04-.17.07-.41.07-.72,0-.19,0-.34-.03-.46-.02-.13-.04-.24-.07-.31h0Zm16.01-9.36c-.17-.72-.45-1.33-.85-1.88-.39-.52-.92-.95-1.56-1.27-.64-.32-1.43-.47-2.37-.47-.75,0-1.52.19-2.27.56-.75.38-1.49.97-2.24,1.76v-8.44c0-.08-.02-.15-.05-.22-.04-.05-.11-.11-.21-.15-.09-.04-.23-.07-.39-.09-.16-.02-.38-.03-.63-.03s-.47.01-.63.03-.29.04-.39.09c-.1.04-.17.1-.22.15-.03.07-.05.14-.05.22v20.9c0,.08.02.15.05.21.04.05.12.12.22.15.1.04.23.08.39.1.16.02.37.03.63.03s.47-.01.63-.03.31-.05.39-.1c.1-.03.16-.1.21-.15.03-.05.05-.13.05-.21v-9.84c.72-.88,1.39-1.56,2.04-2.02.64-.46,1.29-.69,1.93-.69.5,0,.95.1,1.32.28.39.19.7.47.94.82.23.35.43.77.55,1.27.13.49.19,1.13.19,1.93v8.25c0,.08.02.15.07.21s.11.12.2.15c.1.04.23.08.39.1.17.02.38.03.64.03s.47-.01.63-.03.29-.05.38-.1c.1-.03.16-.1.21-.15.03-.05.05-.13.05-.21v-8.56c0-1.01-.08-1.88-.25-2.6Zm17.27.46c-.24-.81-.6-1.52-1.1-2.12s-1.15-1.08-1.92-1.43c-.79-.35-1.71-.52-2.83-.52-1.04,0-1.96.17-2.79.53-.84.35-1.55.87-2.14,1.55-.59.67-1.04,1.48-1.35,2.45-.32.96-.47,2.05-.47,3.25,0,1.29.15,2.4.45,3.36.31.96.75,1.75,1.35,2.39.59.63,1.33,1.11,2.2,1.43.86.33,1.88.49,3.03.49.67,0,1.3-.04,1.89-.14s1.11-.21,1.55-.35c.46-.12.82-.25,1.1-.38.27-.12.46-.22.51-.27s.1-.12.14-.17c.03-.08.05-.14.08-.23.01-.08.02-.16.03-.26,0-.1.02-.21.02-.35,0-.19-.01-.35-.03-.48-.01-.13-.03-.23-.07-.29-.03-.08-.08-.13-.13-.16-.05-.04-.12-.05-.2-.05-.13,0-.32.05-.57.16-.24.11-.56.23-.94.36s-.84.26-1.35.37c-.53.11-1.12.16-1.8.16-.85,0-1.57-.12-2.15-.36-.59-.24-1.06-.58-1.44-1.04-.36-.45-.62-.98-.77-1.6-.16-.63-.24-1.33-.24-2.12h9.27c.26,0,.49-.08.7-.26.2-.17.31-.46.31-.86v-.47c0-.92-.12-1.79-.35-2.59Zm-9.93,2.29c.02-.58.13-1.12.31-1.66.17-.52.43-.98.74-1.37.34-.4.73-.72,1.22-.96.48-.24,1.05-.35,1.68-.35,1.25,0,2.18.38,2.83,1.16.63.75.94,1.83.91,3.19h-7.68Zm27.83-11.25c-.04-.05-.12-.11-.22-.15s-.23-.09-.41-.11c-.17,0-.39-.02-.63-.02-.27,0-.49.01-.65.02-.17.02-.31.07-.41.11-.1.04-.19.1-.23.15-.04.07-.05.13-.05.21v14.48c0,.68-.04,1.22-.13,1.65-.08.43-.21.76-.37.99-.16.24-.38.4-.63.49-.24.09-.55.14-.91.14-.32,0-.6-.04-.83-.12-.25-.09-.46-.16-.64-.26-.17-.09-.33-.17-.47-.25-.13-.08-.24-.12-.32-.12-.09,0-.15.02-.22.05-.05.03-.1.1-.14.19s-.07.21-.09.36c-.01.15-.02.35-.02.57v.48c.01.14.03.24.05.34.03.09.07.15.1.22s.09.12.14.19.16.14.35.23c.17.09.39.17.62.25.24.08.5.14.8.19.28.05.57.08.87.08.84,0,1.56-.13,2.15-.39.57-.25,1.04-.61,1.4-1.09.35-.46.6-1.04.75-1.69.14-.68.22-1.41.22-2.2v-14.75c0-.08-.03-.14-.08-.21h.01Zm18.4,9.29c-.28-.95-.72-1.75-1.29-2.39-.58-.67-1.29-1.17-2.15-1.52-.86-.34-1.87-.5-3.02-.5s-2.25.19-3.14.57c-.91.39-1.65.93-2.26,1.64-.59.69-1.05,1.52-1.34,2.49-.29.96-.44,2.02-.44,3.16s.14,2.26.41,3.2c.28.93.71,1.73,1.28,2.39.58.67,1.3,1.16,2.15,1.49.86.36,1.88.52,3.04.52s2.23-.2,3.13-.59c.89-.38,1.65-.94,2.25-1.63.6-.71,1.06-1.54,1.35-2.5.29-.97.46-2.03.46-3.17s-.15-2.23-.44-3.16h0Zm-2.49,5.57c-.17.68-.44,1.27-.8,1.76-.35.49-.82.87-1.36,1.13-.57.28-1.22.41-1.97.41-.84,0-1.53-.14-2.08-.45-.57-.29-1-.7-1.34-1.21-.33-.49-.56-1.09-.7-1.78-.15-.67-.23-1.4-.23-2.17s.09-1.54.27-2.21c.17-.68.44-1.27.79-1.77.37-.48.82-.87,1.37-1.15.55-.26,1.21-.4,1.99-.4.83,0,1.52.15,2.07.45.56.29,1,.7,1.33,1.21.32.51.56,1.1.7,1.78.14.69.22,1.4.22,2.16,0,.82-.09,1.56-.25,2.24h0Zm20.01-5.34c-.22-.92-.55-1.72-.99-2.4-.46-.69-1.05-1.22-1.77-1.64-.73-.4-1.6-.6-2.63-.6-.41,0-.82.03-1.19.12s-.75.22-1.12.39c-.37.19-.76.41-1.15.72-.4.28-.8.64-1.21,1.08v-8.44c0-.08-.02-.15-.07-.22-.05-.05-.12-.11-.21-.15-.1-.04-.23-.07-.39-.09-.16-.02-.37-.03-.64-.03-.24,0-.45.01-.62.03-.16.02-.31.04-.4.09-.1.04-.16.1-.2.15-.03.07-.05.14-.05.22v20.9c0,.08.01.15.04.22.03.05.1.12.19.15.1.03.22.07.37.09.14.02.32.03.52.03.22,0,.4-.01.55-.03s.25-.05.35-.09c.09-.03.15-.1.2-.15.04-.07.07-.14.07-.22v-1.72c.41.44.8.8,1.16,1.1.37.29.73.55,1.1.74.36.21.73.35,1.12.44.37.09.79.13,1.23.13.97,0,1.83-.17,2.57-.55.75-.37,1.4-.89,1.91-1.58s.91-1.52,1.17-2.5c.27-.97.4-2.07.4-3.28,0-1.03-.1-2-.31-2.91Zm-2.56,5.15c-.13.64-.34,1.22-.63,1.75-.28.5-.65.93-1.12,1.23-.46.33-1.03.48-1.67.48-.7,0-1.39-.24-2.03-.69-.65-.45-1.33-1.11-2.04-1.97v-5.62c.4-.52.79-.95,1.16-1.3.36-.34.7-.62,1.05-.85.33-.22.65-.37.99-.46.32-.1.64-.14.98-.14.67,0,1.23.15,1.68.47.46.33.82.74,1.09,1.25.27.53.47,1.13.58,1.81.11.68.16,1.37.16,2.09,0,.65-.07,1.31-.2,1.94Zm37.47-14.2c-.07-.14-.14-.27-.24-.37-.1-.1-.22-.16-.36-.21-.15-.05-.31-.08-.46-.08h-1.73c-.26,0-.5.03-.7.09-.21.05-.39.15-.55.27-.16.13-.32.31-.46.52-.13.23-.27.49-.38.8l-6.02,14.62h-.08l-5.78-14.66c-.11-.27-.22-.52-.34-.74-.13-.2-.28-.37-.47-.5-.2-.14-.43-.24-.68-.29-.25-.07-.55-.1-.89-.1h-1.64c-.29,0-.56.1-.79.28-.23.19-.36.49-.36.94v18.6c0,.09.02.16.08.22.03.07.1.12.21.16.1.03.23.07.4.09.16.03.38.04.64.04s.49-.01.65-.04c.19-.02.32-.05.43-.09.11-.04.19-.1.23-.16.03-.05.05-.13.05-.22v-17.62h.02l6.82,17.69c.02.07.07.12.12.17s.13.11.24.14c.1.03.23.07.39.09.15.02.34.03.56.03s.39-.01.55-.02c.15-.02.28-.04.39-.08.11-.04.19-.1.24-.15.07-.04.11-.11.13-.19l7.14-17.69h.03v17.62c0,.09.02.16.07.22.04.07.11.12.21.16.11.03.24.07.41.09.17.03.4.04.64.04.26,0,.48-.01.65-.04.16-.02.31-.05.41-.09.1-.04.17-.1.22-.16.04-.05.07-.13.07-.22v-18.6c0-.22-.03-.41-.1-.57h0Zm16.12,7.42c-.2-.67-.51-1.22-.95-1.66-.44-.45-1.01-.77-1.72-1s-1.57-.34-2.57-.34c-.55,0-1.08.04-1.61.14-.52.1-1.03.22-1.47.37s-.84.32-1.18.51c-.36.17-.6.33-.73.47-.14.13-.23.27-.26.43-.04.16-.05.36-.05.62,0,.15.01.29.02.44.02.13.05.23.11.32.04.08.1.14.16.19.05.04.13.07.21.07.13,0,.32-.08.58-.23.25-.15.57-.32.96-.5.37-.19.81-.35,1.32-.5.5-.14,1.08-.22,1.72-.22.58,0,1.09.07,1.49.21.41.14.74.34.99.62s.45.62.56,1.04c.11.43.17.89.17,1.44v1.1h-1.94c-1.09,0-2.08.09-2.96.28-.88.19-1.63.49-2.23.87-.6.39-1.07.86-1.4,1.45-.32.58-.48,1.28-.48,2.07,0,.67.12,1.28.35,1.8.24.53.57.98.98,1.35.44.36.94.63,1.54.84.6.19,1.28.28,2.02.28.84,0,1.64-.17,2.39-.55.76-.37,1.45-.88,2.06-1.53v1.4c0,.13.03.22.11.28.07.07.2.12.36.14.15.03.37.05.64.05s.49-.02.64-.05c.14-.02.25-.08.34-.14.08-.07.12-.15.12-.28v-9.49c0-.87-.1-1.65-.29-2.29h0Zm-2.26,8.34c-.64.7-1.24,1.23-1.83,1.57-.57.36-1.2.52-1.88.52-.84,0-1.48-.21-1.95-.65-.46-.43-.69-1.01-.69-1.73,0-.43.08-.81.24-1.15.16-.32.4-.6.76-.83.34-.24.76-.41,1.29-.53s1.13-.19,1.85-.19h2.2v2.99h0Zm16.15-10.3c0-.14-.01-.25-.03-.33,0-.07-.03-.13-.05-.17-.02-.04-.05-.1-.12-.14-.07-.05-.16-.11-.33-.16-.15-.04-.32-.1-.5-.13-.19-.04-.36-.08-.55-.09-.17-.02-.33-.02-.46-.02-.29,0-.6.03-.89.11s-.61.22-.91.43c-.29.2-.62.48-.96.83-.34.36-.71.82-1.09,1.37v-2.05c0-.08,0-.14-.05-.21-.03-.05-.09-.11-.17-.15-.09-.04-.2-.08-.36-.09-.15-.02-.34-.03-.57-.03s-.44.01-.58.03c-.14.01-.26.04-.36.09-.09.04-.15.1-.19.15-.03.07-.04.13-.04.21v14.08c0,.08.02.15.05.21.03.05.1.12.2.15.1.04.23.08.4.1s.38.03.62.03c.26,0,.47-.01.64-.03.17-.02.29-.05.39-.1.09-.03.16-.1.2-.15.04-.05.07-.13.07-.21v-9.26c.37-.58.7-1.06,1-1.45.31-.4.59-.71.86-.95.27-.25.55-.41.8-.52.25-.1.5-.15.77-.15.21,0,.41.02.6.07.19.03.36.08.51.13.15.04.28.09.4.13.12.05.22.08.31.08s.15-.02.2-.08c.04-.04.09-.11.12-.2.03-.09.05-.21.07-.36,0-.16.01-.36.01-.59s0-.43-.01-.57h0Zm15.06,13.41c-.05-.11-.15-.25-.28-.44l-5.73-7.43,5.09-5.09c.15-.16.26-.32.33-.44.08-.13.11-.26.11-.38,0-.09-.02-.16-.08-.23-.04-.05-.12-.1-.23-.13-.11-.04-.25-.07-.43-.08-.19-.02-.4-.03-.67-.03-.24,0-.46.01-.64.03-.17.01-.33.04-.46.09-.12.04-.24.11-.33.17-.11.07-.2.15-.27.25l-5.31,5.86v-12.74c0-.08-.02-.15-.07-.22-.04-.05-.11-.11-.2-.15-.1-.04-.23-.07-.4-.09-.16-.02-.37-.03-.63-.03s-.47.01-.63.03-.29.04-.39.09c-.1.04-.16.1-.2.15-.05.07-.07.14-.07.22v20.9c0,.08.01.15.07.21.03.05.1.12.2.15.1.04.23.08.39.1.16.02.37.03.63.03s.47-.01.63-.03c.17-.02.31-.05.4-.1.09-.03.15-.1.2-.15s.07-.13.07-.21v-7.81l5.94,7.79c.05.1.13.17.21.24s.17.13.29.17c.14.03.29.05.47.08.19.01.41.02.7.02s.49-.01.67-.03.33-.05.43-.1c.1-.03.16-.1.21-.16.04-.05.07-.13.07-.22s-.03-.19-.09-.29h0Zm14.36-10.38c-.24-.81-.61-1.52-1.1-2.12-.51-.6-1.15-1.08-1.92-1.43s-1.72-.52-2.83-.52c-1.04,0-1.96.17-2.8.53-.83.35-1.54.87-2.13,1.55-.59.67-1.05,1.48-1.35,2.45-.31.96-.47,2.05-.47,3.25,0,1.29.15,2.4.45,3.36.31.96.76,1.75,1.34,2.39.6.63,1.34,1.11,2.21,1.43.86.33,1.88.49,3.03.49.67,0,1.3-.04,1.88-.14.6-.1,1.12-.21,1.56-.35.45-.12.82-.25,1.1-.38.27-.12.45-.22.51-.27.05-.05.1-.12.14-.17.03-.08.05-.14.08-.23.01-.08.02-.16.03-.26s.02-.21.02-.35c0-.19-.01-.35-.03-.48,0-.13-.03-.23-.07-.29-.03-.08-.08-.13-.13-.16-.05-.04-.13-.05-.21-.05-.12,0-.31.05-.55.16-.25.11-.57.23-.95.36s-.84.26-1.35.37c-.53.11-1.13.16-1.8.16-.85,0-1.57-.12-2.15-.36-.59-.24-1.06-.58-1.44-1.04-.36-.45-.62-.98-.79-1.6-.15-.63-.23-1.33-.23-2.12h9.26c.27,0,.5-.08.71-.26.2-.17.31-.46.31-.86v-.47c0-.92-.12-1.79-.35-2.59Zm-9.93,2.29c.02-.58.12-1.12.31-1.66.17-.52.43-.98.74-1.37.34-.4.74-.72,1.21-.96.49-.24,1.05-.35,1.69-.35,1.24,0,2.19.38,2.83,1.16.64.75.94,1.83.91,3.19h-7.68Zm21.88,6.61c-.02-.08-.05-.12-.11-.15-.04-.02-.09-.03-.14-.03-.09,0-.19.02-.29.07-.1.04-.22.1-.37.15-.14.04-.31.11-.5.15-.19.04-.39.07-.63.07-.74,0-1.25-.25-1.55-.74-.28-.5-.43-1.22-.43-2.19v-7.85h3.61c.16,0,.28-.09.38-.25.09-.16.14-.45.14-.82,0-.2-.01-.36-.03-.5-.02-.13-.05-.24-.1-.33-.05-.09-.11-.15-.16-.19-.07-.04-.14-.05-.23-.05h-3.61v-3.35c0-.09-.02-.15-.05-.21-.04-.07-.11-.12-.21-.16-.09-.04-.23-.09-.39-.1-.16-.02-.38-.03-.63-.03s-.47.01-.63.03c-.16,0-.29.05-.39.1-.1.04-.17.1-.22.16-.03.05-.05.12-.05.21v3.35h-1.95c-.09,0-.15,0-.23.05-.07.03-.12.1-.15.19-.04.09-.08.2-.11.33-.02.14-.03.31-.03.5,0,.37.04.65.14.82.09.16.21.25.37.25h1.96v8.22c0,.82.08,1.53.24,2.12.15.6.38,1.09.72,1.49.34.38.76.68,1.29.87.51.2,1.15.28,1.87.28.25,0,.49-.01.72-.04.24-.03.48-.07.69-.12.22-.04.4-.1.57-.17.17-.08.29-.16.38-.24.08-.09.14-.22.19-.39s.07-.41.07-.72c0-.19-.01-.34-.03-.46-.02-.13-.04-.24-.08-.31h0Z"/></g></g></g></svg>